EBGaramondVF-Compressed_Regular.ufo
<glyph name="exclam" format="1">
  <advance width="196"/>
  <unicode hex="0021"/>
  <outline>
    <contour>
      <point x="110" y="235" type="curve" smooth="yes"/>
      <point x="122" y="358"/>
      <point x="133" y="523"/>
      <point x="133" y="605" type="curve" smooth="yes"/>
      <point x="133" y="628"/>
      <point x="120" y="649"/>
      <point x="98" y="649" type="curve" smooth="yes"/>
      <point x="77" y="649"/>
      <point x="62" y="628"/>
      <point x="62" y="605" type="curve" smooth="yes"/>
      <point x="62" y="523"/>
      <point x="70" y="358"/>
      <point x="82" y="235" type="curve" smooth="yes"/>
      <point x="83" y="213"/>
      <point x="89" y="205"/>
      <point x="96" y="205" type="curve" smooth="yes"/>
      <point x="104" y="205"/>
      <point x="109" y="218"/>
    </contour>
    <contour>
      <point x="149" y="37" type="curve" smooth="yes"/>
      <point x="149" y="66"/>
      <point x="126" y="88"/>
      <point x="97" y="88" type="curve" smooth="yes"/>
      <point x="69" y="88"/>
      <point x="47" y="66"/>
      <point x="47" y="37" type="curve" smooth="yes"/>
      <point x="47" y="9"/>
      <point x="69" y="-14"/>
      <point x="97" y="-14" type="curve" smooth="yes"/>
      <point x="126" y="-14"/>
      <point x="149" y="9"/>
    </contour>
  </outline>
</glyph>
<glyph name="numbersign" format="1">
  <advance width="353"/>
  <unicode hex="0023"/>
  <outline>
    <contour>
      <point x="47" y="-79" type="curve" smooth="yes"/>
      <point x="54" y="-79"/>
      <point x="69" y="-77"/>
      <point x="71" y="-66" type="curve" smooth="yes"/>
      <point x="104" y="116" type="line"/>
      <point x="185" y="122" type="line"/>
      <point x="153" y="-54" type="line"/>
      <point x="153" y="-59" type="line" smooth="yes"/>
      <point x="153" y="-64"/>
      <point x="155" y="-68"/>
      <point x="158" y="-68" type="curve" smooth="yes"/>
      <point x="164" y="-68"/>
      <point x="185" y="-66"/>
      <point x="186" y="-55" type="curve" smooth="yes"/>
      <point x="218" y="124" type="line"/>
      <point x="263" y="127" type="line" smooth="yes"/>
      <point x="279" y="128"/>
      <point x="286" y="164"/>
      <point x="286" y="173" type="curve" smooth="yes"/>
      <point x="286" y="180"/>
      <point x="281" y="185"/>
      <point x="276" y="185" type="curve"/>
      <point x="228" y="182" type="line"/>
      <point x="254" y="322" type="line"/>
      <point x="298" y="325" type="line" smooth="yes"/>
      <point x="313" y="326"/>
      <point x="320" y="362"/>
      <point x="320" y="372" type="curve" smooth="yes"/>
      <point x="320" y="379"/>
      <point x="315" y="383"/>
      <point x="310" y="383" type="curve"/>
      <point x="264" y="380" type="line"/>
      <point x="295" y="555" type="line"/>
      <point x="295" y="557"/>
      <point x="296" y="558"/>
      <point x="296" y="560" type="curve" smooth="yes"/>
      <point x="296" y="565"/>
      <point x="284" y="570"/>
      <point x="281" y="570" type="curve" smooth="yes"/>
      <point x="275" y="570"/>
      <point x="265" y="568"/>
      <point x="262" y="555" type="curve" smooth="yes"/>
      <point x="231" y="377" type="line"/>
      <point x="150" y="373" type="line"/>
      <point x="180" y="542" type="line" smooth="yes"/>
      <point x="180" y="545"/>
      <point x="181" y="547"/>
      <point x="181" y="550" type="curve" smooth="yes"/>
      <point x="181" y="555"/>
      <point x="177" y="559"/>
      <point x="173" y="559" type="curve" smooth="yes"/>
      <point x="167" y="559"/>
      <point x="151" y="556"/>
      <point x="149" y="544" type="curve" smooth="yes"/>
      <point x="118" y="370" type="line"/>
      <point x="64" y="367" type="line" smooth="yes"/>
      <point x="49" y="366"/>
      <point x="47" y="330"/>
      <point x="47" y="321" type="curve" smooth="yes"/>
      <point x="47" y="314"/>
      <point x="52" y="309"/>
      <point x="57" y="309" type="curve"/>
      <point x="108" y="312" type="line"/>
      <point x="83" y="172" type="line"/>
      <point x="30" y="169" type="line" smooth="yes"/>
      <point x="15" y="168"/>
      <point x="13" y="133"/>
      <point x="13" y="123" type="curve" smooth="yes"/>
      <point x="13" y="116"/>
      <point x="18" y="111"/>
      <point x="23" y="111" type="curve"/>
      <point x="73" y="114" type="line"/>
      <point x="40" y="-64" type="line"/>
      <point x="40" y="-70" type="line" smooth="yes"/>
      <point x="40" y="-75"/>
      <point x="44" y="-79"/>
    </contour>
    <contour>
      <point x="114" y="175" type="line"/>
      <point x="139" y="315" type="line"/>
      <point x="220" y="319" type="line"/>
      <point x="196" y="180" type="line"/>
    </contour>
  </outline>
</glyph>
<glyph name="dollar" format="1">
  <advance width="342"/>
  <unicode hex="0024"/>
  <outline>
    <contour>
      <point x="133" y="-76" type="curve" smooth="yes"/>
      <point x="142" y="-75"/>
      <point x="152" y="-71"/>
      <point x="153" y="-62" type="curve" smooth="yes"/>
      <point x="160" y="11" type="line" smooth="yes"/>
      <point x="160" y="16"/>
      <point x="163" y="17"/>
      <point x="168" y="18" type="curve" smooth="yes"/>
      <point x="248" y="25"/>
      <point x="309" y="96"/>
      <point x="309" y="193" type="curve" smooth="yes"/>
      <point x="309" y="270"/>
      <point x="267" y="313"/>
      <point x="207" y="365" type="curve" smooth="yes"/>
      <point x="198" y="372"/>
      <point x="198" y="375"/>
      <point x="199" y="383" type="curve" smooth="yes"/>
      <point x="219" y="573" type="line"/>
      <point x="219" y="575"/>
      <point x="220" y="578"/>
      <point x="223" y="578" type="curve" smooth="yes"/>
      <point x="242" y="577"/>
      <point x="258" y="536"/>
      <point x="269" y="500" type="curve" smooth="yes"/>
      <point x="271" y="493"/>
      <point x="278" y="487"/>
      <point x="290" y="487" type="curve" smooth="yes"/>
      <point x="297" y="487"/>
      <point x="305" y="491"/>
      <point x="305" y="499" type="curve" smooth="yes"/>
      <point x="305" y="530"/>
      <point x="296" y="564"/>
      <point x="289" y="587" type="curve" smooth="yes"/>
      <point x="287" y="594"/>
      <point x="281" y="602"/>
      <point x="274" y="607" type="curve" smooth="yes"/>
      <point x="265" y="612"/>
      <point x="248" y="621"/>
      <point x="231" y="624" type="curve" smooth="yes"/>
      <point x="227" y="626"/>
      <point x="226" y="628"/>
      <point x="226" y="631" type="curve" smooth="yes"/>
      <point x="226" y="640"/>
      <point x="232" y="694"/>
      <point x="233" y="703" type="curve"/>
      <point x="232" y="710"/>
      <point x="228" y="717"/>
      <point x="222" y="717" type="curve" smooth="yes"/>
      <point x="212" y="717"/>
      <point x="198" y="714"/>
      <point x="197" y="701" type="curve" smooth="yes"/>
      <point x="192" y="639" type="line" smooth="yes"/>
      <point x="192" y="636"/>
      <point x="189" y="633"/>
      <point x="184" y="632" type="curve" smooth="yes"/>
      <point x="90" y="629"/>
      <point x="43" y="555"/>
      <point x="43" y="477" type="curve" smooth="yes"/>
      <point x="43" y="408"/>
      <point x="90" y="355"/>
      <point x="143" y="309" type="curve" smooth="yes"/>
      <point x="151" y="303"/>
      <point x="155" y="296"/>
      <point x="153" y="287" type="curve" smooth="yes"/>
      <point x="131" y="68" type="line" smooth="yes"/>
      <point x="131" y="64"/>
      <point x="125" y="62"/>
      <point x="122" y="65" type="curve" smooth="yes"/>
      <point x="100" y="83"/>
      <point x="77" y="112"/>
      <point x="63" y="176" type="curve" smooth="yes"/>
      <point x="61" y="183"/>
      <point x="55" y="188"/>
      <point x="47" y="188" type="curve" smooth="yes"/>
      <point x="38" y="188"/>
      <point x="30" y="182"/>
      <point x="30" y="174" type="curve"/>
      <point x="32" y="148"/>
      <point x="32" y="103"/>
      <point x="37" y="78" type="curve" smooth="yes"/>
      <point x="39" y="71"/>
      <point x="43" y="65"/>
      <point x="46" y="60" type="curve" smooth="yes"/>
      <point x="65" y="41"/>
      <point x="95" y="25"/>
      <point x="119" y="21" type="curve" smooth="yes"/>
      <point x="122" y="20"/>
      <point x="127" y="17"/>
      <point x="126" y="11" type="curve"/>
      <point x="119" y="-59" type="line" smooth="yes"/>
      <point x="118" y="-69"/>
      <point x="125" y="-76"/>
    </contour>
    <contour>
      <point x="171" y="48" type="curve"/>
      <point x="166" y="48"/>
      <point x="164" y="50"/>
      <point x="164" y="56" type="curve"/>
      <point x="184" y="245" type="line" smooth="yes"/>
      <point x="184" y="249"/>
      <point x="188" y="253"/>
      <point x="191" y="250" type="curve" smooth="yes"/>
      <point x="220" y="226"/>
      <point x="237" y="201"/>
      <point x="237" y="161" type="curve" smooth="yes"/>
      <point x="237" y="100"/>
      <point x="209" y="48"/>
    </contour>
    <contour>
      <point x="158" y="415" type="curve"/>
      <point x="129" y="438"/>
      <point x="110" y="467"/>
      <point x="110" y="500" type="curve" smooth="yes"/>
      <point x="110" y="564"/>
      <point x="142" y="603"/>
      <point x="179" y="603" type="curve" smooth="yes"/>
      <point x="184" y="603"/>
      <point x="186" y="600"/>
      <point x="186" y="595" type="curve"/>
      <point x="167" y="417" type="line"/>
      <point x="167" y="412"/>
      <point x="164" y="410"/>
    </contour>
  </outline>
</glyph>
<glyph name="ampersand" format="1">
  <advance width="575"/>
  <unicode hex="0026"/>
  <outline>
    <contour>
      <point x="160" y="-15" type="curve" smooth="yes"/>
      <point x="229" y="-15"/>
      <point x="263" y="43"/>
      <point x="309" y="111" type="curve"/>
      <point x="314" y="117" type="line"/>
      <point x="324" y="99" type="line" smooth="yes"/>
      <point x="366" y="21"/>
      <point x="384" y="-14"/>
      <point x="441" y="-14" type="curve" smooth="yes"/>
      <point x="483" y="-14"/>
      <point x="540" y="38"/>
      <point x="540" y="55" type="curve" smooth="yes"/>
      <point x="540" y="61"/>
      <point x="539" y="64"/>
      <point x="534" y="64" type="curve" smooth="yes"/>
      <point x="530" y="64"/>
      <point x="526" y="61"/>
      <point x="521" y="57" type="curve" smooth="yes"/>
      <point x="508" y="45"/>
      <point x="490" y="38"/>
      <point x="466" y="38" type="curve" smooth="yes"/>
      <point x="429" y="38"/>
      <point x="397" y="80"/>
      <point x="365" y="140" type="curve" smooth="yes"/>
      <point x="350" y="167" type="line"/>
      <point x="350" y="167"/>
      <point x="472" y="337"/>
      <point x="481" y="348" type="curve"/>
      <point x="495" y="366"/>
      <point x="518" y="380"/>
      <point x="540" y="382" type="curve" smooth="yes"/>
      <point x="548" y="382"/>
      <point x="560" y="391"/>
      <point x="560" y="398" type="curve" smooth="yes"/>
      <point x="560" y="402"/>
      <point x="553" y="407"/>
      <point x="550" y="407" type="curve" smooth="yes"/>
      <point x="533" y="407"/>
      <point x="493" y="399"/>
      <point x="471" y="399" type="curve" smooth="yes"/>
      <point x="460" y="399"/>
      <point x="415" y="404"/>
      <point x="411" y="404" type="curve" smooth="yes"/>
      <point x="407" y="404"/>
      <point x="395" y="402"/>
      <point x="395" y="393" type="curve" smooth="yes"/>
      <point x="395" y="388"/>
      <point x="402" y="384"/>
      <point x="407" y="382" type="curve"/>
      <point x="427" y="379"/>
      <point x="437" y="369"/>
      <point x="436" y="355" type="curve" smooth="yes"/>
      <point x="436" y="337"/>
      <point x="387" y="259"/>
      <point x="353" y="209" type="curve" smooth="yes"/>
      <point x="340" y="190" type="line"/>
      <point x="328" y="208" type="line" smooth="yes"/>
      <point x="296" y="264"/>
      <point x="278" y="289"/>
      <point x="241" y="344" type="curve" smooth="yes"/>
      <point x="231" y="358" type="line"/>
      <point x="243" y="364" type="line" smooth="yes"/>
      <point x="293" y="390"/>
      <point x="324" y="428"/>
      <point x="323" y="484" type="curve" smooth="yes"/>
      <point x="323" y="533"/>
      <point x="293" y="599"/>
      <point x="219" y="599" type="curve" smooth="yes"/>
      <point x="162" y="599"/>
      <point x="105" y="554"/>
      <point x="105" y="484" type="curve" smooth="yes"/>
      <point x="105" y="425"/>
      <point x="141" y="392"/>
      <point x="156" y="370" type="curve"/>
      <point x="171" y="350" type="line"/>
      <point x="156" y="341" type="line" smooth="yes"/>
      <point x="79" y="297"/>
      <point x="26" y="234"/>
      <point x="26" y="127" type="curve" smooth="yes"/>
      <point x="26" y="45"/>
      <point x="81" y="-15"/>
    </contour>
    <contour>
      <point x="181" y="48" type="curve" smooth="yes"/>
      <point x="133" y="48"/>
      <point x="100" y="97"/>
      <point x="100" y="159" type="curve" smooth="yes"/>
      <point x="100" y="218"/>
      <point x="108" y="284"/>
      <point x="171" y="319" type="curve" smooth="yes"/>
      <point x="185" y="326" type="line"/>
      <point x="195" y="313" type="line" smooth="yes"/>
      <point x="237" y="252"/>
      <point x="265" y="209"/>
      <point x="292" y="159" type="curve" smooth="yes"/>
      <point x="303" y="142" type="line"/>
      <point x="296" y="133" type="line" smooth="yes"/>
      <point x="255" y="81"/>
      <point x="225" y="48"/>
    </contour>
    <contour>
      <point x="220" y="377" type="line"/>
      <point x="208" y="393" type="line" smooth="yes"/>
      <point x="170" y="445"/>
      <point x="161" y="467"/>
      <point x="161" y="505" type="curve" smooth="yes"/>
      <point x="161" y="542"/>
      <point x="187" y="576"/>
      <point x="214" y="576" type="curve" smooth="yes"/>
      <point x="245" y="576"/>
      <point x="262" y="535"/>
      <point x="262" y="484" type="curve" smooth="yes"/>
      <point x="262" y="448"/>
      <point x="254" y="401"/>
      <point x="230" y="384" type="curve" smooth="yes"/>
    </contour>
  </outline>
</glyph>
<glyph name="quotesingle" format="1">
  <advance width="198"/>
  <unicode hex="0027"/>
  <outline>
    <contour>
      <point x="72" y="447" type="curve" smooth="yes"/>
      <point x="75" y="446"/>
      <point x="82" y="456"/>
      <point x="88" y="466" type="curve" smooth="yes"/>
      <point x="103" y="499"/>
      <point x="134" y="575"/>
      <point x="134" y="623" type="curve" smooth="yes"/>
      <point x="135" y="642"/>
      <point x="133" y="666"/>
      <point x="124" y="672" type="curve" smooth="yes"/>
      <point x="110" y="674"/>
      <point x="101" y="669"/>
      <point x="86" y="658" type="curve" smooth="yes"/>
      <point x="77" y="651"/>
      <point x="66" y="638"/>
      <point x="64" y="624" type="curve"/>
      <point x="63" y="611"/>
      <point x="68" y="564"/>
      <point x="68" y="536" type="curve" smooth="yes"/>
      <point x="68" y="520"/>
      <point x="69" y="495"/>
      <point x="68" y="474" type="curve" smooth="yes"/>
      <point x="68" y="464"/>
      <point x="69" y="449"/>
    </contour>
  </outline>
</glyph>
<glyph name="parenleft" format="1">
  <advance width="239"/>
  <unicode hex="0028"/>
  <outline>
    <contour>
      <point x="184" y="-212" type="curve" smooth="yes"/>
      <point x="189" y="-212"/>
      <point x="198" y="-206"/>
      <point x="198" y="-195" type="curve" smooth="yes"/>
      <point x="198" y="-192"/>
      <point x="194" y="-181"/>
      <point x="191" y="-177" type="curve" smooth="yes"/>
      <point x="132" y="-53"/>
      <point x="111" y="118"/>
      <point x="111" y="277" type="curve" smooth="yes"/>
      <point x="111" y="434"/>
      <point x="131" y="569"/>
      <point x="191" y="673" type="curve" smooth="yes"/>
      <point x="194" y="677"/>
      <point x="198" y="688"/>
      <point x="198" y="691" type="curve" smooth="yes"/>
      <point x="198" y="699"/>
      <point x="189" y="705"/>
      <point x="185" y="705" type="curve" smooth="yes"/>
      <point x="180" y="705"/>
      <point x="175" y="700"/>
      <point x="170" y="694" type="curve" smooth="yes"/>
      <point x="118" y="627"/>
      <point x="31" y="434"/>
      <point x="31" y="269" type="curve" smooth="yes"/>
      <point x="31" y="99"/>
      <point x="122" y="-131"/>
      <point x="171" y="-203" type="curve" smooth="yes"/>
      <point x="176" y="-209"/>
      <point x="180" y="-212"/>
    </contour>
  </outline>
</glyph>
<glyph name="asterisk" format="1">
  <advance width="261"/>
  <unicode hex="002A"/>
  <outline>
    <contour>
      <point x="141" y="372" type="curve" smooth="yes"/>
      <point x="148" y="372"/>
      <point x="155" y="382"/>
      <point x="155" y="394" type="curve" smooth="yes"/>
      <point x="155" y="430"/>
      <point x="154" y="459"/>
      <point x="153" y="488" type="curve"/>
      <point x="173" y="478"/>
      <point x="192" y="465"/>
      <point x="213" y="455" type="curve" smooth="yes"/>
      <point x="219" y="452"/>
      <point x="235" y="454"/>
      <point x="235" y="465" type="curve" smooth="yes"/>
      <point x="235" y="470"/>
      <point x="232" y="477"/>
      <point x="228" y="480" type="curve" smooth="yes"/>
      <point x="203" y="500"/>
      <point x="185" y="511"/>
      <point x="166" y="525" type="curve"/>
      <point x="219" y="585" type="line" smooth="yes"/>
      <point x="223" y="590"/>
      <point x="225" y="596"/>
      <point x="225" y="602" type="curve" smooth="yes"/>
      <point x="225" y="609"/>
      <point x="219" y="614"/>
      <point x="215" y="614" type="curve" smooth="yes"/>
      <point x="212" y="614"/>
      <point x="208" y="612"/>
      <point x="205" y="609" type="curve" smooth="yes"/>
      <point x="182" y="591"/>
      <point x="165" y="575"/>
      <point x="148" y="559" type="curve"/>
      <point x="135" y="652" type="line" smooth="yes"/>
      <point x="134" y="661"/>
      <point x="129" y="670"/>
      <point x="122" y="670" type="curve" smooth="yes"/>
      <point x="114" y="670"/>
      <point x="108" y="661"/>
      <point x="108" y="647" type="curve" smooth="yes"/>
      <point x="107" y="613"/>
      <point x="108" y="583"/>
      <point x="110" y="554" type="curve"/>
      <point x="90" y="566"/>
      <point x="69" y="576"/>
      <point x="46" y="588" type="curve" smooth="yes"/>
      <point x="39" y="590"/>
      <point x="26" y="591"/>
      <point x="26" y="579" type="curve" smooth="yes"/>
      <point x="26" y="572"/>
      <point x="32" y="565"/>
      <point x="38" y="561" type="curve" smooth="yes"/>
      <point x="60" y="543"/>
      <point x="78" y="530"/>
      <point x="97" y="517" type="curve"/>
      <point x="44" y="459" type="line" smooth="yes"/>
      <point x="40" y="454"/>
      <point x="38" y="448"/>
      <point x="38" y="442" type="curve" smooth="yes"/>
      <point x="38" y="435"/>
      <point x="43" y="430"/>
      <point x="49" y="430" type="curve" smooth="yes"/>
      <point x="51" y="430"/>
      <point x="55" y="432"/>
      <point x="58" y="435" type="curve" smooth="yes"/>
      <point x="80" y="453"/>
      <point x="97" y="468"/>
      <point x="115" y="483" type="curve"/>
      <point x="128" y="389" type="line" smooth="yes"/>
      <point x="129" y="378"/>
      <point x="136" y="372"/>
    </contour>
  </outline>
</glyph>
<glyph name="plus" format="1">
  <advance width="431"/>
  <unicode hex="002B"/>
  <outline>
    <contour>
      <point x="202" y="57" type="curve" smooth="yes"/>
      <point x="208" y="57"/>
      <point x="237" y="59"/>
      <point x="237" y="76" type="curve" smooth="yes"/>
      <point x="237" y="220" type="line" smooth="yes"/>
      <point x="237" y="223"/>
      <point x="238" y="224"/>
      <point x="240" y="224" type="curve" smooth="yes"/>
      <point x="366" y="224" type="line" smooth="yes"/>
      <point x="385" y="224"/>
      <point x="397" y="245"/>
      <point x="397" y="258" type="curve" smooth="yes"/>
      <point x="397" y="263"/>
      <point x="391" y="266"/>
      <point x="384" y="266" type="curve" smooth="yes"/>
      <point x="239" y="266" type="line" smooth="yes"/>
      <point x="237" y="266"/>
      <point x="237" y="266"/>
      <point x="237" y="270" type="curve" smooth="yes"/>
      <point x="237" y="414" type="line" smooth="yes"/>
      <point x="237" y="419"/>
      <point x="232" y="424"/>
      <point x="226" y="424" type="curve" smooth="yes"/>
      <point x="222" y="424"/>
      <point x="193" y="417"/>
      <point x="193" y="400" type="curve" smooth="yes"/>
      <point x="193" y="272" type="line" smooth="yes"/>
      <point x="193" y="267"/>
      <point x="192" y="266"/>
      <point x="188" y="266" type="curve" smooth="yes"/>
      <point x="58" y="266" type="line" smooth="yes"/>
      <point x="40" y="266"/>
      <point x="34" y="240"/>
      <point x="34" y="233" type="curve" smooth="yes"/>
      <point x="34" y="228"/>
      <point x="41" y="224"/>
      <point x="48" y="224" type="curve" smooth="yes"/>
      <point x="190" y="224" type="line" smooth="yes"/>
      <point x="192" y="224"/>
      <point x="193" y="222"/>
      <point x="193" y="220" type="curve" smooth="yes"/>
      <point x="193" y="68" type="line" smooth="yes"/>
      <point x="193" y="62"/>
      <point x="197" y="57"/>
    </contour>
  </outline>
</glyph>
<glyph name="comma" format="1">
  <advance width="228"/>
  <unicode hex="002C"/>
  <outline>
    <contour>
      <point x="38" y="-147" type="curve" smooth="yes"/>
      <point x="89" y="-147"/>
      <point x="181" y="-82"/>
      <point x="181" y="19" type="curve" smooth="yes"/>
      <point x="181" y="76"/>
      <point x="146" y="117"/>
      <point x="98" y="117" type="curve" smooth="yes"/>
      <point x="69" y="117"/>
      <point x="44" y="98"/>
      <point x="44" y="72" type="curve" smooth="yes"/>
      <point x="44" y="50"/>
      <point x="62" y="34"/>
      <point x="90" y="29" type="curve" smooth="yes"/>
      <point x="113" y="25"/>
      <point x="132" y="2"/>
      <point x="132" y="-21" type="curve" smooth="yes"/>
      <point x="132" y="-85"/>
      <point x="77" y="-123"/>
      <point x="34" y="-129" type="curve" smooth="yes"/>
      <point x="25" y="-131"/>
      <point x="20" y="-135"/>
      <point x="20" y="-139" type="curve" smooth="yes"/>
      <point x="20" y="-143"/>
      <point x="26" y="-147"/>
    </contour>
  </outline>
</glyph>
<glyph name="hyphen" format="1">
  <advance width="151"/>
  <unicode hex="002D"/>
  <outline>
    <contour>
      <point x="123" y="195" type="curve" smooth="yes"/>
      <point x="131" y="196"/>
      <point x="134" y="219"/>
      <point x="134" y="240" type="curve" smooth="yes"/>
      <point x="134" y="244"/>
      <point x="131" y="245"/>
      <point x="129" y="245" type="curve"/>
      <point x="94" y="241"/>
      <point x="60" y="236"/>
      <point x="25" y="232" type="curve"/>
      <point x="20" y="231"/>
      <point x="17" y="206"/>
      <point x="17" y="187" type="curve" smooth="yes"/>
      <point x="17" y="184"/>
      <point x="17" y="182"/>
      <point x="20" y="182" type="curve"/>
      <point x="55" y="186"/>
      <point x="88" y="191"/>
    </contour>
  </outline>
</glyph>
<glyph name="period" format="1">
  <advance width="216"/>
  <unicode hex="002E"/>
  <outline>
    <contour>
      <point x="156" y="34" type="curve" smooth="yes"/>
      <point x="156" y="60"/>
      <point x="134" y="82"/>
      <point x="108" y="82" type="curve" smooth="yes"/>
      <point x="82" y="82"/>
      <point x="60" y="60"/>
      <point x="60" y="34" type="curve" smooth="yes"/>
      <point x="60" y="8"/>
      <point x="82" y="-14"/>
      <point x="108" y="-14" type="curve" smooth="yes"/>
      <point x="134" y="-14"/>
      <point x="156" y="8"/>
    </contour>
  </outline>
</glyph>
<glyph name="zero" format="1">
  <advance width="379"/>
  <unicode hex="0030"/>
  <outline>
    <contour>
      <point x="185" y="-14" type="curve" smooth="yes"/>
      <point x="303" y="-14"/>
      <point x="352" y="159"/>
      <point x="352" y="316" type="curve" smooth="yes"/>
      <point x="352" y="468"/>
      <point x="301" y="630"/>
      <point x="193" y="630" type="curve" smooth="yes"/>
      <point x="75" y="630"/>
      <point x="26" y="461"/>
      <point x="26" y="302" type="curve" smooth="yes"/>
      <point x="26" y="147"/>
      <point x="77" y="-14"/>
    </contour>
    <contour>
      <point x="197" y="13" type="curve" smooth="yes"/>
      <point x="136" y="13"/>
      <point x="107" y="161"/>
      <point x="107" y="320" type="curve" smooth="yes"/>
      <point x="107" y="479"/>
      <point x="126" y="601"/>
      <point x="180" y="601" type="curve" smooth="yes"/>
      <point x="240" y="601"/>
      <point x="272" y="457"/>
      <point x="272" y="298" type="curve" smooth="yes"/>
      <point x="272" y="139"/>
      <point x="251" y="13"/>
    </contour>
  </outline>
</glyph>
<glyph name="one" format="1">
  <advance width="282"/>
  <unicode hex="0031"/>
  <outline>
    <contour>
      <point x="134" y="2" type="curve" smooth="yes"/>
      <point x="160" y="2"/>
      <point x="196" y="-3"/>
      <point x="224" y="-3" type="curve" smooth="yes"/>
      <point x="228" y="-3"/>
      <point x="231" y="2"/>
      <point x="231" y="7" type="curve" smooth="yes"/>
      <point x="231" y="12"/>
      <point x="227" y="16"/>
      <point x="222" y="18" type="curve" smooth="yes"/>
      <point x="177" y="34"/>
      <point x="165" y="39"/>
      <point x="165" y="93" type="curve" smooth="yes"/>
      <point x="165" y="557" type="line" smooth="yes"/>
      <point x="165" y="585"/>
      <point x="166" y="608"/>
      <point x="166" y="628" type="curve"/>
      <point x="167" y="633"/>
      <point x="161" y="637"/>
      <point x="156" y="637" type="curve" smooth="yes"/>
      <point x="152" y="637"/>
      <point x="148" y="635"/>
      <point x="141" y="623" type="curve" smooth="yes"/>
      <point x="124" y="590"/>
      <point x="93" y="576"/>
      <point x="59" y="572" type="curve" smooth="yes"/>
      <point x="49" y="570"/>
      <point x="43" y="564"/>
      <point x="43" y="556" type="curve" smooth="yes"/>
      <point x="43" y="546"/>
      <point x="51" y="542"/>
      <point x="61" y="540" type="curve" smooth="yes"/>
      <point x="95" y="536"/>
      <point x="103" y="529"/>
      <point x="103" y="491" type="curve" smooth="yes"/>
      <point x="103" y="103" type="line" smooth="yes"/>
      <point x="103" y="43"/>
      <point x="83" y="37"/>
      <point x="43" y="19" type="curve" smooth="yes"/>
      <point x="40" y="17"/>
      <point x="36" y="12"/>
      <point x="36" y="8" type="curve" smooth="yes"/>
      <point x="36" y="2"/>
      <point x="38" y="-3"/>
      <point x="43" y="-3" type="curve" smooth="yes"/>
      <point x="69" y="-3"/>
      <point x="107" y="2"/>
    </contour>
  </outline>
</glyph>
<glyph name="two" format="1">
  <advance width="379"/>
  <unicode hex="0032"/>
  <outline>
    <contour>
      <point x="323" y="-3" type="curve" smooth="yes"/>
      <point x="328" y="-3"/>
      <point x="336" y="0"/>
      <point x="339" y="21" type="curve" smooth="yes"/>
      <point x="347" y="71"/>
      <point x="361" y="124"/>
      <point x="361" y="135" type="curve" smooth="yes"/>
      <point x="361" y="140"/>
      <point x="360" y="148"/>
      <point x="353" y="148" type="curve" smooth="yes"/>
      <point x="346" y="148"/>
      <point x="341" y="141"/>
      <point x="336" y="127" type="curve" smooth="yes"/>
      <point x="322" y="82"/>
      <point x="308" y="66"/>
      <point x="268" y="64" type="curve" smooth="yes"/>
      <point x="236" y="62"/>
      <point x="199" y="61"/>
      <point x="173" y="61" type="curve" smooth="yes"/>
      <point x="147" y="61"/>
      <point x="125" y="61"/>
      <point x="109" y="64" type="curve" smooth="yes"/>
      <point x="103" y="65"/>
      <point x="98" y="66"/>
      <point x="98" y="71" type="curve" smooth="yes"/>
      <point x="124" y="108"/>
      <point x="170" y="168"/>
      <point x="201" y="213" type="curve" smooth="yes"/>
      <point x="253" y="278"/>
      <point x="317" y="385"/>
      <point x="317" y="481" type="curve" smooth="yes"/>
      <point x="317" y="564"/>
      <point x="272" y="630"/>
      <point x="189" y="630" type="curve" smooth="yes"/>
      <point x="97" y="630"/>
      <point x="55" y="528"/>
      <point x="47" y="488" type="curve" smooth="yes"/>
      <point x="46" y="472"/>
      <point x="52" y="463"/>
      <point x="57" y="463" type="curve" smooth="yes"/>
      <point x="62" y="463"/>
      <point x="67" y="474"/>
      <point x="70" y="483" type="curve" smooth="yes"/>
      <point x="94" y="534"/>
      <point x="124" y="566"/>
      <point x="163" y="566" type="curve" smooth="yes"/>
      <point x="209" y="566"/>
      <point x="238" y="523"/>
      <point x="238" y="450" type="curve" smooth="yes"/>
      <point x="238" y="362"/>
      <point x="201" y="268"/>
      <point x="148" y="195" type="curve" smooth="yes"/>
      <point x="36" y="28" type="line" smooth="yes"/>
      <point x="32" y="22"/>
      <point x="30" y="21"/>
      <point x="30" y="15" type="curve" smooth="yes"/>
      <point x="30" y="9"/>
      <point x="41" y="-2"/>
      <point x="44" y="-2" type="curve" smooth="yes"/>
      <point x="59" y="-2"/>
      <point x="189" y="3"/>
      <point x="226" y="3" type="curve" smooth="yes"/>
      <point x="262" y="3"/>
      <point x="309" y="-3"/>
    </contour>
  </outline>
</glyph>
<glyph name="three" format="1">
  <advance width="379"/>
  <unicode hex="0033"/>
  <outline>
    <contour>
      <point x="124" y="-38" type="curve" smooth="yes"/>
      <point x="230" y="-38"/>
      <point x="340" y="52"/>
      <point x="340" y="202" type="curve" smooth="yes"/>
      <point x="340" y="288"/>
      <point x="284" y="360"/>
      <point x="221" y="360" type="curve" smooth="yes"/>
      <point x="217" y="360"/>
      <point x="217" y="364"/>
      <point x="221" y="366" type="curve"/>
      <point x="279" y="411"/>
      <point x="302" y="467"/>
      <point x="302" y="515" type="curve" smooth="yes"/>
      <point x="302" y="584"/>
      <point x="253" y="630"/>
      <point x="198" y="630" type="curve" smooth="yes"/>
      <point x="96" y="630"/>
      <point x="51" y="538"/>
      <point x="51" y="500" type="curve" smooth="yes"/>
      <point x="51" y="490"/>
      <point x="58" y="480"/>
      <point x="66" y="480" type="curve" smooth="yes"/>
      <point x="75" y="480"/>
      <point x="89" y="570"/>
      <point x="160" y="570" type="curve" smooth="yes"/>
      <point x="200" y="570"/>
      <point x="226" y="526"/>
      <point x="226" y="470" type="curve" smooth="yes"/>
      <point x="226" y="393"/>
      <point x="162" y="342"/>
      <point x="139" y="330" type="curve" smooth="yes"/>
      <point x="129" y="324"/>
      <point x="120" y="315"/>
      <point x="118" y="298" type="curve" smooth="yes"/>
      <point x="117" y="290"/>
      <point x="124" y="285"/>
      <point x="130" y="290" type="curve" smooth="yes"/>
      <point x="145" y="302"/>
      <point x="165" y="305"/>
      <point x="175" y="305" type="curve" smooth="yes"/>
      <point x="228" y="305"/>
      <point x="258" y="225"/>
      <point x="258" y="149" type="curve" smooth="yes"/>
      <point x="258" y="64"/>
      <point x="213" y="-3"/>
      <point x="153" y="-3" type="curve" smooth="yes"/>
      <point x="127" y="-3"/>
      <point x="114" y="16"/>
      <point x="100" y="32" type="curve" smooth="yes"/>
      <point x="90" y="43"/>
      <point x="81" y="53"/>
      <point x="69" y="53" type="curve" smooth="yes"/>
      <point x="57" y="54"/>
      <point x="34" y="27"/>
      <point x="34" y="11" type="curve" smooth="yes"/>
      <point x="34" y="-11"/>
      <point x="87" y="-38"/>
    </contour>
  </outline>
</glyph>
<glyph name="four" format="1">
  <advance width="379"/>
  <unicode hex="0034"/>
  <outline>
    <contour>
      <point x="156" y="-3" type="curve" smooth="yes"/>
      <point x="195" y="-3"/>
      <point x="217" y="2"/>
      <point x="253" y="2" type="curve" smooth="yes"/>
      <point x="295" y="2"/>
      <point x="309" y="-4"/>
      <point x="345" y="-4" type="curve" smooth="yes"/>
      <point x="354" y="-4"/>
      <point x="359" y="2"/>
      <point x="359" y="7" type="curve" smooth="yes"/>
      <point x="359" y="14"/>
      <point x="352" y="18"/>
      <point x="344" y="20" type="curve" smooth="yes"/>
      <point x="308" y="27"/>
      <point x="292" y="40"/>
      <point x="292" y="75" type="curve" smooth="yes"/>
      <point x="292" y="180" type="line" smooth="yes"/>
      <point x="292" y="181"/>
      <point x="296" y="184"/>
      <point x="299" y="186" type="curve"/>
      <point x="304" y="187"/>
      <point x="311" y="188"/>
      <point x="319" y="188" type="curve" smooth="yes"/>
      <point x="330" y="188"/>
      <point x="341" y="187"/>
      <point x="351" y="187" type="curve" smooth="yes"/>
      <point x="354" y="187"/>
      <point x="365" y="204"/>
      <point x="365" y="220" type="curve" smooth="yes"/>
      <point x="365" y="226"/>
      <point x="362" y="230"/>
      <point x="358" y="230" type="curve"/>
      <point x="345" y="229"/>
      <point x="334" y="228"/>
      <point x="323" y="228" type="curve" smooth="yes"/>
      <point x="314" y="228"/>
      <point x="306" y="228"/>
      <point x="296" y="229" type="curve"/>
      <point x="294" y="229"/>
      <point x="292" y="232"/>
      <point x="292" y="235" type="curve" smooth="yes"/>
      <point x="292" y="333" type="line" smooth="yes"/>
      <point x="292" y="375"/>
      <point x="292" y="397"/>
      <point x="282" y="397" type="curve" smooth="yes"/>
      <point x="277" y="397"/>
      <point x="233" y="395"/>
      <point x="220" y="384" type="curve"/>
      <point x="214" y="380"/>
      <point x="214" y="376"/>
      <point x="214" y="362" type="curve" smooth="yes"/>
      <point x="214" y="237" type="line" smooth="yes"/>
      <point x="214" y="233"/>
      <point x="208" y="229"/>
      <point x="205" y="229" type="curve" smooth="yes"/>
      <point x="85" y="229" type="line" smooth="yes"/>
      <point x="82" y="229"/>
      <point x="83" y="235"/>
      <point x="85" y="238" type="curve" smooth="yes"/>
      <point x="282" y="629" type="line"/>
      <point x="283" y="632"/>
      <point x="286" y="642"/>
      <point x="282" y="642" type="curve" smooth="yes"/>
      <point x="261" y="642" type="line" smooth="yes"/>
      <point x="256" y="642"/>
      <point x="249" y="628"/>
      <point x="243" y="616" type="curve" smooth="yes"/>
      <point x="53" y="235" type="line" smooth="yes"/>
      <point x="43" y="217"/>
      <point x="39" y="214"/>
      <point x="27" y="190" type="curve" smooth="yes"/>
      <point x="26" y="189"/>
      <point x="26" y="188"/>
      <point x="26" y="187" type="curve" smooth="yes"/>
      <point x="26" y="183"/>
      <point x="30" y="177"/>
      <point x="33" y="177" type="curve" smooth="yes"/>
      <point x="100" y="177"/>
      <point x="146" y="184"/>
      <point x="203" y="184" type="curve" smooth="yes"/>
      <point x="204" y="184"/>
      <point x="214" y="181"/>
      <point x="214" y="175" type="curve" smooth="yes"/>
      <point x="214" y="71" type="line" smooth="yes"/>
      <point x="214" y="41"/>
      <point x="201" y="24"/>
      <point x="157" y="20" type="curve" smooth="yes"/>
      <point x="149" y="19"/>
      <point x="142" y="15"/>
      <point x="142" y="9" type="curve" smooth="yes"/>
      <point x="142" y="1"/>
      <point x="150" y="-3"/>
    </contour>
  </outline>
</glyph>
<glyph name="five" format="1">
  <advance width="379"/>
  <unicode hex="0035"/>
  <outline>
    <contour>
      <point x="90" y="-38" type="curve" smooth="yes"/>
      <point x="145" y="-38"/>
      <point x="194" y="-20"/>
      <point x="233" y="11" type="curve" smooth="yes"/>
      <point x="288" y="53"/>
      <point x="323" y="120"/>
      <point x="323" y="193" type="curve" smooth="yes"/>
      <point x="323" y="274"/>
      <point x="294" y="321"/>
      <point x="239" y="360" type="curve" smooth="yes"/>
      <point x="204" y="384"/>
      <point x="159" y="403"/>
      <point x="109" y="423" type="curve" smooth="yes"/>
      <point x="100" y="427"/>
      <point x="98" y="433"/>
      <point x="99" y="442" type="curve" smooth="yes"/>
      <point x="100" y="458"/>
      <point x="123" y="522"/>
      <point x="133" y="524" type="curve" smooth="yes"/>
      <point x="154" y="529"/>
      <point x="221" y="535"/>
      <point x="258" y="542" type="curve" smooth="yes"/>
      <point x="269" y="544"/>
      <point x="277" y="554"/>
      <point x="284" y="574" type="curve" smooth="yes"/>
      <point x="287" y="584"/>
      <point x="292" y="596"/>
      <point x="296" y="607" type="curve" smooth="yes"/>
      <point x="300" y="616"/>
      <point x="295" y="624"/>
      <point x="285" y="623" type="curve" smooth="yes"/>
      <point x="229" y="618"/>
      <point x="180" y="607"/>
      <point x="135" y="592" type="curve" smooth="yes"/>
      <point x="120" y="587"/>
      <point x="110" y="576"/>
      <point x="104" y="556" type="curve" smooth="yes"/>
      <point x="91" y="512"/>
      <point x="67" y="434"/>
      <point x="67" y="398" type="curve" smooth="yes"/>
      <point x="67" y="380"/>
      <point x="72" y="367"/>
      <point x="84" y="353" type="curve"/>
      <point x="203" y="310"/>
      <point x="247" y="265"/>
      <point x="247" y="180" type="curve" smooth="yes"/>
      <point x="247" y="88"/>
      <point x="210" y="0"/>
      <point x="89" y="-12" type="curve" smooth="yes"/>
      <point x="79" y="-13"/>
      <point x="63" y="-19"/>
      <point x="63" y="-27" type="curve" smooth="yes"/>
      <point x="63" y="-34"/>
      <point x="79" y="-38"/>
    </contour>
  </outline>
</glyph>
<glyph name="six" format="1">
  <advance width="379"/>
  <unicode hex="0036"/>
  <outline>
    <contour>
      <point x="204" y="-16" type="curve" smooth="yes"/>
      <point x="277" y="-16"/>
      <point x="357" y="65"/>
      <point x="357" y="189" type="curve" smooth="yes"/>
      <point x="357" y="262"/>
      <point x="310" y="313"/>
      <point x="258" y="313" type="curve" smooth="yes"/>
      <point x="234" y="313"/>
      <point x="206" y="299"/>
      <point x="186" y="282" type="curve" smooth="yes"/>
      <point x="177" y="275"/>
      <point x="168" y="267"/>
      <point x="161" y="258" type="curve" smooth="yes"/>
      <point x="153" y="248"/>
      <point x="156" y="237"/>
      <point x="168" y="246" type="curve" smooth="yes"/>
      <point x="185" y="259"/>
      <point x="204" y="267"/>
      <point x="222" y="267" type="curve" smooth="yes"/>
      <point x="259" y="267"/>
      <point x="281" y="208"/>
      <point x="281" y="142" type="curve" smooth="yes"/>
      <point x="281" y="56"/>
      <point x="249" y="16"/>
      <point x="211" y="17" type="curve" smooth="yes"/>
      <point x="170" y="18"/>
      <point x="122" y="79"/>
      <point x="121" y="191" type="curve" smooth="yes"/>
      <point x="120" y="302"/>
      <point x="153" y="416"/>
      <point x="202" y="483" type="curve" smooth="yes"/>
      <point x="234" y="543"/>
      <point x="276" y="583"/>
      <point x="327" y="616" type="curve" smooth="yes"/>
      <point x="332" y="618"/>
      <point x="341" y="624"/>
      <point x="344" y="634" type="curve" smooth="yes"/>
      <point x="345" y="637"/>
      <point x="340" y="645"/>
      <point x="323" y="638" type="curve" smooth="yes"/>
      <point x="259" y="612"/>
      <point x="202" y="555"/>
      <point x="162" y="507" type="curve" smooth="yes"/>
      <point x="94" y="443"/>
      <point x="37" y="334"/>
      <point x="37" y="193" type="curve" smooth="yes"/>
      <point x="37" y="53"/>
      <point x="120" y="-16"/>
    </contour>
  </outline>
</glyph>
<glyph name="seven" format="1">
  <advance width="318"/>
  <unicode hex="0037"/>
  <outline>
    <contour>
      <point x="108" y="-5" type="curve" smooth="yes"/>
      <point x="271" y="538" type="line" smooth="yes"/>
      <point x="276" y="555"/>
      <point x="292" y="592"/>
      <point x="292" y="608" type="curve" smooth="yes"/>
      <point x="292" y="613"/>
      <point x="290" y="621"/>
      <point x="288" y="621" type="curve" smooth="yes"/>
      <point x="277" y="620"/>
      <point x="216" y="616"/>
      <point x="163" y="616" type="curve" smooth="yes"/>
      <point x="139" y="616"/>
      <point x="126" y="617"/>
      <point x="110" y="617" type="curve" smooth="yes"/>
      <point x="88" y="617"/>
      <point x="67" y="626"/>
      <point x="65" y="626" type="curve" smooth="yes"/>
      <point x="63" y="626"/>
      <point x="60" y="624"/>
      <point x="60" y="615" type="curve" smooth="yes"/>
      <point x="59" y="593"/>
      <point x="55" y="552"/>
      <point x="51" y="526" type="curve"/>
      <point x="50" y="522"/>
      <point x="49" y="513"/>
      <point x="49" y="507" type="curve" smooth="yes"/>
      <point x="49" y="502"/>
      <point x="49" y="494"/>
      <point x="54" y="494" type="curve" smooth="yes"/>
      <point x="62" y="494"/>
      <point x="69" y="506"/>
      <point x="74" y="519" type="curve" smooth="yes"/>
      <point x="86" y="556"/>
      <point x="100" y="565"/>
      <point x="115" y="565" type="curve" smooth="yes"/>
      <point x="269" y="565" type="line"/>
      <point x="252" y="582" type="line"/>
      <point x="86" y="35" type="line" smooth="yes"/>
      <point x="81" y="19"/>
      <point x="72" y="-6"/>
      <point x="72" y="-10" type="curve" smooth="yes"/>
      <point x="72" y="-23"/>
      <point x="76" y="-32"/>
      <point x="90" y="-32" type="curve" smooth="yes"/>
      <point x="94" y="-32"/>
      <point x="104" y="-18"/>
    </contour>
  </outline>
</glyph>
<glyph name="eight" format="1">
  <advance width="379"/>
  <unicode hex="0038"/>
  <outline>
    <contour>
      <point x="181" y="-14" type="curve"/>
      <point x="263" y="-14"/>
      <point x="345" y="60"/>
      <point x="345" y="164" type="curve"/>
      <point x="345" y="241"/>
      <point x="300" y="288"/>
      <point x="241" y="338" type="curve" smooth="yes"/>
      <point x="233" y="345"/>
      <point x="231" y="347"/>
      <point x="246" y="359" type="curve"/>
      <point x="265" y="375"/>
      <point x="274" y="382"/>
      <point x="287" y="396" type="curve" smooth="yes"/>
      <point x="306" y="416"/>
      <point x="330" y="446"/>
      <point x="330" y="496" type="curve" smooth="yes"/>
      <point x="330" y="577"/>
      <point x="264" y="630"/>
      <point x="197" y="630" type="curve"/>
      <point x="123" y="630"/>
      <point x="47" y="567"/>
      <point x="47" y="488" type="curve"/>
      <point x="47" y="404"/>
      <point x="90" y="364"/>
      <point x="140" y="314" type="curve"/>
      <point x="147" y="307"/>
      <point x="151" y="306"/>
      <point x="143" y="301" type="curve" smooth="yes"/>
      <point x="101" y="274"/>
      <point x="34" y="230"/>
      <point x="34" y="141" type="curve" smooth="yes"/>
      <point x="34" y="49"/>
      <point x="104" y="-14"/>
    </contour>
    <contour>
      <point x="192" y="14" type="curve"/>
      <point x="141" y="14"/>
      <point x="111" y="86"/>
      <point x="111" y="155" type="curve" smooth="yes"/>
      <point x="111" y="218"/>
      <point x="124" y="243"/>
      <point x="157" y="279" type="curve" smooth="yes"/>
      <point x="160" y="283"/>
      <point x="163" y="285"/>
      <point x="165" y="285" type="curve"/>
      <point x="170" y="285"/>
      <point x="173" y="281"/>
      <point x="180" y="274" type="curve"/>
      <point x="221" y="239"/>
      <point x="267" y="186"/>
      <point x="267" y="124" type="curve" smooth="yes"/>
      <point x="267" y="65"/>
      <point x="235" y="14"/>
    </contour>
    <contour>
      <point x="215" y="370" type="curve"/>
      <point x="212" y="367"/>
      <point x="207" y="369"/>
      <point x="205" y="372" type="curve" smooth="yes"/>
      <point x="152" y="422"/>
      <point x="121" y="435"/>
      <point x="121" y="509" type="curve" smooth="yes"/>
      <point x="121" y="562"/>
      <point x="157" y="604"/>
      <point x="193" y="604" type="curve" smooth="yes"/>
      <point x="234" y="604"/>
      <point x="256" y="558"/>
      <point x="256" y="503" type="curve" smooth="yes"/>
      <point x="256" y="444"/>
      <point x="250" y="407"/>
    </contour>
  </outline>
</glyph>
<glyph name="less" format="1">
  <advance width="435"/>
  <unicode hex="003C"/>
  <outline>
    <contour>
      <point x="378" y="57" type="line" smooth="yes"/>
      <point x="384" y="54"/>
      <point x="396" y="53"/>
      <point x="396" y="64" type="curve" smooth="yes"/>
      <point x="396" y="72"/>
      <point x="391" y="99"/>
      <point x="375" y="105" type="curve" smooth="yes"/>
      <point x="107" y="233" type="line"/>
      <point x="104" y="234"/>
      <point x="103" y="236"/>
      <point x="106" y="236" type="curve"/>
      <point x="369" y="370" type="line" smooth="yes"/>
      <point x="386" y="379"/>
      <point x="396" y="404"/>
      <point x="396" y="414" type="curve" smooth="yes"/>
      <point x="396" y="419"/>
      <point x="393" y="423"/>
      <point x="388" y="423" type="curve" smooth="yes"/>
      <point x="387" y="423"/>
      <point x="384" y="421"/>
      <point x="381" y="420" type="curve" smooth="yes"/>
      <point x="67" y="266" type="line" smooth="yes"/>
      <point x="49" y="258"/>
      <point x="38" y="234"/>
      <point x="38" y="226" type="curve" smooth="yes"/>
      <point x="38" y="221"/>
      <point x="59" y="209"/>
      <point x="74" y="203" type="curve" smooth="yes"/>
    </contour>
  </outline>
</glyph>
<glyph name="equal" format="1">
  <advance width="419"/>
  <unicode hex="003D"/>
  <outline>
    <contour>
      <point x="50" y="319" type="curve"/>
      <point x="351" y="319" type="line"/>
      <point x="370" y="319"/>
      <point x="382" y="340"/>
      <point x="382" y="353" type="curve" smooth="yes"/>
      <point x="382" y="358"/>
      <point x="376" y="361"/>
      <point x="369" y="361" type="curve"/>
      <point x="60" y="361" type="line"/>
      <point x="42" y="361"/>
      <point x="36" y="335"/>
      <point x="36" y="328" type="curve" smooth="yes"/>
      <point x="36" y="323"/>
      <point x="43" y="319"/>
    </contour>
    <contour>
      <point x="50" y="147" type="curve"/>
      <point x="351" y="147" type="line"/>
      <point x="370" y="147"/>
      <point x="382" y="169"/>
      <point x="382" y="181" type="curve" smooth="yes"/>
      <point x="382" y="186"/>
      <point x="376" y="189"/>
      <point x="369" y="189" type="curve"/>
      <point x="60" y="189" type="line"/>
      <point x="42" y="189"/>
      <point x="36" y="163"/>
      <point x="36" y="156" type="curve" smooth="yes"/>
      <point x="36" y="152"/>
      <point x="43" y="147"/>
    </contour>
  </outline>
</glyph>
<glyph name="question" format="1">
  <advance width="244"/>
  <unicode hex="003F"/>
  <outline>
    <contour>
      <point x="101" y="205" type="curve" smooth="yes"/>
      <point x="108" y="254"/>
      <point x="113" y="286"/>
      <point x="140" y="311" type="curve" smooth="yes"/>
      <point x="151" y="321"/>
      <point x="162" y="330"/>
      <point x="172" y="339" type="curve" smooth="yes"/>
      <point x="190" y="354"/>
      <point x="201" y="378"/>
      <point x="201" y="424" type="curve" smooth="yes"/>
      <point x="201" y="473"/>
      <point x="179" y="555"/>
      <point x="144" y="609" type="curve" smooth="yes"/>
      <point x="120" y="641"/>
      <point x="93" y="661"/>
      <point x="71" y="661" type="curve" smooth="yes"/>
      <point x="57" y="661"/>
      <point x="41" y="646"/>
      <point x="41" y="623" type="curve" smooth="yes"/>
      <point x="41" y="591"/>
      <point x="53" y="569"/>
      <point x="67" y="569" type="curve" smooth="yes"/>
      <point x="73" y="569"/>
      <point x="77" y="570"/>
      <point x="81" y="571" type="curve" smooth="yes"/>
      <point x="86" y="572"/>
      <point x="89" y="573"/>
      <point x="95" y="573" type="curve" smooth="yes"/>
      <point x="143" y="572"/>
      <point x="170" y="534"/>
      <point x="170" y="482" type="curve" smooth="yes"/>
      <point x="170" y="448"/>
      <point x="155" y="413"/>
      <point x="122" y="383" type="curve" smooth="yes"/>
      <point x="70" y="336"/>
      <point x="58" y="316"/>
      <point x="58" y="287" type="curve" smooth="yes"/>
      <point x="58" y="247"/>
      <point x="68" y="228"/>
      <point x="73" y="208" type="curve" smooth="yes"/>
      <point x="78" y="193"/>
      <point x="84" y="181"/>
      <point x="90" y="181" type="curve" smooth="yes"/>
      <point x="96" y="181"/>
      <point x="100" y="194"/>
    </contour>
    <contour>
      <point x="168" y="46" type="curve" smooth="yes"/>
      <point x="168" y="79"/>
      <point x="141" y="106"/>
      <point x="108" y="106" type="curve" smooth="yes"/>
      <point x="75" y="106"/>
      <point x="48" y="79"/>
      <point x="48" y="46" type="curve" smooth="yes"/>
      <point x="48" y="13"/>
      <point x="75" y="-14"/>
      <point x="108" y="-14" type="curve" smooth="yes"/>
      <point x="141" y="-14"/>
      <point x="168" y="13"/>
    </contour>
  </outline>
</glyph>
<glyph name="at" format="1">
  <advance width="441"/>
  <unicode hex="0040"/>
  <outline>
    <contour>
      <point x="372" y="-17" type="curve" smooth="yes"/>
      <point x="375" y="-5"/>
      <point x="369" y="-3"/>
      <point x="362" y="-3" type="curve" smooth="yes"/>
      <point x="359" y="-3"/>
      <point x="353" y="-8"/>
      <point x="349" y="-14" type="curve" smooth="yes"/>
      <point x="310" y="-69"/>
      <point x="256" y="-97"/>
      <point x="222" y="-97" type="curve" smooth="yes"/>
      <point x="139" y="-97"/>
      <point x="70" y="6"/>
      <point x="70" y="189" type="curve" smooth="yes"/>
      <point x="70" y="365"/>
      <point x="146" y="473"/>
      <point x="231" y="473" type="curve" smooth="yes"/>
      <point x="318" y="473"/>
      <point x="369" y="374"/>
      <point x="369" y="224" type="curve" smooth="yes"/>
      <point x="369" y="137"/>
      <point x="332" y="83"/>
      <point x="294" y="83" type="curve" smooth="yes"/>
      <point x="285" y="83"/>
      <point x="279" y="96"/>
      <point x="279" y="111" type="curve" smooth="yes"/>
      <point x="279" y="120"/>
      <point x="278" y="129"/>
      <point x="279" y="138" type="curve"/>
      <point x="292" y="272" type="line" smooth="yes"/>
      <point x="293" y="288"/>
      <point x="299" y="328"/>
      <point x="303" y="352" type="curve"/>
      <point x="304" y="356"/>
      <point x="288" y="359"/>
      <point x="287" y="359" type="curve" smooth="yes"/>
      <point x="282" y="359"/>
      <point x="280" y="339"/>
      <point x="272" y="339" type="curve" smooth="yes"/>
      <point x="266" y="339"/>
      <point x="260" y="344"/>
      <point x="255" y="347" type="curve" smooth="yes"/>
      <point x="249" y="351"/>
      <point x="242" y="355"/>
      <point x="233" y="355" type="curve" smooth="yes"/>
      <point x="180" y="355"/>
      <point x="130" y="278"/>
      <point x="130" y="156" type="curve" smooth="yes"/>
      <point x="130" y="86"/>
      <point x="158" y="47"/>
      <point x="193" y="47" type="curve" smooth="yes"/>
      <point x="223" y="47"/>
      <point x="239" y="82"/>
      <point x="244" y="82" type="curve" smooth="yes"/>
      <point x="254" y="82"/>
      <point x="258" y="47"/>
      <point x="295" y="47" type="curve" smooth="yes"/>
      <point x="342" y="47"/>
      <point x="408" y="112"/>
      <point x="408" y="236" type="curve" smooth="yes"/>
      <point x="408" y="399"/>
      <point x="341" y="507"/>
      <point x="244" y="507" type="curve" smooth="yes"/>
      <point x="131" y="507"/>
      <point x="32" y="395"/>
      <point x="32" y="181" type="curve" smooth="yes"/>
      <point x="32" y="-14"/>
      <point x="108" y="-131"/>
      <point x="217" y="-131" type="curve" smooth="yes"/>
      <point x="281" y="-131"/>
      <point x="363" y="-55"/>
    </contour>
    <contour>
      <point x="183" y="174" type="curve" smooth="yes"/>
      <point x="186" y="275"/>
      <point x="209" y="328"/>
      <point x="229" y="328" type="curve" smooth="yes"/>
      <point x="244" y="328"/>
      <point x="254" y="307"/>
      <point x="254" y="269" type="curve" smooth="yes"/>
      <point x="254" y="265"/>
      <point x="254" y="261"/>
      <point x="254" y="257" type="curve"/>
      <point x="242" y="150" type="line" smooth="yes"/>
      <point x="239" y="118"/>
      <point x="234" y="108"/>
      <point x="230" y="100" type="curve" smooth="yes"/>
      <point x="223" y="85"/>
      <point x="217" y="77"/>
      <point x="208" y="77" type="curve" smooth="yes"/>
      <point x="195" y="77"/>
      <point x="182" y="100"/>
    </contour>
  </outline>
</glyph>
<glyph name="A" format="1">
  <advance width="531"/>
  <unicode hex="0041"/>
  <outline>
    <contour>
      <point x="17" y="-5" type="curve" smooth="yes"/>
      <point x="38" y="-5"/>
      <point x="79" y="0"/>
      <point x="113" y="0" type="curve" smooth="yes"/>
      <point x="119" y="0"/>
      <point x="148" y="-2"/>
      <point x="159" y="-2" type="curve" smooth="yes"/>
      <point x="171" y="-2"/>
      <point x="178" y="1"/>
      <point x="178" y="8" type="curve" smooth="yes"/>
      <point x="178" y="16"/>
      <point x="172" y="20"/>
      <point x="159" y="25" type="curve" smooth="yes"/>
      <point x="136" y="32"/>
      <point x="120" y="48"/>
      <point x="120" y="74" type="curve" smooth="yes"/>
      <point x="120" y="95"/>
      <point x="154" y="208"/>
      <point x="160" y="234" type="curve" smooth="yes"/>
      <point x="164" y="248"/>
      <point x="168" y="252"/>
      <point x="173" y="252" type="curve" smooth="yes"/>
      <point x="319" y="252" type="line" smooth="yes"/>
      <point x="332" y="252"/>
      <point x="336" y="251"/>
      <point x="338" y="241" type="curve" smooth="yes"/>
      <point x="348" y="191"/>
      <point x="367" y="100"/>
      <point x="367" y="71" type="curve" smooth="yes"/>
      <point x="367" y="49"/>
      <point x="355" y="33"/>
      <point x="324" y="27" type="curve" smooth="yes"/>
      <point x="309" y="24"/>
      <point x="297" y="18"/>
      <point x="297" y="10" type="curve" smooth="yes"/>
      <point x="297" y="3"/>
      <point x="307" y="0"/>
      <point x="320" y="0" type="curve" smooth="yes"/>
      <point x="339" y="0"/>
      <point x="372" y="0"/>
      <point x="404" y="0" type="curve" smooth="yes"/>
      <point x="439" y="0"/>
      <point x="491" y="-5"/>
      <point x="513" y="-5" type="curve" smooth="yes"/>
      <point x="527" y="-5"/>
      <point x="536" y="-3"/>
      <point x="536" y="4" type="curve" smooth="yes"/>
      <point x="536" y="12"/>
      <point x="528" y="20"/>
      <point x="513" y="24" type="curve" smooth="yes"/>
      <point x="484" y="30"/>
      <point x="460" y="44"/>
      <point x="439" y="124" type="curve" smooth="yes"/>
      <point x="416" y="219"/>
      <point x="355" y="459"/>
      <point x="309" y="661" type="curve" smooth="yes"/>
      <point x="307" y="669"/>
      <point x="306" y="678"/>
      <point x="302" y="684" type="curve"/>
      <point x="300" y="686"/>
      <point x="297" y="686"/>
      <point x="296" y="684" type="curve"/>
      <point x="292" y="678"/>
      <point x="286" y="659"/>
      <point x="271" y="651" type="curve" smooth="yes"/>
      <point x="257" y="643"/>
      <point x="245" y="640"/>
      <point x="231" y="636" type="curve"/>
      <point x="229" y="616"/>
      <point x="225" y="598"/>
      <point x="220" y="579" type="curve" smooth="yes"/>
      <point x="171" y="394"/>
      <point x="139" y="277"/>
      <point x="84" y="106" type="curve" smooth="yes"/>
      <point x="63" y="47"/>
      <point x="44" y="34"/>
      <point x="22" y="27" type="curve" smooth="yes"/>
      <point x="5" y="22"/>
      <point x="-2" y="15"/>
      <point x="-2" y="6" type="curve" smooth="yes"/>
      <point x="-2" y="-1"/>
      <point x="6" y="-5"/>
    </contour>
    <contour>
      <point x="192" y="281" type="line" smooth="yes"/>
      <point x="182" y="281"/>
      <point x="176" y="281"/>
      <point x="176" y="288" type="curve" smooth="yes"/>
      <point x="176" y="290"/>
      <point x="177" y="293"/>
      <point x="177" y="296" type="curve" smooth="yes"/>
      <point x="250" y="555" type="line" smooth="yes"/>
      <point x="253" y="566"/>
      <point x="254" y="572"/>
      <point x="256" y="572" type="curve" smooth="yes"/>
      <point x="258" y="572"/>
      <point x="259" y="566"/>
      <point x="262" y="554" type="curve" smooth="yes"/>
      <point x="323" y="296" type="line"/>
      <point x="324" y="292"/>
      <point x="325" y="288"/>
      <point x="325" y="286" type="curve" smooth="yes"/>
      <point x="325" y="281"/>
      <point x="322" y="281"/>
      <point x="315" y="281" type="curve" smooth="yes"/>
    </contour>
  </outline>
</glyph>
<glyph name="B" format="1">
  <advance width="452"/>
  <unicode hex="0042"/>
  <outline>
    <contour>
      <point x="35" y="-4" type="curve" smooth="yes"/>
      <point x="80" y="-4"/>
      <point x="96" y="1"/>
      <point x="137" y="1" type="curve" smooth="yes"/>
      <point x="171" y="1"/>
      <point x="202" y="-3"/>
      <point x="217" y="-3" type="curve" smooth="yes"/>
      <point x="274" y="-3"/>
      <point x="313" y="10"/>
      <point x="344" y="31" type="curve" smooth="yes"/>
      <point x="375" y="52"/>
      <point x="422" y="85"/>
      <point x="422" y="194" type="curve" smooth="yes"/>
      <point x="422" y="299"/>
      <point x="360" y="339"/>
      <point x="286" y="357" type="curve" smooth="yes"/>
      <point x="281" y="358"/>
      <point x="282" y="364"/>
      <point x="286" y="365" type="curve" smooth="yes"/>
      <point x="313" y="374"/>
      <point x="338" y="387"/>
      <point x="357" y="407" type="curve" smooth="yes"/>
      <point x="377" y="430"/>
      <point x="391" y="464"/>
      <point x="391" y="507" type="curve" smooth="yes"/>
      <point x="391" y="606"/>
      <point x="330" y="656"/>
      <point x="218" y="656" type="curve" smooth="yes"/>
      <point x="175" y="656"/>
      <point x="156" y="651"/>
      <point x="124" y="651" type="curve" smooth="yes"/>
      <point x="92" y="651"/>
      <point x="85" y="652"/>
      <point x="43" y="652" type="curve" smooth="yes"/>
      <point x="30" y="652"/>
      <point x="22" y="648"/>
      <point x="22" y="642" type="curve" smooth="yes"/>
      <point x="22" y="634"/>
      <point x="29" y="627"/>
      <point x="46" y="626" type="curve" smooth="yes"/>
      <point x="83" y="622"/>
      <point x="94" y="606"/>
      <point x="94" y="559" type="curve" smooth="yes"/>
      <point x="94" y="89" type="line" smooth="yes"/>
      <point x="94" y="42"/>
      <point x="78" y="28"/>
      <point x="38" y="21" type="curve" smooth="yes"/>
      <point x="22" y="18"/>
      <point x="14" y="14"/>
      <point x="14" y="6" type="curve" smooth="yes"/>
      <point x="14" y="-1"/>
      <point x="23" y="-4"/>
    </contour>
    <contour>
      <point x="222" y="30" type="curve" smooth="yes"/>
      <point x="188" y="30"/>
      <point x="170" y="46"/>
      <point x="170" y="103" type="curve" smooth="yes"/>
      <point x="170" y="307" type="line" smooth="yes"/>
      <point x="170" y="321"/>
      <point x="179" y="345"/>
      <point x="207" y="345" type="curve" smooth="yes"/>
      <point x="247" y="345"/>
      <point x="274" y="332"/>
      <point x="290" y="317" type="curve" smooth="yes"/>
      <point x="311" y="298"/>
      <point x="332" y="259"/>
      <point x="332" y="186" type="curve" smooth="yes"/>
      <point x="332" y="84"/>
      <point x="281" y="30"/>
    </contour>
    <contour>
      <point x="199" y="370" type="curve" smooth="yes"/>
      <point x="189" y="370"/>
      <point x="170" y="372"/>
      <point x="170" y="407" type="curve" smooth="yes"/>
      <point x="170" y="583" type="line" smooth="yes"/>
      <point x="170" y="613"/>
      <point x="177" y="629"/>
      <point x="213" y="629" type="curve" smooth="yes"/>
      <point x="289" y="629"/>
      <point x="308" y="573"/>
      <point x="308" y="495" type="curve" smooth="yes"/>
      <point x="308" y="438"/>
      <point x="294" y="408"/>
      <point x="281" y="396" type="curve" smooth="yes"/>
      <point x="259" y="375"/>
      <point x="231" y="370"/>
    </contour>
  </outline>
</glyph>
<glyph name="C" format="1">
  <advance width="518"/>
  <unicode hex="0043"/>
  <outline>
    <contour>
      <point x="298" y="-14" type="curve" smooth="yes"/>
      <point x="346" y="-14"/>
      <point x="401" y="-5"/>
      <point x="436" y="15" type="curve" smooth="yes"/>
      <point x="451" y="23"/>
      <point x="452" y="24"/>
      <point x="459" y="43" type="curve" smooth="yes"/>
      <point x="468" y="73"/>
      <point x="479" y="127"/>
      <point x="479" y="143" type="curve" smooth="yes"/>
      <point x="479" y="163"/>
      <point x="453" y="166"/>
      <point x="445" y="145" type="curve" smooth="yes"/>
      <point x="414" y="58"/>
      <point x="378" y="16"/>
      <point x="312" y="16" type="curve" smooth="yes"/>
      <point x="203" y="16"/>
      <point x="131" y="155"/>
      <point x="131" y="347" type="curve" smooth="yes"/>
      <point x="131" y="493"/>
      <point x="202" y="631"/>
      <point x="307" y="631" type="curve" smooth="yes"/>
      <point x="352" y="631"/>
      <point x="381" y="616"/>
      <point x="400" y="594" type="curve" smooth="yes"/>
      <point x="423" y="566"/>
      <point x="431" y="530"/>
      <point x="442" y="485" type="curve" smooth="yes"/>
      <point x="447" y="464"/>
      <point x="476" y="472"/>
      <point x="475" y="488" type="curve" smooth="yes"/>
      <point x="473" y="537"/>
      <point x="469" y="571"/>
      <point x="466" y="602" type="curve" smooth="yes"/>
      <point x="464" y="622"/>
      <point x="457" y="633"/>
      <point x="441" y="641" type="curve" smooth="yes"/>
      <point x="401" y="654"/>
      <point x="372" y="663"/>
      <point x="317" y="663" type="curve" smooth="yes"/>
      <point x="164" y="663"/>
      <point x="33" y="516"/>
      <point x="33" y="323" type="curve" smooth="yes"/>
      <point x="33" y="120"/>
      <point x="158" y="-14"/>
    </contour>
  </outline>
</glyph>
<glyph name="D" format="1">
  <advance width="542"/>
  <unicode hex="0044"/>
  <outline>
    <contour>
      <point x="266" y="-7" type="curve" smooth="yes"/>
      <point x="402" y="-7"/>
      <point x="514" y="150"/>
      <point x="514" y="342" type="curve" smooth="yes"/>
      <point x="514" y="516"/>
      <point x="437" y="659"/>
      <point x="243" y="659" type="curve" smooth="yes"/>
      <point x="224" y="659"/>
      <point x="152" y="651"/>
      <point x="121" y="651" type="curve" smooth="yes"/>
      <point x="87" y="651"/>
      <point x="78" y="653"/>
      <point x="40" y="653" type="curve" smooth="yes"/>
      <point x="28" y="653"/>
      <point x="19" y="650"/>
      <point x="19" y="642" type="curve" smooth="yes"/>
      <point x="19" y="633"/>
      <point x="26" y="630"/>
      <point x="41" y="627" type="curve" smooth="yes"/>
      <point x="79" y="620"/>
      <point x="86" y="607"/>
      <point x="86" y="562" type="curve" smooth="yes"/>
      <point x="86" y="102" type="line" smooth="yes"/>
      <point x="86" y="43"/>
      <point x="77" y="29"/>
      <point x="41" y="21" type="curve" smooth="yes"/>
      <point x="26" y="17"/>
      <point x="19" y="17"/>
      <point x="19" y="7" type="curve" smooth="yes"/>
      <point x="19" y="-2"/>
      <point x="28" y="-5"/>
      <point x="40" y="-5" type="curve" smooth="yes"/>
      <point x="80" y="-5"/>
      <point x="88" y="0"/>
      <point x="117" y="0" type="curve" smooth="yes"/>
      <point x="173" y="0"/>
      <point x="251" y="-7"/>
    </contour>
    <contour>
      <point x="257" y="25" type="curve" smooth="yes"/>
      <point x="210" y="25"/>
      <point x="164" y="38"/>
      <point x="164" y="119" type="curve" smooth="yes"/>
      <point x="164" y="563" type="line" smooth="yes"/>
      <point x="164" y="629"/>
      <point x="194" y="631"/>
      <point x="249" y="631" type="curve" smooth="yes"/>
      <point x="332" y="631"/>
      <point x="422" y="549"/>
      <point x="422" y="325" type="curve" smooth="yes"/>
      <point x="422" y="128"/>
      <point x="354" y="25"/>
    </contour>
  </outline>
</glyph>
<glyph name="E" format="1">
  <advance width="423"/>
  <unicode hex="0045"/>
  <outline>
    <contour>
      <point x="44" y="-5" type="curve" smooth="yes"/>
      <point x="86" y="-5"/>
      <point x="98" y="1"/>
      <point x="133" y="1" type="curve" smooth="yes"/>
      <point x="211" y="1"/>
      <point x="276" y="-5"/>
      <point x="375" y="-5" type="curve" smooth="yes"/>
      <point x="381" y="-5"/>
      <point x="383" y="3"/>
      <point x="385" y="12" type="curve" smooth="yes"/>
      <point x="393" y="39"/>
      <point x="408" y="115"/>
      <point x="408" y="133" type="curve" smooth="yes"/>
      <point x="408" y="141"/>
      <point x="404" y="147"/>
      <point x="396" y="147" type="curve" smooth="yes"/>
      <point x="390" y="148"/>
      <point x="384" y="143"/>
      <point x="380" y="132" type="curve" smooth="yes"/>
      <point x="365" y="89"/>
      <point x="354" y="64"/>
      <point x="340" y="48" type="curve" smooth="yes"/>
      <point x="325" y="34"/>
      <point x="306" y="30"/>
      <point x="276" y="30" type="curve" smooth="yes"/>
      <point x="227" y="30" type="line" smooth="yes"/>
      <point x="194" y="30"/>
      <point x="179" y="46"/>
      <point x="179" y="97" type="curve" smooth="yes"/>
      <point x="179" y="296" type="line" smooth="yes"/>
      <point x="179" y="319"/>
      <point x="187" y="322"/>
      <point x="203" y="322" type="curve" smooth="yes"/>
      <point x="265" y="322" type="line" smooth="yes"/>
      <point x="283" y="322"/>
      <point x="296" y="304"/>
      <point x="303" y="274" type="curve" smooth="yes"/>
      <point x="308" y="250"/>
      <point x="313" y="242"/>
      <point x="323" y="242" type="curve" smooth="yes"/>
      <point x="332" y="242"/>
      <point x="333" y="250"/>
      <point x="333" y="259" type="curve" smooth="yes"/>
      <point x="333" y="267"/>
      <point x="330" y="317"/>
      <point x="330" y="337" type="curve" smooth="yes"/>
      <point x="330" y="353"/>
      <point x="333" y="399"/>
      <point x="333" y="408" type="curve" smooth="yes"/>
      <point x="333" y="418"/>
      <point x="326" y="424"/>
      <point x="320" y="424" type="curve" smooth="yes"/>
      <point x="312" y="424"/>
      <point x="308" y="418"/>
      <point x="305" y="402" type="curve" smooth="yes"/>
      <point x="298" y="367"/>
      <point x="285" y="350"/>
      <point x="259" y="350" type="curve" smooth="yes"/>
      <point x="192" y="350" type="line" smooth="yes"/>
      <point x="184" y="350"/>
      <point x="179" y="360"/>
      <point x="179" y="372" type="curve" smooth="yes"/>
      <point x="179" y="593" type="line" smooth="yes"/>
      <point x="179" y="610"/>
      <point x="192" y="621"/>
      <point x="206" y="621" type="curve" smooth="yes"/>
      <point x="297" y="621" type="line" smooth="yes"/>
      <point x="313" y="621"/>
      <point x="327" y="614"/>
      <point x="339" y="590" type="curve" smooth="yes"/>
      <point x="344" y="579"/>
      <point x="352" y="555"/>
      <point x="358" y="533" type="curve" smooth="yes"/>
      <point x="361" y="524"/>
      <point x="366" y="521"/>
      <point x="371" y="521" type="curve" smooth="yes"/>
      <point x="377" y="521"/>
      <point x="383" y="524"/>
      <point x="383" y="536" type="curve" smooth="yes"/>
      <point x="383" y="563"/>
      <point x="378" y="606"/>
      <point x="373" y="642" type="curve"/>
      <point x="372" y="650"/>
      <point x="365" y="653"/>
      <point x="360" y="653" type="curve" smooth="yes"/>
      <point x="356" y="653"/>
      <point x="327" y="652"/>
      <point x="289" y="651" type="curve" smooth="yes"/>
      <point x="255" y="651"/>
      <point x="213" y="650"/>
      <point x="177" y="650" type="curve" smooth="yes"/>
      <point x="127" y="650"/>
      <point x="104" y="653"/>
      <point x="49" y="653" type="curve" smooth="yes"/>
      <point x="37" y="653"/>
      <point x="28" y="650"/>
      <point x="28" y="643" type="curve" smooth="yes"/>
      <point x="28" y="634"/>
      <point x="35" y="628"/>
      <point x="52" y="625" type="curve" smooth="yes"/>
      <point x="88" y="618"/>
      <point x="101" y="605"/>
      <point x="101" y="568" type="curve" smooth="yes"/>
      <point x="101" y="90" type="line" smooth="yes"/>
      <point x="101" y="44"/>
      <point x="87" y="29"/>
      <point x="47" y="22" type="curve" smooth="yes"/>
      <point x="30" y="18"/>
      <point x="23" y="13"/>
      <point x="23" y="5" type="curve" smooth="yes"/>
      <point x="23" y="-2"/>
      <point x="32" y="-5"/>
    </contour>
  </outline>
</glyph>
<glyph name="F" format="1">
  <advance width="392"/>
  <unicode hex="0046"/>
  <outline>
    <contour>
      <point x="44" y="-5" type="curve" smooth="yes"/>
      <point x="88" y="-5"/>
      <point x="106" y="1"/>
      <point x="146" y="2" type="curve" smooth="yes"/>
      <point x="176" y="1"/>
      <point x="181" y="-5"/>
      <point x="224" y="-5" type="curve" smooth="yes"/>
      <point x="238" y="-5"/>
      <point x="247" y="-2"/>
      <point x="247" y="5" type="curve" smooth="yes"/>
      <point x="247" y="14"/>
      <point x="240" y="18"/>
      <point x="224" y="22" type="curve" smooth="yes"/>
      <point x="187" y="29"/>
      <point x="177" y="49"/>
      <point x="176" y="87" type="curve" smooth="yes"/>
      <point x="174" y="171"/>
      <point x="174" y="233"/>
      <point x="174" y="294" type="curve" smooth="yes"/>
      <point x="174" y="311"/>
      <point x="181" y="318"/>
      <point x="191" y="319" type="curve" smooth="yes"/>
      <point x="206" y="320"/>
      <point x="219" y="321"/>
      <point x="235" y="321" type="curve" smooth="yes"/>
      <point x="246" y="321"/>
      <point x="263" y="320"/>
      <point x="274" y="320" type="curve" smooth="yes"/>
      <point x="287" y="320"/>
      <point x="296" y="310"/>
      <point x="304" y="277" type="curve" smooth="yes"/>
      <point x="307" y="265"/>
      <point x="313" y="252"/>
      <point x="324" y="252" type="curve" smooth="yes"/>
      <point x="331" y="252"/>
      <point x="334" y="261"/>
      <point x="334" y="270" type="curve" smooth="yes"/>
      <point x="333" y="299"/>
      <point x="332" y="320"/>
      <point x="332" y="339" type="curve" smooth="yes"/>
      <point x="332" y="355"/>
      <point x="333" y="374"/>
      <point x="334" y="396" type="curve" smooth="yes"/>
      <point x="335" y="408"/>
      <point x="330" y="413"/>
      <point x="322" y="413" type="curve" smooth="yes"/>
      <point x="316" y="413"/>
      <point x="308" y="403"/>
      <point x="305" y="394" type="curve" smooth="yes"/>
      <point x="298" y="368"/>
      <point x="287" y="351"/>
      <point x="268" y="351" type="curve" smooth="yes"/>
      <point x="246" y="351"/>
      <point x="211" y="348"/>
      <point x="181" y="348" type="curve" smooth="yes"/>
      <point x="174" y="348"/>
      <point x="174" y="359"/>
      <point x="174" y="370" type="curve"/>
      <point x="173" y="394"/>
      <point x="173" y="431"/>
      <point x="173" y="465" type="curve" smooth="yes"/>
      <point x="173" y="500"/>
      <point x="173" y="546"/>
      <point x="174" y="571" type="curve" smooth="yes"/>
      <point x="174" y="597"/>
      <point x="176" y="621"/>
      <point x="198" y="621" type="curve" smooth="yes"/>
      <point x="288" y="621" type="line" smooth="yes"/>
      <point x="309" y="621"/>
      <point x="324" y="613"/>
      <point x="336" y="592" type="curve" smooth="yes"/>
      <point x="341" y="581"/>
      <point x="347" y="563"/>
      <point x="352" y="540" type="curve" smooth="yes"/>
      <point x="354" y="531"/>
      <point x="360" y="526"/>
      <point x="366" y="526" type="curve" smooth="yes"/>
      <point x="372" y="526"/>
      <point x="377" y="533"/>
      <point x="377" y="547" type="curve" smooth="yes"/>
      <point x="377" y="561"/>
      <point x="375" y="628"/>
      <point x="373" y="651" type="curve" smooth="yes"/>
      <point x="373" y="658"/>
      <point x="365" y="660"/>
      <point x="360" y="660" type="curve" smooth="yes"/>
      <point x="343" y="660"/>
      <point x="317" y="650"/>
      <point x="285" y="650" type="curve"/>
      <point x="253" y="650"/>
      <point x="216" y="650"/>
      <point x="185" y="650" type="curve" smooth="yes"/>
      <point x="130" y="650"/>
      <point x="107" y="653"/>
      <point x="49" y="653" type="curve" smooth="yes"/>
      <point x="36" y="653"/>
      <point x="27" y="650"/>
      <point x="27" y="643" type="curve" smooth="yes"/>
      <point x="27" y="635"/>
      <point x="35" y="628"/>
      <point x="52" y="625" type="curve" smooth="yes"/>
      <point x="88" y="618"/>
      <point x="96" y="595"/>
      <point x="96" y="546" type="curve" smooth="yes"/>
      <point x="96" y="86" type="line" smooth="yes"/>
      <point x="96" y="43"/>
      <point x="84" y="29"/>
      <point x="47" y="22" type="curve" smooth="yes"/>
      <point x="30" y="18"/>
      <point x="23" y="14"/>
      <point x="23" y="5" type="curve" smooth="yes"/>
      <point x="23" y="-2"/>
      <point x="32" y="-5"/>
    </contour>
  </outline>
</glyph>
<glyph name="G" format="1">
  <advance width="542"/>
  <unicode hex="0047"/>
  <outline>
    <contour>
      <point x="292" y="-13" type="curve" smooth="yes"/>
      <point x="387" y="-13"/>
      <point x="454" y="51"/>
      <point x="469" y="54" type="curve" smooth="yes"/>
      <point x="479" y="57"/>
      <point x="479" y="68"/>
      <point x="479" y="73" type="curve" smooth="yes"/>
      <point x="479" y="78"/>
      <point x="473" y="83"/>
      <point x="470" y="90" type="curve"/>
      <point x="468" y="96"/>
      <point x="465" y="99"/>
      <point x="465" y="106" type="curve" smooth="yes"/>
      <point x="465" y="133" type="line" smooth="yes"/>
      <point x="465" y="158"/>
      <point x="468" y="188"/>
      <point x="470" y="214" type="curve" smooth="yes"/>
      <point x="471" y="242"/>
      <point x="479" y="257"/>
      <point x="498" y="261" type="curve" smooth="yes"/>
      <point x="503" y="263"/>
      <point x="515" y="271"/>
      <point x="515" y="278" type="curve" smooth="yes"/>
      <point x="515" y="287"/>
      <point x="503" y="290"/>
      <point x="499" y="290" type="curve" smooth="yes"/>
      <point x="470" y="290"/>
      <point x="456" y="286"/>
      <point x="428" y="286" type="curve" smooth="yes"/>
      <point x="384" y="286"/>
      <point x="367" y="290"/>
      <point x="330" y="290" type="curve" smooth="yes"/>
      <point x="323" y="290"/>
      <point x="312" y="285"/>
      <point x="312" y="276" type="curve" smooth="yes"/>
      <point x="312" y="268"/>
      <point x="324" y="262"/>
      <point x="330" y="261" type="curve" smooth="yes"/>
      <point x="346" y="260"/>
      <point x="378" y="256"/>
      <point x="390" y="249" type="curve" smooth="yes"/>
      <point x="399" y="243"/>
      <point x="402" y="228"/>
      <point x="402" y="204" type="curve" smooth="yes"/>
      <point x="402" y="176"/>
      <point x="400" y="156"/>
      <point x="400" y="139" type="curve" smooth="yes"/>
      <point x="400" y="102"/>
      <point x="390" y="74"/>
      <point x="380" y="59" type="curve" smooth="yes"/>
      <point x="373" y="47"/>
      <point x="351" y="21"/>
      <point x="300" y="21" type="curve" smooth="yes"/>
      <point x="208" y="21"/>
      <point x="130" y="135"/>
      <point x="130" y="324" type="curve" smooth="yes"/>
      <point x="130" y="483"/>
      <point x="201" y="627"/>
      <point x="304" y="627" type="curve" smooth="yes"/>
      <point x="367" y="627"/>
      <point x="401" y="589"/>
      <point x="412" y="571" type="curve" smooth="yes"/>
      <point x="423" y="552"/>
      <point x="427" y="533"/>
      <point x="432" y="511" type="curve" smooth="yes"/>
      <point x="435" y="496"/>
      <point x="441" y="477"/>
      <point x="454" y="477" type="curve" smooth="yes"/>
      <point x="464" y="477"/>
      <point x="470" y="489"/>
      <point x="470" y="501" type="curve" smooth="yes"/>
      <point x="470" y="528"/>
      <point x="466" y="576"/>
      <point x="463" y="617" type="curve" smooth="yes"/>
      <point x="463" y="624"/>
      <point x="461" y="626"/>
      <point x="456" y="629" type="curve" smooth="yes"/>
      <point x="435" y="642"/>
      <point x="349" y="662"/>
      <point x="306" y="662" type="curve" smooth="yes"/>
      <point x="159" y="662"/>
      <point x="34" y="508"/>
      <point x="34" y="311" type="curve" smooth="yes"/>
      <point x="34" y="127"/>
      <point x="155" y="-13"/>
    </contour>
  </outline>
</glyph>
<glyph name="H" format="1">
  <advance width="572"/>
  <unicode hex="0048"/>
  <outline>
    <contour>
      <point x="46" y="-5" type="curve" smooth="yes"/>
      <point x="86" y="-5"/>
      <point x="97" y="-1"/>
      <point x="129" y="-1" type="curve" smooth="yes"/>
      <point x="163" y="-1"/>
      <point x="177" y="-5"/>
      <point x="217" y="-5" type="curve" smooth="yes"/>
      <point x="231" y="-5"/>
      <point x="239" y="-1"/>
      <point x="239" y="6" type="curve" smooth="yes"/>
      <point x="239" y="14"/>
      <point x="233" y="17"/>
      <point x="218" y="21" type="curve" smooth="yes"/>
      <point x="186" y="27"/>
      <point x="164" y="43"/>
      <point x="164" y="84" type="curve" smooth="yes"/>
      <point x="164" y="300" type="line" smooth="yes"/>
      <point x="164" y="307"/>
      <point x="165" y="310"/>
      <point x="169" y="310" type="curve" smooth="yes"/>
      <point x="404" y="310" type="line" smooth="yes"/>
      <point x="408" y="310"/>
      <point x="409" y="306"/>
      <point x="409" y="300" type="curve" smooth="yes"/>
      <point x="409" y="83" type="line" smooth="yes"/>
      <point x="409" y="45"/>
      <point x="391" y="27"/>
      <point x="361" y="21" type="curve" smooth="yes"/>
      <point x="345" y="17"/>
      <point x="339" y="14"/>
      <point x="339" y="6" type="curve" smooth="yes"/>
      <point x="339" y="-1"/>
      <point x="348" y="-5"/>
      <point x="361" y="-5" type="curve" smooth="yes"/>
      <point x="402" y="-5"/>
      <point x="412" y="-1"/>
      <point x="445" y="-1" type="curve" smooth="yes"/>
      <point x="475" y="-1"/>
      <point x="484" y="-5"/>
      <point x="525" y="-5" type="curve" smooth="yes"/>
      <point x="538" y="-5"/>
      <point x="547" y="-1"/>
      <point x="547" y="6" type="curve" smooth="yes"/>
      <point x="547" y="14"/>
      <point x="541" y="17"/>
      <point x="525" y="21" type="curve" smooth="yes"/>
      <point x="492" y="27"/>
      <point x="486" y="36"/>
      <point x="486" y="79" type="curve" smooth="yes"/>
      <point x="486" y="570" type="line" smooth="yes"/>
      <point x="486" y="610"/>
      <point x="491" y="620"/>
      <point x="523" y="626" type="curve" smooth="yes"/>
      <point x="539" y="629"/>
      <point x="545" y="633"/>
      <point x="545" y="641" type="curve" smooth="yes"/>
      <point x="545" y="648"/>
      <point x="538" y="653"/>
      <point x="523" y="653" type="curve" smooth="yes"/>
      <point x="481" y="653"/>
      <point x="477" y="650"/>
      <point x="449" y="650" type="curve" smooth="yes"/>
      <point x="416" y="650"/>
      <point x="405" y="653"/>
      <point x="364" y="653" type="curve" smooth="yes"/>
      <point x="349" y="653"/>
      <point x="341" y="648"/>
      <point x="341" y="641" type="curve" smooth="yes"/>
      <point x="341" y="633"/>
      <point x="348" y="629"/>
      <point x="364" y="626" type="curve" smooth="yes"/>
      <point x="396" y="620"/>
      <point x="409" y="606"/>
      <point x="409" y="570" type="curve" smooth="yes"/>
      <point x="409" y="351" type="line" smooth="yes"/>
      <point x="409" y="345"/>
      <point x="406" y="342"/>
      <point x="402" y="342" type="curve" smooth="yes"/>
      <point x="174" y="342" type="line" smooth="yes"/>
      <point x="169" y="342"/>
      <point x="164" y="344"/>
      <point x="164" y="351" type="curve" smooth="yes"/>
      <point x="164" y="570" type="line" smooth="yes"/>
      <point x="164" y="601"/>
      <point x="178" y="620"/>
      <point x="211" y="626" type="curve" smooth="yes"/>
      <point x="227" y="629"/>
      <point x="234" y="633"/>
      <point x="234" y="641" type="curve" smooth="yes"/>
      <point x="234" y="648"/>
      <point x="226" y="653"/>
      <point x="211" y="653" type="curve" smooth="yes"/>
      <point x="170" y="653"/>
      <point x="160" y="650"/>
      <point x="129" y="650" type="curve" smooth="yes"/>
      <point x="99" y="650"/>
      <point x="91" y="653"/>
      <point x="50" y="653" type="curve" smooth="yes"/>
      <point x="34" y="653"/>
      <point x="27" y="648"/>
      <point x="27" y="641" type="curve" smooth="yes"/>
      <point x="27" y="633"/>
      <point x="34" y="629"/>
      <point x="50" y="626" type="curve" smooth="yes"/>
      <point x="82" y="620"/>
      <point x="86" y="608"/>
      <point x="86" y="570" type="curve" smooth="yes"/>
      <point x="86" y="79" type="line" smooth="yes"/>
      <point x="86" y="38"/>
      <point x="79" y="28"/>
      <point x="45" y="21" type="curve" smooth="yes"/>
      <point x="30" y="17"/>
      <point x="23" y="14"/>
      <point x="23" y="6" type="curve" smooth="yes"/>
      <point x="23" y="-1"/>
      <point x="32" y="-5"/>
    </contour>
  </outline>
</glyph>
<glyph name="I" format="1">
  <advance width="254"/>
  <unicode hex="0049"/>
  <outline>
    <contour>
      <point x="31" y="-5" type="curve" smooth="yes"/>
      <point x="67" y="-5"/>
      <point x="83" y="0"/>
      <point x="131" y="0" type="curve" smooth="yes"/>
      <point x="173" y="0"/>
      <point x="184" y="-5"/>
      <point x="222" y="-5" type="curve" smooth="yes"/>
      <point x="233" y="-5"/>
      <point x="242" y="-2"/>
      <point x="242" y="5" type="curve" smooth="yes"/>
      <point x="242" y="13"/>
      <point x="235" y="17"/>
      <point x="219" y="21" type="curve" smooth="yes"/>
      <point x="184" y="28"/>
      <point x="164" y="42"/>
      <point x="164" y="80" type="curve" smooth="yes"/>
      <point x="164" y="565" type="line" smooth="yes"/>
      <point x="164" y="604"/>
      <point x="178" y="617"/>
      <point x="213" y="625" type="curve" smooth="yes"/>
      <point x="229" y="628"/>
      <point x="237" y="635"/>
      <point x="237" y="643" type="curve" smooth="yes"/>
      <point x="237" y="650"/>
      <point x="228" y="653"/>
      <point x="216" y="653" type="curve" smooth="yes"/>
      <point x="179" y="653"/>
      <point x="170" y="650"/>
      <point x="131" y="650" type="curve" smooth="yes"/>
      <point x="85" y="650"/>
      <point x="74" y="653"/>
      <point x="39" y="653" type="curve" smooth="yes"/>
      <point x="27" y="653"/>
      <point x="19" y="650"/>
      <point x="19" y="643" type="curve" smooth="yes"/>
      <point x="19" y="635"/>
      <point x="26" y="628"/>
      <point x="41" y="625" type="curve" smooth="yes"/>
      <point x="75" y="617"/>
      <point x="86" y="604"/>
      <point x="86" y="565" type="curve" smooth="yes"/>
      <point x="86" y="80" type="line" smooth="yes"/>
      <point x="86" y="42"/>
      <point x="67" y="28"/>
      <point x="34" y="21" type="curve" smooth="yes"/>
      <point x="19" y="17"/>
      <point x="12" y="13"/>
      <point x="12" y="5" type="curve" smooth="yes"/>
      <point x="12" y="-2"/>
      <point x="20" y="-5"/>
    </contour>
  </outline>
</glyph>
<glyph name="J" format="1">
  <advance width="274"/>
  <unicode hex="004A"/>
  <outline>
    <contour>
      <point x="40" y="-200" type="curve" smooth="yes"/>
      <point x="73" y="-200"/>
      <point x="99" y="-178"/>
      <point x="120" y="-146" type="curve" smooth="yes"/>
      <point x="146" y="-107"/>
      <point x="178" y="-36"/>
      <point x="178" y="46" type="curve" smooth="yes"/>
      <point x="178" y="565" type="line" smooth="yes"/>
      <point x="178" y="604"/>
      <point x="190" y="617"/>
      <point x="227" y="625" type="curve" smooth="yes"/>
      <point x="244" y="628"/>
      <point x="251" y="635"/>
      <point x="251" y="643" type="curve" smooth="yes"/>
      <point x="251" y="650"/>
      <point x="242" y="653"/>
      <point x="230" y="653" type="curve" smooth="yes"/>
      <point x="186" y="653"/>
      <point x="179" y="650"/>
      <point x="146" y="650" type="curve" smooth="yes"/>
      <point x="108" y="650"/>
      <point x="94" y="653"/>
      <point x="50" y="653" type="curve" smooth="yes"/>
      <point x="38" y="653"/>
      <point x="29" y="650"/>
      <point x="29" y="643" type="curve" smooth="yes"/>
      <point x="29" y="635"/>
      <point x="37" y="628"/>
      <point x="53" y="625" type="curve" smooth="yes"/>
      <point x="88" y="617"/>
      <point x="101" y="604"/>
      <point x="101" y="565" type="curve" smooth="yes"/>
      <point x="101" y="-1" type="line" smooth="yes"/>
      <point x="101" y="-101"/>
      <point x="88" y="-164"/>
      <point x="54" y="-164" type="curve" smooth="yes"/>
      <point x="41" y="-164"/>
      <point x="32" y="-155"/>
      <point x="21" y="-132" type="curve" smooth="yes"/>
      <point x="11" y="-112"/>
      <point x="0" y="-104"/>
      <point x="-17" y="-104" type="curve" smooth="yes"/>
      <point x="-33" y="-104"/>
      <point x="-52" y="-128"/>
      <point x="-52" y="-151" type="curve" smooth="yes"/>
      <point x="-52" y="-182"/>
      <point x="-21" y="-200"/>
    </contour>
  </outline>
</glyph>
<glyph name="K" format="1">
  <advance width="514"/>
  <unicode hex="004B"/>
  <outline>
    <contour>
      <point x="46" y="-5" type="curve" smooth="yes"/>
      <point x="89" y="-5"/>
      <point x="101" y="2"/>
      <point x="138" y="2" type="curve" smooth="yes"/>
      <point x="169" y="2"/>
      <point x="178" y="-5"/>
      <point x="217" y="-5" type="curve" smooth="yes"/>
      <point x="230" y="-5"/>
      <point x="238" y="-2"/>
      <point x="238" y="5" type="curve" smooth="yes"/>
      <point x="238" y="13"/>
      <point x="232" y="17"/>
      <point x="216" y="20" type="curve" smooth="yes"/>
      <point x="183" y="28"/>
      <point x="171" y="48"/>
      <point x="170" y="88" type="curve"/>
      <point x="169" y="190"/>
      <point x="168" y="226"/>
      <point x="168" y="289" type="curve" smooth="yes"/>
      <point x="168" y="296"/>
      <point x="167" y="310"/>
      <point x="171" y="310" type="curve" smooth="yes"/>
      <point x="174" y="310"/>
      <point x="182" y="301"/>
      <point x="187" y="293" type="curve"/>
      <point x="344" y="61" type="line" smooth="yes"/>
      <point x="349" y="54"/>
      <point x="353" y="47"/>
      <point x="352" y="41" type="curve" smooth="yes"/>
      <point x="352" y="34"/>
      <point x="343" y="29"/>
      <point x="325" y="25" type="curve"/>
      <point x="311" y="21"/>
      <point x="306" y="18"/>
      <point x="306" y="9" type="curve" smooth="yes"/>
      <point x="306" y="2"/>
      <point x="314" y="-1"/>
      <point x="326" y="-1" type="curve" smooth="yes"/>
      <point x="358" y="-1"/>
      <point x="373" y="0"/>
      <point x="391" y="0" type="curve" smooth="yes"/>
      <point x="430" y="0"/>
      <point x="459" y="-5"/>
      <point x="501" y="-5" type="curve" smooth="yes"/>
      <point x="513" y="-5"/>
      <point x="522" y="-2"/>
      <point x="522" y="5" type="curve" smooth="yes"/>
      <point x="522" y="14"/>
      <point x="514" y="18"/>
      <point x="498" y="22" type="curve" smooth="yes"/>
      <point x="469" y="29"/>
      <point x="461" y="36"/>
      <point x="429" y="84" type="curve" smooth="yes"/>
      <point x="238" y="367" type="line" smooth="yes"/>
      <point x="233" y="374"/>
      <point x="231" y="380"/>
      <point x="235" y="385" type="curve"/>
      <point x="284" y="462"/>
      <point x="328" y="511"/>
      <point x="379" y="572" type="curve" smooth="yes"/>
      <point x="409" y="610"/>
      <point x="429" y="621"/>
      <point x="475" y="627" type="curve" smooth="yes"/>
      <point x="493" y="630"/>
      <point x="501" y="637"/>
      <point x="501" y="645" type="curve" smooth="yes"/>
      <point x="501" y="651"/>
      <point x="494" y="655"/>
      <point x="483" y="655" type="curve" smooth="yes"/>
      <point x="475" y="655"/>
      <point x="411" y="651"/>
      <point x="371" y="651" type="curve" smooth="yes"/>
      <point x="328" y="651" type="line" smooth="yes"/>
      <point x="316" y="651"/>
      <point x="307" y="648"/>
      <point x="307" y="641" type="curve" smooth="yes"/>
      <point x="307" y="633"/>
      <point x="312" y="628"/>
      <point x="329" y="624" type="curve"/>
      <point x="346" y="622"/>
      <point x="354" y="616"/>
      <point x="354" y="605" type="curve" smooth="yes"/>
      <point x="354" y="597"/>
      <point x="348" y="587"/>
      <point x="339" y="575" type="curve" smooth="yes"/>
      <point x="191" y="374" type="line"/>
      <point x="186" y="366"/>
      <point x="177" y="356"/>
      <point x="172" y="356" type="curve" smooth="yes"/>
      <point x="168" y="356"/>
      <point x="168" y="370"/>
      <point x="168" y="375" type="curve" smooth="yes"/>
      <point x="168" y="567" type="line" smooth="yes"/>
      <point x="168" y="598"/>
      <point x="171" y="618"/>
      <point x="206" y="625" type="curve" smooth="yes"/>
      <point x="222" y="628"/>
      <point x="229" y="636"/>
      <point x="229" y="643" type="curve" smooth="yes"/>
      <point x="229" y="650"/>
      <point x="219" y="653"/>
      <point x="206" y="653" type="curve" smooth="yes"/>
      <point x="166" y="653"/>
      <point x="162" y="651"/>
      <point x="133" y="651" type="curve" smooth="yes"/>
      <point x="99" y="651"/>
      <point x="88" y="653"/>
      <point x="46" y="653" type="curve" smooth="yes"/>
      <point x="33" y="653"/>
      <point x="23" y="650"/>
      <point x="23" y="644" type="curve" smooth="yes"/>
      <point x="23" y="636"/>
      <point x="30" y="629"/>
      <point x="46" y="626" type="curve" smooth="yes"/>
      <point x="82" y="620"/>
      <point x="91" y="606"/>
      <point x="91" y="567" type="curve" smooth="yes"/>
      <point x="91" y="82" type="line" smooth="yes"/>
      <point x="91" y="41"/>
      <point x="80" y="27"/>
      <point x="46" y="20" type="curve" smooth="yes"/>
      <point x="31" y="17"/>
      <point x="24" y="13"/>
      <point x="24" y="5" type="curve" smooth="yes"/>
      <point x="24" y="-2"/>
      <point x="34" y="-5"/>
    </contour>
  </outline>
</glyph>
<glyph name="L" format="1">
  <advance width="438"/>
  <unicode hex="004C"/>
  <outline>
    <contour>
      <point x="43" y="-5" type="curve"/>
      <point x="43" y="-5"/>
      <point x="105" y="0"/>
      <point x="141" y="0" type="curve" smooth="yes"/>
      <point x="213" y="0"/>
      <point x="304" y="-5"/>
      <point x="401" y="-5" type="curve" smooth="yes"/>
      <point x="408" y="-5"/>
      <point x="410" y="3"/>
      <point x="411" y="12" type="curve" smooth="yes"/>
      <point x="415" y="56"/>
      <point x="420" y="90"/>
      <point x="430" y="143" type="curve" smooth="yes"/>
      <point x="431" y="144"/>
      <point x="431" y="147"/>
      <point x="431" y="149" type="curve" smooth="yes"/>
      <point x="431" y="159"/>
      <point x="426" y="167"/>
      <point x="419" y="167" type="curve" smooth="yes"/>
      <point x="411" y="167"/>
      <point x="405" y="156"/>
      <point x="398" y="133" type="curve" smooth="yes"/>
      <point x="386" y="96"/>
      <point x="381" y="83"/>
      <point x="365" y="61" type="curve" smooth="yes"/>
      <point x="353" y="45"/>
      <point x="334" y="30"/>
      <point x="309" y="30" type="curve" smooth="yes"/>
      <point x="232" y="30" type="line" smooth="yes"/>
      <point x="184" y="30"/>
      <point x="176" y="50"/>
      <point x="176" y="91" type="curve" smooth="yes"/>
      <point x="176" y="580" type="line" smooth="yes"/>
      <point x="176" y="614"/>
      <point x="201" y="618"/>
      <point x="239" y="625" type="curve" smooth="yes"/>
      <point x="257" y="629"/>
      <point x="265" y="635"/>
      <point x="265" y="643" type="curve" smooth="yes"/>
      <point x="265" y="650"/>
      <point x="255" y="653"/>
      <point x="242" y="653" type="curve" smooth="yes"/>
      <point x="198" y="653"/>
      <point x="180" y="650"/>
      <point x="142" y="650" type="curve" smooth="yes"/>
      <point x="107" y="650"/>
      <point x="96" y="653"/>
      <point x="52" y="653" type="curve" smooth="yes"/>
      <point x="39" y="653"/>
      <point x="30" y="650"/>
      <point x="30" y="643" type="curve" smooth="yes"/>
      <point x="30" y="635"/>
      <point x="37" y="629"/>
      <point x="54" y="626" type="curve" smooth="yes"/>
      <point x="90" y="619"/>
      <point x="98" y="616"/>
      <point x="98" y="573" type="curve" smooth="yes"/>
      <point x="98" y="81" type="line" smooth="yes"/>
      <point x="98" y="43"/>
      <point x="84" y="29"/>
      <point x="40" y="21" type="curve" smooth="yes"/>
      <point x="37" y="20"/>
      <point x="23" y="17"/>
      <point x="23" y="6" type="curve" smooth="yes"/>
      <point x="23" y="0"/>
      <point x="30" y="-5"/>
    </contour>
  </outline>
</glyph>
<glyph name="M" format="1">
  <advance width="663"/>
  <unicode hex="004D"/>
  <outline>
    <contour>
      <point x="36" y="-5" type="curve" smooth="yes"/>
      <point x="77" y="-5"/>
      <point x="79" y="0"/>
      <point x="106" y="0" type="curve" smooth="yes"/>
      <point x="135" y="0"/>
      <point x="138" y="-5"/>
      <point x="180" y="-5" type="curve" smooth="yes"/>
      <point x="193" y="-5"/>
      <point x="203" y="-2"/>
      <point x="203" y="5" type="curve" smooth="yes"/>
      <point x="203" y="14"/>
      <point x="195" y="18"/>
      <point x="178" y="22" type="curve" smooth="yes"/>
      <point x="142" y="29"/>
      <point x="127" y="55"/>
      <point x="127" y="95" type="curve" smooth="yes"/>
      <point x="127" y="235"/>
      <point x="138" y="337"/>
      <point x="145" y="452" type="curve" smooth="yes"/>
      <point x="145" y="459"/>
      <point x="152" y="459"/>
      <point x="154" y="452" type="curve" smooth="yes"/>
      <point x="209" y="276"/>
      <point x="249" y="153"/>
      <point x="287" y="-4" type="curve" smooth="yes"/>
      <point x="289" y="-13"/>
      <point x="301" y="-12"/>
      <point x="303" y="-5" type="curve" smooth="yes"/>
      <point x="458" y="418" type="line" smooth="yes"/>
      <point x="462" y="431"/>
      <point x="468" y="432"/>
      <point x="469" y="418" type="curve"/>
      <point x="473" y="299"/>
      <point x="478" y="223"/>
      <point x="479" y="77" type="curve" smooth="yes"/>
      <point x="480" y="41"/>
      <point x="471" y="26"/>
      <point x="443" y="22" type="curve" smooth="yes"/>
      <point x="426" y="19"/>
      <point x="418" y="14"/>
      <point x="418" y="5" type="curve" smooth="yes"/>
      <point x="418" y="-2"/>
      <point x="428" y="-5"/>
      <point x="441" y="-5" type="curve" smooth="yes"/>
      <point x="484" y="-5"/>
      <point x="492" y="0"/>
      <point x="525" y="0" type="curve" smooth="yes"/>
      <point x="561" y="0"/>
      <point x="575" y="-5"/>
      <point x="617" y="-5" type="curve" smooth="yes"/>
      <point x="631" y="-5"/>
      <point x="640" y="-2"/>
      <point x="640" y="5" type="curve" smooth="yes"/>
      <point x="640" y="14"/>
      <point x="633" y="19"/>
      <point x="616" y="22" type="curve" smooth="yes"/>
      <point x="580" y="29"/>
      <point x="563" y="45"/>
      <point x="562" y="77" type="curve" smooth="yes"/>
      <point x="556" y="248"/>
      <point x="546" y="383"/>
      <point x="546" y="572" type="curve" smooth="yes"/>
      <point x="546" y="593"/>
      <point x="551" y="606"/>
      <point x="564" y="611" type="curve" smooth="yes"/>
      <point x="577" y="617"/>
      <point x="593" y="624"/>
      <point x="606" y="629" type="curve"/>
      <point x="621" y="637"/>
      <point x="625" y="640"/>
      <point x="625" y="648" type="curve" smooth="yes"/>
      <point x="625" y="655"/>
      <point x="613" y="656"/>
      <point x="609" y="656" type="curve" smooth="yes"/>
      <point x="591" y="656"/>
      <point x="550" y="648"/>
      <point x="518" y="648" type="curve" smooth="yes"/>
      <point x="489" y="648" type="line" smooth="yes"/>
      <point x="486" y="648"/>
      <point x="483" y="643"/>
      <point x="481" y="635" type="curve" smooth="yes"/>
      <point x="479" y="614"/>
      <point x="471" y="576"/>
      <point x="466" y="554" type="curve"/>
      <point x="335" y="204" type="line" smooth="yes"/>
      <point x="332" y="194"/>
      <point x="324" y="197"/>
      <point x="321" y="207" type="curve" smooth="yes"/>
      <point x="214" y="555" type="line" smooth="yes"/>
      <point x="207" y="580"/>
      <point x="203" y="607"/>
      <point x="198" y="631" type="curve" smooth="yes"/>
      <point x="196" y="641"/>
      <point x="191" y="647"/>
      <point x="185" y="647" type="curve" smooth="yes"/>
      <point x="165" y="647"/>
      <point x="73" y="655"/>
      <point x="55" y="655" type="curve" smooth="yes"/>
      <point x="40" y="655"/>
      <point x="30" y="654"/>
      <point x="30" y="645" type="curve" smooth="yes"/>
      <point x="30" y="638"/>
      <point x="36" y="632"/>
      <point x="46" y="629" type="curve" smooth="yes"/>
      <point x="71" y="624"/>
      <point x="87" y="621"/>
      <point x="99" y="606" type="curve" smooth="yes"/>
      <point x="107" y="597"/>
      <point x="109" y="585"/>
      <point x="109" y="571" type="curve" smooth="yes"/>
      <point x="109" y="561"/>
      <point x="110" y="547"/>
      <point x="110" y="534" type="curve" smooth="yes"/>
      <point x="110" y="439"/>
      <point x="100" y="284"/>
      <point x="84" y="94" type="curve" smooth="yes"/>
      <point x="80" y="47"/>
      <point x="68" y="27"/>
      <point x="37" y="21" type="curve" smooth="yes"/>
      <point x="20" y="18"/>
      <point x="13" y="14"/>
      <point x="13" y="5" type="curve" smooth="yes"/>
      <point x="13" y="-2"/>
      <point x="22" y="-5"/>
    </contour>
  </outline>
</glyph>
<glyph name="N" format="1">
  <advance width="573"/>
  <unicode hex="004E"/>
  <outline>
    <contour>
      <point x="485" y="-17" type="curve" smooth="yes"/>
      <point x="493" y="-17"/>
      <point x="501" y="-13"/>
      <point x="501" y="8" type="curve" smooth="yes"/>
      <point x="501" y="21"/>
      <point x="498" y="57"/>
      <point x="498" y="105" type="curve" smooth="yes"/>
      <point x="497" y="285"/>
      <point x="498" y="469"/>
      <point x="500" y="553" type="curve" smooth="yes"/>
      <point x="502" y="597"/>
      <point x="515" y="618"/>
      <point x="543" y="627" type="curve" smooth="yes"/>
      <point x="559" y="632"/>
      <point x="566" y="636"/>
      <point x="566" y="644" type="curve" smooth="yes"/>
      <point x="566" y="652"/>
      <point x="557" y="654"/>
      <point x="546" y="654" type="curve" smooth="yes"/>
      <point x="503" y="654"/>
      <point x="500" y="649"/>
      <point x="473" y="649" type="curve" smooth="yes"/>
      <point x="447" y="649"/>
      <point x="443" y="653"/>
      <point x="404" y="653" type="curve" smooth="yes"/>
      <point x="391" y="653"/>
      <point x="383" y="650"/>
      <point x="383" y="643" type="curve" smooth="yes"/>
      <point x="383" y="635"/>
      <point x="392" y="630"/>
      <point x="410" y="626" type="curve" smooth="yes"/>
      <point x="450" y="618"/>
      <point x="463" y="591"/>
      <point x="463" y="552" type="curve" smooth="yes"/>
      <point x="463" y="415"/>
      <point x="463" y="290"/>
      <point x="463" y="196" type="curve"/>
      <point x="462" y="181"/>
      <point x="459" y="175"/>
      <point x="455" y="175" type="curve" smooth="yes"/>
      <point x="450" y="175"/>
      <point x="441" y="189"/>
      <point x="438" y="195" type="curve" smooth="yes"/>
      <point x="423" y="219"/>
      <point x="174" y="609"/>
      <point x="161" y="636" type="curve"/>
      <point x="155" y="645"/>
      <point x="152" y="653"/>
      <point x="143" y="653" type="curve" smooth="yes"/>
      <point x="91" y="653"/>
      <point x="82" y="656"/>
      <point x="26" y="658" type="curve" smooth="yes"/>
      <point x="21" y="658"/>
      <point x="8" y="656"/>
      <point x="8" y="647" type="curve" smooth="yes"/>
      <point x="8" y="637"/>
      <point x="22" y="629"/>
      <point x="31" y="626" type="curve" smooth="yes"/>
      <point x="71" y="615"/>
      <point x="98" y="588"/>
      <point x="98" y="528" type="curve" smooth="yes"/>
      <point x="98" y="343"/>
      <point x="92" y="186"/>
      <point x="87" y="98" type="curve" smooth="yes"/>
      <point x="85" y="53"/>
      <point x="73" y="31"/>
      <point x="46" y="22" type="curve" smooth="yes"/>
      <point x="30" y="17"/>
      <point x="23" y="13"/>
      <point x="23" y="5" type="curve" smooth="yes"/>
      <point x="23" y="-2"/>
      <point x="31" y="-5"/>
      <point x="43" y="-5" type="curve" smooth="yes"/>
      <point x="85" y="-5"/>
      <point x="87" y="0"/>
      <point x="113" y="0" type="curve" smooth="yes"/>
      <point x="140" y="0"/>
      <point x="143" y="-5"/>
      <point x="183" y="-5" type="curve" smooth="yes"/>
      <point x="196" y="-5"/>
      <point x="204" y="-2"/>
      <point x="204" y="5" type="curve" smooth="yes"/>
      <point x="204" y="13"/>
      <point x="196" y="19"/>
      <point x="177" y="22" type="curve" smooth="yes"/>
      <point x="137" y="31"/>
      <point x="125" y="58"/>
      <point x="125" y="97" type="curve" smooth="yes"/>
      <point x="125" y="232"/>
      <point x="131" y="350"/>
      <point x="131" y="447" type="curve" smooth="yes"/>
      <point x="131" y="455"/>
      <point x="133" y="468"/>
      <point x="139" y="468" type="curve" smooth="yes"/>
      <point x="143" y="468"/>
      <point x="148" y="464"/>
      <point x="155" y="452" type="curve" smooth="yes"/>
      <point x="173" y="424"/>
      <point x="406" y="71"/>
      <point x="419" y="46" type="curve" smooth="yes"/>
      <point x="447" y="-5"/>
      <point x="477" y="-17"/>
    </contour>
  </outline>
</glyph>
<glyph name="O" format="1">
  <advance width="549"/>
  <unicode hex="004F"/>
  <outline>
    <contour>
      <point x="271" y="-14" type="curve" smooth="yes"/>
      <point x="431" y="-14"/>
      <point x="516" y="126"/>
      <point x="516" y="334" type="curve" smooth="yes"/>
      <point x="516" y="561"/>
      <point x="404" y="664"/>
      <point x="278" y="664" type="curve" smooth="yes"/>
      <point x="118" y="664"/>
      <point x="33" y="525"/>
      <point x="33" y="316" type="curve" smooth="yes"/>
      <point x="33" y="89"/>
      <point x="145" y="-14"/>
    </contour>
    <contour>
      <point x="281" y="20" type="curve" smooth="yes"/>
      <point x="175" y="20"/>
      <point x="126" y="147"/>
      <point x="126" y="366" type="curve" smooth="yes"/>
      <point x="126" y="554"/>
      <point x="172" y="628"/>
      <point x="267" y="628" type="curve" smooth="yes"/>
      <point x="373" y="628"/>
      <point x="422" y="503"/>
      <point x="422" y="285" type="curve" smooth="yes"/>
      <point x="422" y="96"/>
      <point x="378" y="20"/>
    </contour>
  </outline>
</glyph>
<glyph name="P" format="1">
  <advance width="412"/>
  <unicode hex="0050"/>
  <outline>
    <contour>
      <point x="38" y="-5" type="curve" smooth="yes"/>
      <point x="81" y="-5"/>
      <point x="96" y="2"/>
      <point x="136" y="2" type="curve" smooth="yes"/>
      <point x="165" y="2"/>
      <point x="175" y="-5"/>
      <point x="217" y="-5" type="curve" smooth="yes"/>
      <point x="229" y="-5"/>
      <point x="238" y="-2"/>
      <point x="238" y="5" type="curve" smooth="yes"/>
      <point x="238" y="13"/>
      <point x="230" y="18"/>
      <point x="214" y="22" type="curve" smooth="yes"/>
      <point x="173" y="28"/>
      <point x="165" y="51"/>
      <point x="165" y="108" type="curve" smooth="yes"/>
      <point x="165" y="586" type="line" smooth="yes"/>
      <point x="165" y="616"/>
      <point x="179" y="628"/>
      <point x="204" y="628" type="curve" smooth="yes"/>
      <point x="266" y="628"/>
      <point x="314" y="583"/>
      <point x="314" y="471" type="curve" smooth="yes"/>
      <point x="314" y="352"/>
      <point x="287" y="282"/>
      <point x="233" y="282" type="curve" smooth="yes"/>
      <point x="222" y="282"/>
      <point x="213" y="284"/>
      <point x="208" y="284" type="curve" smooth="yes"/>
      <point x="202" y="284"/>
      <point x="195" y="279"/>
      <point x="195" y="272" type="curve" smooth="yes"/>
      <point x="195" y="265"/>
      <point x="206" y="254"/>
      <point x="232" y="254" type="curve" smooth="yes"/>
      <point x="344" y="254"/>
      <point x="396" y="357"/>
      <point x="396" y="480" type="curve" smooth="yes"/>
      <point x="396" y="592"/>
      <point x="322" y="658"/>
      <point x="211" y="658" type="curve" smooth="yes"/>
      <point x="190" y="658"/>
      <point x="159" y="652"/>
      <point x="128" y="652" type="curve" smooth="yes"/>
      <point x="94" y="652"/>
      <point x="92" y="653"/>
      <point x="48" y="653" type="curve" smooth="yes"/>
      <point x="34" y="653"/>
      <point x="24" y="650"/>
      <point x="23" y="643" type="curve" smooth="yes"/>
      <point x="23" y="635"/>
      <point x="30" y="629"/>
      <point x="46" y="626" type="curve" smooth="yes"/>
      <point x="82" y="619"/>
      <point x="87" y="597"/>
      <point x="87" y="538" type="curve" smooth="yes"/>
      <point x="87" y="99" type="line" smooth="yes"/>
      <point x="87" y="42"/>
      <point x="76" y="27"/>
      <point x="37" y="21" type="curve" smooth="yes"/>
      <point x="22" y="18"/>
      <point x="15" y="13"/>
      <point x="15" y="5" type="curve" smooth="yes"/>
      <point x="15" y="-2"/>
      <point x="24" y="-5"/>
    </contour>
  </outline>
</glyph>
<glyph name="Q" format="1">
  <advance width="549"/>
  <unicode hex="0051"/>
  <outline>
    <contour>
      <point x="530" y="-248" type="curve" smooth="yes"/>
      <point x="559" y="-248"/>
      <point x="593" y="-238"/>
      <point x="621" y="-219" type="curve" smooth="yes"/>
      <point x="634" y="-209"/>
      <point x="639" y="-200"/>
      <point x="639" y="-188" type="curve" smooth="yes"/>
      <point x="639" y="-182"/>
      <point x="634" y="-180"/>
      <point x="629" y="-180" type="curve" smooth="yes"/>
      <point x="624" y="-180"/>
      <point x="618" y="-182"/>
      <point x="614" y="-184" type="curve"/>
      <point x="605" y="-188"/>
      <point x="586" y="-191"/>
      <point x="566" y="-191" type="curve" smooth="yes"/>
      <point x="513" y="-191"/>
      <point x="478" y="-174"/>
      <point x="433" y="-128" type="curve" smooth="yes"/>
      <point x="398" y="-92"/>
      <point x="372" y="-59"/>
      <point x="344" y="-17" type="curve"/>
      <point x="342" y="-14"/>
      <point x="342" y="-11"/>
      <point x="342" y="-8" type="curve" smooth="yes"/>
      <point x="342" y="-6"/>
      <point x="342" y="-3"/>
      <point x="347" y="-1" type="curve" smooth="yes"/>
      <point x="458" y="39"/>
      <point x="516" y="165"/>
      <point x="516" y="334" type="curve" smooth="yes"/>
      <point x="516" y="561"/>
      <point x="404" y="664"/>
      <point x="278" y="664" type="curve" smooth="yes"/>
      <point x="118" y="664"/>
      <point x="33" y="525"/>
      <point x="33" y="316" type="curve" smooth="yes"/>
      <point x="33" y="147"/>
      <point x="97" y="53"/>
      <point x="176" y="9" type="curve"/>
      <point x="200" y="-7"/>
      <point x="227" y="-23"/>
      <point x="256" y="-53" type="curve" smooth="yes"/>
      <point x="297" y="-94"/>
      <point x="324" y="-123"/>
      <point x="360" y="-159" type="curve" smooth="yes"/>
      <point x="412" y="-216"/>
      <point x="454" y="-248"/>
    </contour>
    <contour>
      <point x="281" y="20" type="curve" smooth="yes"/>
      <point x="175" y="20"/>
      <point x="126" y="147"/>
      <point x="126" y="366" type="curve" smooth="yes"/>
      <point x="126" y="554"/>
      <point x="172" y="628"/>
      <point x="267" y="628" type="curve" smooth="yes"/>
      <point x="373" y="628"/>
      <point x="422" y="503"/>
      <point x="422" y="285" type="curve" smooth="yes"/>
      <point x="422" y="96"/>
      <point x="378" y="20"/>
    </contour>
  </outline>
</glyph>
<glyph name="R" format="1">
  <advance width="527"/>
  <unicode hex="0052"/>
  <outline>
    <contour>
      <point x="467" y="-21" type="curve" smooth="yes"/>
      <point x="484" y="-21"/>
      <point x="534" y="-16"/>
      <point x="534" y="8" type="curve" smooth="yes"/>
      <point x="534" y="15"/>
      <point x="530" y="17"/>
      <point x="524" y="17" type="curve" smooth="yes"/>
      <point x="495" y="17"/>
      <point x="478" y="22"/>
      <point x="455" y="50" type="curve" smooth="yes"/>
      <point x="380" y="137"/>
      <point x="340" y="222"/>
      <point x="295" y="313" type="curve" smooth="yes"/>
      <point x="292" y="319"/>
      <point x="291" y="324"/>
      <point x="295" y="326" type="curve"/>
      <point x="334" y="354"/>
      <point x="381" y="402"/>
      <point x="381" y="492" type="curve" smooth="yes"/>
      <point x="381" y="604"/>
      <point x="317" y="656"/>
      <point x="221" y="656" type="curve" smooth="yes"/>
      <point x="182" y="656"/>
      <point x="152" y="651"/>
      <point x="125" y="651" type="curve" smooth="yes"/>
      <point x="96" y="651"/>
      <point x="84" y="652"/>
      <point x="44" y="652" type="curve" smooth="yes"/>
      <point x="33" y="652"/>
      <point x="24" y="649"/>
      <point x="24" y="642" type="curve" smooth="yes"/>
      <point x="24" y="633"/>
      <point x="31" y="627"/>
      <point x="46" y="624" type="curve" smooth="yes"/>
      <point x="83" y="619"/>
      <point x="87" y="607"/>
      <point x="87" y="539" type="curve" smooth="yes"/>
      <point x="87" y="91" type="line" smooth="yes"/>
      <point x="87" y="43"/>
      <point x="77" y="29"/>
      <point x="40" y="22" type="curve" smooth="yes"/>
      <point x="25" y="18"/>
      <point x="18" y="14"/>
      <point x="18" y="5" type="curve" smooth="yes"/>
      <point x="18" y="-2"/>
      <point x="26" y="-5"/>
      <point x="38" y="-5" type="curve" smooth="yes"/>
      <point x="78" y="-5"/>
      <point x="103" y="2"/>
      <point x="139" y="2" type="curve" smooth="yes"/>
      <point x="173" y="2"/>
      <point x="179" y="-5"/>
      <point x="217" y="-5" type="curve" smooth="yes"/>
      <point x="228" y="-5"/>
      <point x="237" y="-2"/>
      <point x="237" y="5" type="curve" smooth="yes"/>
      <point x="237" y="14"/>
      <point x="230" y="18"/>
      <point x="214" y="22" type="curve" smooth="yes"/>
      <point x="177" y="29"/>
      <point x="164" y="54"/>
      <point x="164" y="96" type="curve" smooth="yes"/>
      <point x="164" y="284" type="line" smooth="yes"/>
      <point x="164" y="296"/>
      <point x="167" y="304"/>
      <point x="174" y="303" type="curve" smooth="yes"/>
      <point x="186" y="301"/>
      <point x="206" y="296"/>
      <point x="225" y="283" type="curve" smooth="yes"/>
      <point x="238" y="273"/>
      <point x="245" y="262"/>
      <point x="253" y="244" type="curve" smooth="yes"/>
      <point x="301" y="133"/>
      <point x="323" y="97"/>
      <point x="355" y="39" type="curve" smooth="yes"/>
      <point x="381" y="-11"/>
      <point x="421" y="-21"/>
    </contour>
    <contour>
      <point x="198" y="328" type="curve" smooth="yes"/>
      <point x="177" y="328"/>
      <point x="164" y="329"/>
      <point x="164" y="362" type="curve" smooth="yes"/>
      <point x="164" y="442"/>
      <point x="165" y="498"/>
      <point x="165" y="532" type="curve" smooth="yes"/>
      <point x="167" y="601"/>
      <point x="172" y="625"/>
      <point x="200" y="625" type="curve" smooth="yes"/>
      <point x="281" y="625"/>
      <point x="294" y="556"/>
      <point x="294" y="475" type="curve" smooth="yes"/>
      <point x="294" y="393"/>
      <point x="268" y="328"/>
    </contour>
  </outline>
</glyph>
<glyph name="S" format="1">
  <advance width="348"/>
  <unicode hex="0053"/>
  <outline>
    <contour>
      <point x="153" y="-16" type="curve" smooth="yes"/>
      <point x="248" y="-16"/>
      <point x="315" y="61"/>
      <point x="315" y="179" type="curve" smooth="yes"/>
      <point x="315" y="265"/>
      <point x="269" y="311"/>
      <point x="213" y="365" type="curve" smooth="yes"/>
      <point x="159" y="416"/>
      <point x="112" y="457"/>
      <point x="112" y="516" type="curve" smooth="yes"/>
      <point x="112" y="597"/>
      <point x="143" y="632"/>
      <point x="187" y="632" type="curve" smooth="yes"/>
      <point x="226" y="632"/>
      <point x="251" y="608"/>
      <point x="272" y="518" type="curve" smooth="yes"/>
      <point x="274" y="510"/>
      <point x="283" y="504"/>
      <point x="294" y="504" type="curve" smooth="yes"/>
      <point x="303" y="504"/>
      <point x="310" y="509"/>
      <point x="310" y="518" type="curve" smooth="yes"/>
      <point x="310" y="553"/>
      <point x="302" y="588"/>
      <point x="295" y="615" type="curve" smooth="yes"/>
      <point x="291" y="626"/>
      <point x="285" y="637"/>
      <point x="276" y="642" type="curve" smooth="yes"/>
      <point x="260" y="651"/>
      <point x="234" y="664"/>
      <point x="199" y="664" type="curve" smooth="yes"/>
      <point x="95" y="664"/>
      <point x="45" y="585"/>
      <point x="45" y="493" type="curve" smooth="yes"/>
      <point x="45" y="403"/>
      <point x="98" y="362"/>
      <point x="157" y="304" type="curve"/>
      <point x="215" y="246"/>
      <point x="241" y="206"/>
      <point x="241" y="143" type="curve" smooth="yes"/>
      <point x="241" y="56"/>
      <point x="212" y="15"/>
      <point x="164" y="15" type="curve" smooth="yes"/>
      <point x="125" y="15"/>
      <point x="87" y="49"/>
      <point x="66" y="160" type="curve" smooth="yes"/>
      <point x="65" y="168"/>
      <point x="56" y="173"/>
      <point x="49" y="173" type="curve" smooth="yes"/>
      <point x="40" y="173"/>
      <point x="30" y="166"/>
      <point x="30" y="157" type="curve" smooth="yes"/>
      <point x="31" y="129"/>
      <point x="33" y="79"/>
      <point x="38" y="52" type="curve" smooth="yes"/>
      <point x="39" y="44"/>
      <point x="43" y="37"/>
      <point x="47" y="32" type="curve"/>
      <point x="74" y="1"/>
      <point x="113" y="-16"/>
    </contour>
  </outline>
</glyph>
<glyph name="T" format="1">
  <advance width="354"/>
  <unicode hex="0054"/>
  <outline>
    <contour>
      <point x="186" y="-1" type="curve" smooth="yes"/>
      <point x="213" y="-1"/>
      <point x="224" y="-5"/>
      <point x="256" y="-5" type="curve" smooth="yes"/>
      <point x="267" y="-5"/>
      <point x="274" y="-2"/>
      <point x="274" y="5" type="curve" smooth="yes"/>
      <point x="274" y="12"/>
      <point x="269" y="17"/>
      <point x="256" y="20" type="curve" smooth="yes"/>
      <point x="229" y="28"/>
      <point x="213" y="46"/>
      <point x="213" y="92" type="curve" smooth="yes"/>
      <point x="213" y="538" type="line" smooth="yes"/>
      <point x="213" y="612"/>
      <point x="216" y="615"/>
      <point x="240" y="615" type="curve" smooth="yes"/>
      <point x="275" y="615" type="line" smooth="yes"/>
      <point x="308" y="615"/>
      <point x="320" y="596"/>
      <point x="323" y="566" type="curve" smooth="yes"/>
      <point x="326" y="537"/>
      <point x="330" y="523"/>
      <point x="337" y="523" type="curve" smooth="yes"/>
      <point x="342" y="523"/>
      <point x="351" y="536"/>
      <point x="351" y="555" type="curve" smooth="yes"/>
      <point x="351" y="567" type="line" smooth="yes"/>
      <point x="351" y="584"/>
      <point x="353" y="610"/>
      <point x="354" y="626" type="curve" smooth="yes"/>
      <point x="354" y="632"/>
      <point x="356" y="647"/>
      <point x="356" y="654" type="curve" smooth="yes"/>
      <point x="356" y="668"/>
      <point x="353" y="677"/>
      <point x="349" y="677" type="curve" smooth="yes"/>
      <point x="340" y="677"/>
      <point x="333" y="665"/>
      <point x="324" y="657" type="curve" smooth="yes"/>
      <point x="314" y="646"/>
      <point x="299" y="642"/>
      <point x="275" y="642" type="curve" smooth="yes"/>
      <point x="96" y="642" type="line" smooth="yes"/>
      <point x="82" y="642"/>
      <point x="65" y="648"/>
      <point x="61" y="662" type="curve" smooth="yes"/>
      <point x="55" y="683"/>
      <point x="49" y="694"/>
      <point x="44" y="694" type="curve" smooth="yes"/>
      <point x="41" y="694"/>
      <point x="32" y="693"/>
      <point x="31" y="671" type="curve" smooth="yes"/>
      <point x="28" y="629"/>
      <point x="22" y="604"/>
      <point x="14" y="566" type="curve" smooth="yes"/>
      <point x="13" y="560"/>
      <point x="11" y="552"/>
      <point x="11" y="546" type="curve" smooth="yes"/>
      <point x="11" y="539"/>
      <point x="17" y="533"/>
      <point x="20" y="533" type="curve" smooth="yes"/>
      <point x="29" y="533"/>
      <point x="39" y="549"/>
      <point x="46" y="573" type="curve" smooth="yes"/>
      <point x="55" y="601"/>
      <point x="72" y="615"/>
      <point x="87" y="615" type="curve" smooth="yes"/>
      <point x="127" y="615" type="line" smooth="yes"/>
      <point x="133" y="615"/>
      <point x="138" y="614"/>
      <point x="141" y="608" type="curve" smooth="yes"/>
      <point x="148" y="601"/>
      <point x="151" y="583"/>
      <point x="151" y="547" type="curve" smooth="yes"/>
      <point x="151" y="92" type="line" smooth="yes"/>
      <point x="151" y="46"/>
      <point x="136" y="28"/>
      <point x="109" y="20" type="curve" smooth="yes"/>
      <point x="97" y="17"/>
      <point x="91" y="12"/>
      <point x="91" y="5" type="curve" smooth="yes"/>
      <point x="91" y="-2"/>
      <point x="98" y="-5"/>
      <point x="109" y="-5" type="curve" smooth="yes"/>
      <point x="141" y="-5"/>
      <point x="156" y="-1"/>
    </contour>
  </outline>
</glyph>
<glyph name="U" format="1">
  <advance width="534"/>
  <unicode hex="0055"/>
  <outline>
    <contour>
      <point x="266" y="-14" type="curve" smooth="yes"/>
      <point x="377" y="-14"/>
      <point x="452" y="81"/>
      <point x="456" y="225" type="curve" smooth="yes"/>
      <point x="458" y="342"/>
      <point x="458" y="428"/>
      <point x="463" y="557" type="curve" smooth="yes"/>
      <point x="465" y="598"/>
      <point x="475" y="618"/>
      <point x="501" y="625" type="curve" smooth="yes"/>
      <point x="520" y="630"/>
      <point x="528" y="635"/>
      <point x="528" y="643" type="curve" smooth="yes"/>
      <point x="528" y="650"/>
      <point x="518" y="653"/>
      <point x="505" y="653" type="curve" smooth="yes"/>
      <point x="487" y="653"/>
      <point x="466" y="650"/>
      <point x="441" y="650" type="curve" smooth="yes"/>
      <point x="417" y="650"/>
      <point x="404" y="651"/>
      <point x="380" y="651" type="curve" smooth="yes"/>
      <point x="367" y="651"/>
      <point x="358" y="649"/>
      <point x="358" y="642" type="curve" smooth="yes"/>
      <point x="358" y="634"/>
      <point x="373" y="628"/>
      <point x="385" y="623" type="curve" smooth="yes"/>
      <point x="408" y="615"/>
      <point x="418" y="577"/>
      <point x="419" y="523" type="curve" smooth="yes"/>
      <point x="420" y="430"/>
      <point x="421" y="327"/>
      <point x="421" y="244" type="curve" smooth="yes"/>
      <point x="421" y="121"/>
      <point x="380" y="39"/>
      <point x="289" y="39" type="curve" smooth="yes"/>
      <point x="207" y="39"/>
      <point x="149" y="96"/>
      <point x="149" y="222" type="curve" smooth="yes"/>
      <point x="149" y="559" type="line" smooth="yes"/>
      <point x="149" y="600"/>
      <point x="165" y="620"/>
      <point x="180" y="625" type="curve" smooth="yes"/>
      <point x="196" y="631"/>
      <point x="204" y="635"/>
      <point x="204" y="643" type="curve" smooth="yes"/>
      <point x="204" y="650"/>
      <point x="195" y="652"/>
      <point x="183" y="652" type="curve" smooth="yes"/>
      <point x="165" y="652"/>
      <point x="142" y="650"/>
      <point x="116" y="650" type="curve" smooth="yes"/>
      <point x="84" y="650"/>
      <point x="60" y="653"/>
      <point x="35" y="653" type="curve" smooth="yes"/>
      <point x="23" y="653"/>
      <point x="15" y="650"/>
      <point x="15" y="643" type="curve" smooth="yes"/>
      <point x="15" y="636"/>
      <point x="22" y="629"/>
      <point x="39" y="624" type="curve" smooth="yes"/>
      <point x="61" y="618"/>
      <point x="72" y="604"/>
      <point x="72" y="555" type="curve" smooth="yes"/>
      <point x="72" y="216" type="line" smooth="yes"/>
      <point x="72" y="78"/>
      <point x="137" y="-14"/>
    </contour>
  </outline>
</glyph>
<glyph name="V" format="1">
  <advance width="485"/>
  <unicode hex="0056"/>
  <outline>
    <contour>
      <point x="229" y="-12" type="curve" smooth="yes"/>
      <point x="232" y="-12"/>
      <point x="236" y="-9"/>
      <point x="238" y="-5" type="curve" smooth="yes"/>
      <point x="247" y="19"/>
      <point x="260" y="67"/>
      <point x="263" y="79" type="curve" smooth="yes"/>
      <point x="408" y="549" type="line" smooth="yes"/>
      <point x="420" y="588"/>
      <point x="434" y="618"/>
      <point x="472" y="627" type="curve" smooth="yes"/>
      <point x="489" y="630"/>
      <point x="496" y="635"/>
      <point x="496" y="643" type="curve" smooth="yes"/>
      <point x="496" y="650"/>
      <point x="488" y="653"/>
      <point x="476" y="653" type="curve" smooth="yes"/>
      <point x="458" y="653"/>
      <point x="420" y="650"/>
      <point x="393" y="650" type="curve" smooth="yes"/>
      <point x="367" y="650"/>
      <point x="339" y="651"/>
      <point x="321" y="651" type="curve" smooth="yes"/>
      <point x="309" y="651"/>
      <point x="301" y="648"/>
      <point x="301" y="642" type="curve" smooth="yes"/>
      <point x="301" y="634"/>
      <point x="309" y="628"/>
      <point x="330" y="625" type="curve" smooth="yes"/>
      <point x="373" y="619"/>
      <point x="385" y="600"/>
      <point x="362" y="521" type="curve" smooth="yes"/>
      <point x="261" y="198" type="line" smooth="yes"/>
      <point x="259" y="189"/>
      <point x="255" y="192"/>
      <point x="253" y="197" type="curve" smooth="yes"/>
      <point x="153" y="539" type="line" smooth="yes"/>
      <point x="151" y="548"/>
      <point x="145" y="565"/>
      <point x="145" y="588" type="curve" smooth="yes"/>
      <point x="145" y="610"/>
      <point x="165" y="623"/>
      <point x="189" y="626" type="curve" smooth="yes"/>
      <point x="208" y="628"/>
      <point x="216" y="635"/>
      <point x="216" y="643" type="curve" smooth="yes"/>
      <point x="216" y="649"/>
      <point x="207" y="652"/>
      <point x="195" y="652" type="curve" smooth="yes"/>
      <point x="180" y="652"/>
      <point x="137" y="650"/>
      <point x="108" y="650" type="curve" smooth="yes"/>
      <point x="75" y="650"/>
      <point x="43" y="653"/>
      <point x="21" y="653" type="curve" smooth="yes"/>
      <point x="8" y="653"/>
      <point x="0" y="650"/>
      <point x="0" y="644" type="curve" smooth="yes"/>
      <point x="0" y="636"/>
      <point x="8" y="631"/>
      <point x="23" y="626" type="curve" smooth="yes"/>
      <point x="46" y="618"/>
      <point x="59" y="588"/>
      <point x="68" y="552" type="curve" smooth="yes"/>
      <point x="200" y="58" type="line" smooth="yes"/>
      <point x="205" y="40"/>
      <point x="215" y="9"/>
      <point x="219" y="-5" type="curve" smooth="yes"/>
      <point x="221" y="-10"/>
      <point x="226" y="-12"/>
    </contour>
  </outline>
</glyph>
<glyph name="W" format="1">
  <advance width="713"/>
  <unicode hex="0057"/>
  <outline>
    <contour>
      <point x="257" y="-15" type="curve" smooth="yes"/>
      <point x="266" y="-15"/>
      <point x="276" y="0"/>
      <point x="281" y="16" type="curve" smooth="yes"/>
      <point x="312" y="131"/>
      <point x="336" y="187"/>
      <point x="366" y="300" type="curve" smooth="yes"/>
      <point x="370" y="313"/>
      <point x="371" y="315"/>
      <point x="374" y="306" type="curve"/>
      <point x="408" y="190"/>
      <point x="424" y="126"/>
      <point x="459" y="10" type="curve" smooth="yes"/>
      <point x="463" y="-2"/>
      <point x="478" y="-11"/>
      <point x="484" y="-11" type="curve" smooth="yes"/>
      <point x="494" y="-11"/>
      <point x="507" y="2"/>
      <point x="510" y="14" type="curve" smooth="yes"/>
      <point x="644" y="549" type="line" smooth="yes"/>
      <point x="653" y="582"/>
      <point x="668" y="617"/>
      <point x="699" y="626" type="curve" smooth="yes"/>
      <point x="715" y="630"/>
      <point x="721" y="635"/>
      <point x="721" y="642" type="curve" smooth="yes"/>
      <point x="721" y="649"/>
      <point x="713" y="652"/>
      <point x="700" y="652" type="curve" smooth="yes"/>
      <point x="680" y="652"/>
      <point x="661" y="649"/>
      <point x="635" y="649" type="curve" smooth="yes"/>
      <point x="617" y="649"/>
      <point x="604" y="650"/>
      <point x="585" y="650" type="curve" smooth="yes"/>
      <point x="574" y="650"/>
      <point x="567" y="647"/>
      <point x="567" y="641" type="curve" smooth="yes"/>
      <point x="567" y="633"/>
      <point x="578" y="627"/>
      <point x="586" y="624" type="curve" smooth="yes"/>
      <point x="606" y="619"/>
      <point x="611" y="607"/>
      <point x="612" y="585" type="curve" smooth="yes"/>
      <point x="612" y="577"/>
      <point x="611" y="564"/>
      <point x="609" y="553" type="curve" smooth="yes"/>
      <point x="571" y="376"/>
      <point x="532" y="248"/>
      <point x="510" y="159" type="curve"/>
      <point x="507" y="150"/>
      <point x="504" y="146"/>
      <point x="502" y="153" type="curve" smooth="yes"/>
      <point x="428" y="392" type="line" smooth="yes"/>
      <point x="426" y="399"/>
      <point x="430" y="420"/>
      <point x="433" y="430" type="curve" smooth="yes"/>
      <point x="445" y="472"/>
      <point x="468" y="553"/>
      <point x="475" y="571" type="curve" smooth="yes"/>
      <point x="489" y="606"/>
      <point x="493" y="618"/>
      <point x="523" y="625" type="curve" smooth="yes"/>
      <point x="539" y="629"/>
      <point x="546" y="634"/>
      <point x="546" y="642" type="curve" smooth="yes"/>
      <point x="546" y="649"/>
      <point x="537" y="652"/>
      <point x="525" y="652" type="curve" smooth="yes"/>
      <point x="507" y="652"/>
      <point x="496" y="648"/>
      <point x="480" y="648" type="curve" smooth="yes"/>
      <point x="465" y="648"/>
      <point x="458" y="650"/>
      <point x="438" y="650" type="curve" smooth="yes"/>
      <point x="425" y="650"/>
      <point x="416" y="649"/>
      <point x="416" y="640" type="curve" smooth="yes"/>
      <point x="416" y="625"/>
      <point x="449" y="627"/>
      <point x="449" y="602" type="curve" smooth="yes"/>
      <point x="449" y="599"/>
      <point x="448" y="594"/>
      <point x="447" y="590" type="curve" smooth="yes"/>
      <point x="443" y="573"/>
      <point x="425" y="516"/>
      <point x="416" y="480" type="curve" smooth="yes"/>
      <point x="411" y="462"/>
      <point x="409" y="464"/>
      <point x="404" y="479" type="curve" smooth="yes"/>
      <point x="397" y="498"/>
      <point x="374" y="570"/>
      <point x="367" y="597" type="curve" smooth="yes"/>
      <point x="367" y="600"/>
      <point x="366" y="603"/>
      <point x="366" y="606" type="curve" smooth="yes"/>
      <point x="366" y="628"/>
      <point x="398" y="628"/>
      <point x="398" y="641" type="curve" smooth="yes"/>
      <point x="398" y="648"/>
      <point x="388" y="651"/>
      <point x="374" y="651" type="curve" smooth="yes"/>
      <point x="361" y="651"/>
      <point x="338" y="649"/>
      <point x="313" y="649" type="curve" smooth="yes"/>
      <point x="283" y="649"/>
      <point x="261" y="652"/>
      <point x="232" y="652" type="curve" smooth="yes"/>
      <point x="221" y="652"/>
      <point x="213" y="649"/>
      <point x="213" y="642" type="curve" smooth="yes"/>
      <point x="213" y="634"/>
      <point x="221" y="628"/>
      <point x="236" y="623" type="curve" smooth="yes"/>
      <point x="269" y="617"/>
      <point x="288" y="595"/>
      <point x="298" y="560" type="curve" smooth="yes"/>
      <point x="347" y="401" type="line" smooth="yes"/>
      <point x="351" y="388"/>
      <point x="353" y="380"/>
      <point x="353" y="372" type="curve" smooth="yes"/>
      <point x="353" y="366"/>
      <point x="352" y="359"/>
      <point x="349" y="349" type="curve" smooth="yes"/>
      <point x="291" y="150" type="line" smooth="yes"/>
      <point x="288" y="139"/>
      <point x="285" y="136"/>
      <point x="280" y="151" type="curve" smooth="yes"/>
      <point x="230" y="304"/>
      <point x="205" y="384"/>
      <point x="155" y="558" type="curve" smooth="yes"/>
      <point x="152" y="564"/>
      <point x="148" y="582"/>
      <point x="148" y="597" type="curve" smooth="yes"/>
      <point x="148" y="609"/>
      <point x="151" y="620"/>
      <point x="164" y="623" type="curve"/>
      <point x="184" y="628"/>
      <point x="193" y="632"/>
      <point x="193" y="641" type="curve" smooth="yes"/>
      <point x="193" y="648"/>
      <point x="184" y="651"/>
      <point x="172" y="651" type="curve" smooth="yes"/>
      <point x="156" y="651"/>
      <point x="126" y="649"/>
      <point x="95" y="649" type="curve" smooth="yes"/>
      <point x="67" y="649"/>
      <point x="46" y="652"/>
      <point x="18" y="652" type="curve" smooth="yes"/>
      <point x="7" y="652"/>
      <point x="0" y="649"/>
      <point x="0" y="642" type="curve" smooth="yes"/>
      <point x="0" y="634"/>
      <point x="7" y="629"/>
      <point x="23" y="623" type="curve" smooth="yes"/>
      <point x="43" y="616"/>
      <point x="59" y="602"/>
      <point x="68" y="574" type="curve"/>
      <point x="233" y="13" type="line" smooth="yes"/>
      <point x="238" y="-3"/>
      <point x="248" y="-15"/>
    </contour>
  </outline>
</glyph>
<glyph name="X" format="1">
  <advance width="532"/>
  <unicode hex="0058"/>
  <outline>
    <contour>
      <point x="17" y="-5" type="curve" smooth="yes"/>
      <point x="41" y="-5"/>
      <point x="81" y="1"/>
      <point x="114" y="1" type="curve" smooth="yes"/>
      <point x="139" y="1"/>
      <point x="171" y="-1"/>
      <point x="184" y="-1" type="curve" smooth="yes"/>
      <point x="196" y="-1"/>
      <point x="205" y="2"/>
      <point x="205" y="10" type="curve" smooth="yes"/>
      <point x="205" y="17"/>
      <point x="198" y="21"/>
      <point x="182" y="27" type="curve" smooth="yes"/>
      <point x="154" y="33"/>
      <point x="138" y="43"/>
      <point x="138" y="60" type="curve" smooth="yes"/>
      <point x="138" y="68"/>
      <point x="142" y="78"/>
      <point x="149" y="90" type="curve" smooth="yes"/>
      <point x="247" y="260" type="line" smooth="yes"/>
      <point x="252" y="270"/>
      <point x="257" y="269"/>
      <point x="264" y="255" type="curve" smooth="yes"/>
      <point x="342" y="108" type="line"/>
      <point x="349" y="95"/>
      <point x="351" y="85"/>
      <point x="351" y="75" type="curve" smooth="yes"/>
      <point x="351" y="50"/>
      <point x="338" y="34"/>
      <point x="316" y="28" type="curve" smooth="yes"/>
      <point x="306" y="24"/>
      <point x="291" y="19"/>
      <point x="291" y="11" type="curve" smooth="yes"/>
      <point x="291" y="4"/>
      <point x="300" y="1"/>
      <point x="314" y="1" type="curve" smooth="yes"/>
      <point x="332" y="1"/>
      <point x="362" y="2"/>
      <point x="393" y="2" type="curve" smooth="yes"/>
      <point x="430" y="2"/>
      <point x="482" y="-4"/>
      <point x="504" y="-4" type="curve" smooth="yes"/>
      <point x="517" y="-4"/>
      <point x="526" y="-2"/>
      <point x="526" y="5" type="curve" smooth="yes"/>
      <point x="526" y="13"/>
      <point x="519" y="18"/>
      <point x="501" y="23" type="curve" smooth="yes"/>
      <point x="479" y="30"/>
      <point x="449" y="64"/>
      <point x="427" y="107" type="curve" smooth="yes"/>
      <point x="313" y="329" type="line"/>
      <point x="308" y="344"/>
      <point x="311" y="348"/>
      <point x="322" y="369" type="curve" smooth="yes"/>
      <point x="406" y="525" type="line" smooth="yes"/>
      <point x="438" y="582"/>
      <point x="470" y="619"/>
      <point x="500" y="627" type="curve" smooth="yes"/>
      <point x="518" y="632"/>
      <point x="525" y="636"/>
      <point x="525" y="644" type="curve" smooth="yes"/>
      <point x="525" y="651"/>
      <point x="516" y="655"/>
      <point x="503" y="655" type="curve" smooth="yes"/>
      <point x="482" y="655"/>
      <point x="444" y="650"/>
      <point x="414" y="650" type="curve" smooth="yes"/>
      <point x="390" y="650"/>
      <point x="366" y="651"/>
      <point x="349" y="651" type="curve" smooth="yes"/>
      <point x="335" y="651"/>
      <point x="327" y="648"/>
      <point x="327" y="641" type="curve" smooth="yes"/>
      <point x="327" y="632"/>
      <point x="339" y="625"/>
      <point x="350" y="623" type="curve" smooth="yes"/>
      <point x="379" y="620"/>
      <point x="392" y="607"/>
      <point x="392" y="592" type="curve" smooth="yes"/>
      <point x="392" y="580"/>
      <point x="385" y="563"/>
      <point x="376" y="544" type="curve" smooth="yes"/>
      <point x="299" y="397" type="line" smooth="yes"/>
      <point x="292" y="382"/>
      <point x="289" y="379"/>
      <point x="278" y="400" type="curve" smooth="yes"/>
      <point x="201" y="537" type="line"/>
      <point x="186" y="566"/>
      <point x="179" y="583"/>
      <point x="179" y="595" type="curve" smooth="yes"/>
      <point x="179" y="612"/>
      <point x="196" y="618"/>
      <point x="219" y="626" type="curve" smooth="yes"/>
      <point x="235" y="631"/>
      <point x="243" y="634"/>
      <point x="243" y="642" type="curve" smooth="yes"/>
      <point x="243" y="649"/>
      <point x="234" y="653"/>
      <point x="221" y="653" type="curve" smooth="yes"/>
      <point x="207" y="653"/>
      <point x="177" y="651"/>
      <point x="145" y="651" type="curve" smooth="yes"/>
      <point x="107" y="651"/>
      <point x="60" y="655"/>
      <point x="35" y="655" type="curve" smooth="yes"/>
      <point x="22" y="655"/>
      <point x="13" y="653"/>
      <point x="13" y="646" type="curve" smooth="yes"/>
      <point x="13" y="638"/>
      <point x="21" y="632"/>
      <point x="38" y="627" type="curve" smooth="yes"/>
      <point x="60" y="618"/>
      <point x="82" y="601"/>
      <point x="117" y="535" type="curve" smooth="yes"/>
      <point x="223" y="342" type="line" smooth="yes"/>
      <point x="238" y="315"/>
      <point x="230" y="300"/>
      <point x="220" y="280" type="curve"/>
      <point x="125" y="120" type="line" smooth="yes"/>
      <point x="94" y="68"/>
      <point x="44" y="34"/>
      <point x="24" y="26" type="curve" smooth="yes"/>
      <point x="3" y="19"/>
      <point x="-4" y="14"/>
      <point x="-4" y="6" type="curve" smooth="yes"/>
      <point x="-4" y="-1"/>
      <point x="5" y="-5"/>
    </contour>
  </outline>
</glyph>
<glyph name="Y" format="1">
  <advance width="440"/>
  <unicode hex="0059"/>
  <outline>
    <contour>
      <point x="137" y="-5" type="curve" smooth="yes"/>
      <point x="178" y="-5"/>
      <point x="197" y="-1"/>
      <point x="234" y="-1" type="curve" smooth="yes"/>
      <point x="269" y="-1"/>
      <point x="282" y="-5"/>
      <point x="323" y="-5" type="curve" smooth="yes"/>
      <point x="336" y="-5"/>
      <point x="345" y="-2"/>
      <point x="345" y="5" type="curve" smooth="yes"/>
      <point x="345" y="12"/>
      <point x="338" y="17"/>
      <point x="322" y="20" type="curve" smooth="yes"/>
      <point x="287" y="26"/>
      <point x="267" y="49"/>
      <point x="267" y="88" type="curve" smooth="yes"/>
      <point x="267" y="263" type="line" smooth="yes"/>
      <point x="267" y="302"/>
      <point x="266" y="310"/>
      <point x="284" y="353" type="curve" smooth="yes"/>
      <point x="317" y="428"/>
      <point x="329" y="454"/>
      <point x="367" y="537" type="curve" smooth="yes"/>
      <point x="391" y="591"/>
      <point x="405" y="615"/>
      <point x="429" y="622" type="curve" smooth="yes"/>
      <point x="449" y="629"/>
      <point x="468" y="635"/>
      <point x="468" y="642" type="curve" smooth="yes"/>
      <point x="468" y="650"/>
      <point x="459" y="653"/>
      <point x="446" y="653" type="curve" smooth="yes"/>
      <point x="428" y="653"/>
      <point x="397" y="651"/>
      <point x="366" y="651" type="curve" smooth="yes"/>
      <point x="343" y="651"/>
      <point x="327" y="651"/>
      <point x="304" y="651" type="curve" smooth="yes"/>
      <point x="291" y="651"/>
      <point x="282" y="649"/>
      <point x="282" y="642" type="curve" smooth="yes"/>
      <point x="282" y="634"/>
      <point x="296" y="626"/>
      <point x="306" y="625" type="curve" smooth="yes"/>
      <point x="329" y="622"/>
      <point x="343" y="613"/>
      <point x="343" y="589" type="curve" smooth="yes"/>
      <point x="343" y="578"/>
      <point x="340" y="563"/>
      <point x="332" y="545" type="curve" smooth="yes"/>
      <point x="310" y="495"/>
      <point x="287" y="439"/>
      <point x="269" y="403" type="curve" smooth="yes"/>
      <point x="257" y="376"/>
      <point x="252" y="360"/>
      <point x="246" y="360" type="curve" smooth="yes"/>
      <point x="242" y="360"/>
      <point x="236" y="373"/>
      <point x="226" y="398" type="curve" smooth="yes"/>
      <point x="157" y="571" type="line" smooth="yes"/>
      <point x="152" y="585"/>
      <point x="148" y="596"/>
      <point x="148" y="604" type="curve" smooth="yes"/>
      <point x="148" y="617"/>
      <point x="160" y="621"/>
      <point x="178" y="625" type="curve" smooth="yes"/>
      <point x="194" y="629"/>
      <point x="202" y="634"/>
      <point x="202" y="642" type="curve" smooth="yes"/>
      <point x="202" y="649"/>
      <point x="192" y="652"/>
      <point x="178" y="652" type="curve" smooth="yes"/>
      <point x="162" y="652"/>
      <point x="140" y="650"/>
      <point x="115" y="650" type="curve" smooth="yes"/>
      <point x="79" y="650"/>
      <point x="47" y="652"/>
      <point x="23" y="652" type="curve" smooth="yes"/>
      <point x="10" y="652"/>
      <point x="0" y="650"/>
      <point x="0" y="643" type="curve" smooth="yes"/>
      <point x="0" y="635"/>
      <point x="8" y="632"/>
      <point x="25" y="624" type="curve" smooth="yes"/>
      <point x="46" y="615"/>
      <point x="66" y="567"/>
      <point x="76" y="544" type="curve" smooth="yes"/>
      <point x="173" y="331" type="line"/>
      <point x="179" y="315"/>
      <point x="189" y="284"/>
      <point x="189" y="258" type="curve" smooth="yes"/>
      <point x="189" y="88" type="line" smooth="yes"/>
      <point x="189" y="47"/>
      <point x="171" y="26"/>
      <point x="137" y="20" type="curve" smooth="yes"/>
      <point x="122" y="17"/>
      <point x="115" y="12"/>
      <point x="115" y="5" type="curve" smooth="yes"/>
      <point x="115" y="-2"/>
      <point x="124" y="-5"/>
    </contour>
  </outline>
</glyph>
<glyph name="Z" format="1">
  <advance width="433"/>
  <unicode hex="005A"/>
  <outline>
    <contour>
      <point x="384" y="-5" type="curve" smooth="yes"/>
      <point x="391" y="-5"/>
      <point x="394" y="4"/>
      <point x="397" y="12" type="curve" smooth="yes"/>
      <point x="405" y="36"/>
      <point x="423" y="136"/>
      <point x="423" y="153" type="curve" smooth="yes"/>
      <point x="423" y="163"/>
      <point x="419" y="168"/>
      <point x="412" y="168" type="curve" smooth="yes"/>
      <point x="401" y="168"/>
      <point x="394" y="153"/>
      <point x="391" y="142" type="curve" smooth="yes"/>
      <point x="372" y="72"/>
      <point x="348" y="40"/>
      <point x="308" y="36" type="curve" smooth="yes"/>
      <point x="276" y="32"/>
      <point x="244" y="31"/>
      <point x="213" y="31" type="curve" smooth="yes"/>
      <point x="183" y="31"/>
      <point x="156" y="33"/>
      <point x="140" y="36" type="curve"/>
      <point x="132" y="37"/>
      <point x="130" y="45"/>
      <point x="130" y="53" type="curve" smooth="yes"/>
      <point x="130" y="57"/>
      <point x="131" y="62"/>
      <point x="132" y="65" type="curve" smooth="yes"/>
      <point x="219" y="255"/>
      <point x="274" y="365"/>
      <point x="369" y="550" type="curve" smooth="yes"/>
      <point x="411" y="631" type="line" smooth="yes"/>
      <point x="414" y="636"/>
      <point x="408" y="649"/>
      <point x="403" y="649" type="curve" smooth="yes"/>
      <point x="349" y="647"/>
      <point x="295" y="646"/>
      <point x="235" y="646" type="curve" smooth="yes"/>
      <point x="202" y="646"/>
      <point x="167" y="646"/>
      <point x="143" y="646" type="curve" smooth="yes"/>
      <point x="118" y="646"/>
      <point x="90" y="656"/>
      <point x="81" y="662" type="curve" smooth="yes"/>
      <point x="73" y="667"/>
      <point x="62" y="676"/>
      <point x="58" y="676" type="curve" smooth="yes"/>
      <point x="55" y="676"/>
      <point x="48" y="674"/>
      <point x="47" y="659" type="curve" smooth="yes"/>
      <point x="45" y="617"/>
      <point x="33" y="563"/>
      <point x="29" y="543" type="curve"/>
      <point x="27" y="534"/>
      <point x="24" y="521"/>
      <point x="24" y="512" type="curve" smooth="yes"/>
      <point x="25" y="505"/>
      <point x="30" y="500"/>
      <point x="35" y="501" type="curve" smooth="yes"/>
      <point x="49" y="502"/>
      <point x="56" y="525"/>
      <point x="60" y="538" type="curve" smooth="yes"/>
      <point x="71" y="583"/>
      <point x="90" y="605"/>
      <point x="124" y="610" type="curve" smooth="yes"/>
      <point x="139" y="614"/>
      <point x="166" y="615"/>
      <point x="190" y="615" type="curve" smooth="yes"/>
      <point x="224" y="615"/>
      <point x="267" y="614"/>
      <point x="290" y="613" type="curve"/>
      <point x="299" y="612"/>
      <point x="302" y="610"/>
      <point x="302" y="607" type="curve" smooth="yes"/>
      <point x="303" y="605"/>
      <point x="302" y="603"/>
      <point x="301" y="601" type="curve" smooth="yes"/>
      <point x="213" y="408"/>
      <point x="150" y="291"/>
      <point x="57" y="104" type="curve" smooth="yes"/>
      <point x="41" y="73"/>
      <point x="17" y="21"/>
      <point x="17" y="11" type="curve"/>
      <point x="17" y="11"/>
      <point x="17" y="-3"/>
      <point x="22" y="-3" type="curve" smooth="yes"/>
      <point x="78" y="-3" type="line" smooth="yes"/>
      <point x="106" y="-3"/>
      <point x="135" y="-2"/>
      <point x="164" y="-2" type="curve" smooth="yes"/>
      <point x="229" y="-2"/>
      <point x="301" y="-5"/>
    </contour>
  </outline>
</glyph>
<glyph name="bracketleft" format="1">
  <advance width="263"/>
  <unicode hex="005B"/>
  <outline>
    <contour>
      <point x="115" y="-200" type="curve" smooth="yes"/>
      <point x="222" y="-200" type="line" smooth="yes"/>
      <point x="234" y="-200"/>
      <point x="248" y="-197"/>
      <point x="248" y="-186" type="curve" smooth="yes"/>
      <point x="248" y="-176"/>
      <point x="234" y="-171"/>
      <point x="220" y="-171" type="curve" smooth="yes"/>
      <point x="174" y="-169" type="line" smooth="yes"/>
      <point x="160" y="-168"/>
      <point x="149" y="-157"/>
      <point x="149" y="-129" type="curve" smooth="yes"/>
      <point x="149" y="638" type="line" smooth="yes"/>
      <point x="149" y="665"/>
      <point x="158" y="672"/>
      <point x="174" y="673" type="curve" smooth="yes"/>
      <point x="220" y="675" type="line" smooth="yes"/>
      <point x="235" y="675"/>
      <point x="248" y="679"/>
      <point x="248" y="689" type="curve" smooth="yes"/>
      <point x="248" y="698"/>
      <point x="238" y="701"/>
      <point x="229" y="701" type="curve" smooth="yes"/>
      <point x="121" y="702" type="line" smooth="yes"/>
      <point x="89" y="702"/>
      <point x="83" y="702"/>
      <point x="83" y="668" type="curve" smooth="yes"/>
      <point x="83" y="-174" type="line" smooth="yes"/>
      <point x="83" y="-199"/>
      <point x="91" y="-200"/>
    </contour>
  </outline>
</glyph>
<glyph name="asciicircum" format="1">
  <advance width="389"/>
  <unicode hex="005E"/>
  <outline>
    <contour>
      <point x="41" y="284" type="curve" smooth="yes"/>
      <point x="48" y="284"/>
      <point x="65" y="289"/>
      <point x="69" y="299" type="curve" smooth="yes"/>
      <point x="191" y="535" type="line"/>
      <point x="193" y="540"/>
      <point x="194" y="540"/>
      <point x="196" y="535" type="curve"/>
      <point x="323" y="299" type="line" smooth="yes"/>
      <point x="327" y="291"/>
      <point x="340" y="284"/>
      <point x="349" y="284" type="curve" smooth="yes"/>
      <point x="355" y="284"/>
      <point x="357" y="295"/>
      <point x="353" y="301" type="curve"/>
      <point x="198" y="614" type="line"/>
      <point x="191" y="614" type="line"/>
      <point x="37" y="301" type="line"/>
      <point x="36" y="299"/>
      <point x="35" y="295"/>
      <point x="35" y="292" type="curve" smooth="yes"/>
      <point x="35" y="288"/>
      <point x="38" y="284"/>
    </contour>
  </outline>
</glyph>
<glyph name="underscore" format="1">
  <advance width="364"/>
  <unicode hex="005F"/>
  <outline>
    <contour>
      <point x="11" y="-177" type="curve" smooth="yes"/>
      <point x="339" y="-177" type="line" smooth="yes"/>
      <point x="352" y="-177"/>
      <point x="364" y="-158"/>
      <point x="364" y="-147" type="curve" smooth="yes"/>
      <point x="364" y="-142"/>
      <point x="358" y="-138"/>
      <point x="354" y="-138" type="curve" smooth="yes"/>
      <point x="19" y="-138" type="line" smooth="yes"/>
      <point x="5" y="-138"/>
      <point x="0" y="-161"/>
      <point x="0" y="-167" type="curve" smooth="yes"/>
      <point x="0" y="-172"/>
      <point x="6" y="-177"/>
    </contour>
  </outline>
</glyph>
<glyph name="grave" format="1">
  <advance width="158"/>
  <unicode hex="0060"/>
  <outline>
    <contour>
      <point x="133" y="444" type="curve" smooth="yes"/>
      <point x="139" y="443"/>
      <point x="141" y="444"/>
      <point x="141" y="453" type="curve" smooth="yes"/>
      <point x="141" y="457"/>
      <point x="140" y="465"/>
      <point x="138" y="474" type="curve" smooth="yes"/>
      <point x="130" y="512"/>
      <point x="102" y="594"/>
      <point x="89" y="624" type="curve" smooth="yes"/>
      <point x="83" y="636"/>
      <point x="73" y="651"/>
      <point x="63" y="651" type="curve" smooth="yes"/>
      <point x="39" y="651"/>
      <point x="18" y="648"/>
      <point x="17" y="634" type="curve" smooth="yes"/>
      <point x="15" y="627"/>
      <point x="19" y="621"/>
      <point x="24" y="612" type="curve" smooth="yes"/>
      <point x="43" y="571"/>
      <point x="84" y="501"/>
      <point x="108" y="469" type="curve" smooth="yes"/>
      <point x="117" y="455"/>
      <point x="127" y="445"/>
    </contour>
  </outline>
</glyph>
<glyph name="a" format="1">
  <advance width="229"/>
  <unicode hex="0061"/>
  <outline>
    <contour>
      <point x="129" y="44" type="curve"/>
      <point x="131" y="44" type="line"/>
      <point x="140" y="5"/>
      <point x="159" y="-14"/>
      <point x="180" y="-14" type="curve" smooth="yes"/>
      <point x="191" y="-14"/>
      <point x="212" y="3"/>
      <point x="224" y="25" type="curve" smooth="yes"/>
      <point x="226" y="31"/>
      <point x="229" y="40"/>
      <point x="229" y="45" type="curve" smooth="yes"/>
      <point x="229" y="50"/>
      <point x="227" y="54"/>
      <point x="223" y="54" type="curve" smooth="yes"/>
      <point x="222" y="54"/>
      <point x="221" y="53"/>
      <point x="218" y="48" type="curve" smooth="yes"/>
      <point x="214" y="39"/>
      <point x="207" y="36"/>
      <point x="197" y="36" type="curve" smooth="yes"/>
      <point x="185" y="36"/>
      <point x="178" y="54"/>
      <point x="178" y="83" type="curve" smooth="yes"/>
      <point x="181" y="324" type="line" smooth="yes"/>
      <point x="182" y="374"/>
      <point x="162" y="414"/>
      <point x="136" y="414" type="curve" smooth="yes"/>
      <point x="113" y="414"/>
      <point x="78" y="382"/>
      <point x="53" y="342" type="curve" smooth="yes"/>
      <point x="39" y="320"/>
      <point x="32" y="294"/>
      <point x="32" y="273" type="curve" smooth="yes"/>
      <point x="32" y="268"/>
      <point x="33" y="264"/>
      <point x="36" y="264" type="curve" smooth="yes"/>
      <point x="45" y="264"/>
      <point x="69" y="283"/>
      <point x="75" y="299" type="curve" smooth="yes"/>
      <point x="77" y="304"/>
      <point x="75" y="312"/>
      <point x="75" y="317" type="curve" smooth="yes"/>
      <point x="75" y="332"/>
      <point x="76" y="344"/>
      <point x="79" y="351" type="curve" smooth="yes"/>
      <point x="84" y="361"/>
      <point x="93" y="368"/>
      <point x="103" y="368" type="curve" smooth="yes"/>
      <point x="119" y="368"/>
      <point x="129" y="339"/>
      <point x="128" y="302" type="curve" smooth="yes"/>
      <point x="127" y="237" type="line" smooth="yes"/>
      <point x="127" y="210"/>
      <point x="127" y="208"/>
      <point x="112" y="197" type="curve" smooth="yes"/>
      <point x="58" y="155" type="line" smooth="yes"/>
      <point x="33" y="136"/>
      <point x="21" y="115"/>
      <point x="21" y="73" type="curve" smooth="yes"/>
      <point x="21" y="33"/>
      <point x="43" y="-14"/>
      <point x="63" y="-14" type="curve" smooth="yes"/>
      <point x="86" y="-14"/>
      <point x="109" y="6"/>
    </contour>
    <contour>
      <point x="69" y="88" type="curve" smooth="yes"/>
      <point x="69" y="113"/>
      <point x="79" y="142"/>
      <point x="113" y="169" type="curve" smooth="yes"/>
      <point x="119" y="174"/>
      <point x="121" y="174"/>
      <point x="123" y="174" type="curve" smooth="yes"/>
      <point x="127" y="174"/>
      <point x="128" y="168"/>
      <point x="127" y="153" type="curve" smooth="yes"/>
      <point x="126" y="99" type="line" smooth="yes"/>
      <point x="125" y="73"/>
      <point x="124" y="63"/>
      <point x="120" y="56" type="curve" smooth="yes"/>
      <point x="113" y="41"/>
      <point x="104" y="31"/>
      <point x="92" y="31" type="curve" smooth="yes"/>
      <point x="81" y="31"/>
      <point x="69" y="51"/>
    </contour>
  </outline>
</glyph>
<glyph name="b" format="1">
  <advance width="394"/>
  <unicode hex="0062"/>
  <outline>
    <contour>
      <point x="204" y="-14" type="curve" smooth="yes"/>
      <point x="301" y="-14"/>
      <point x="369" y="80"/>
      <point x="369" y="217" type="curve" smooth="yes"/>
      <point x="369" y="328"/>
      <point x="310" y="414"/>
      <point x="235" y="414" type="curve" smooth="yes"/>
      <point x="202" y="414"/>
      <point x="157" y="389"/>
      <point x="126" y="355" type="curve"/>
      <point x="119" y="356"/>
      <point x="118" y="362"/>
      <point x="118" y="388" type="curve" smooth="yes"/>
      <point x="118" y="593" type="line" smooth="yes"/>
      <point x="118" y="649"/>
      <point x="121" y="692"/>
      <point x="121" y="697" type="curve" smooth="yes"/>
      <point x="121" y="702"/>
      <point x="118" y="705"/>
      <point x="116" y="705" type="curve" smooth="yes"/>
      <point x="112" y="705"/>
      <point x="108" y="703"/>
      <point x="102" y="699" type="curve" smooth="yes"/>
      <point x="90" y="690"/>
      <point x="43" y="673"/>
      <point x="19" y="667" type="curve" smooth="yes"/>
      <point x="14" y="666"/>
      <point x="10" y="664"/>
      <point x="10" y="658" type="curve" smooth="yes"/>
      <point x="10" y="652"/>
      <point x="14" y="648"/>
      <point x="19" y="646" type="curve" smooth="yes"/>
      <point x="43" y="635"/>
      <point x="51" y="621"/>
      <point x="51" y="584" type="curve" smooth="yes"/>
      <point x="51" y="81" type="line" smooth="yes"/>
      <point x="51" y="56"/>
      <point x="44" y="21"/>
      <point x="44" y="9" type="curve" smooth="yes"/>
      <point x="44" y="2"/>
      <point x="50" y="-3"/>
      <point x="54" y="-3" type="curve" smooth="yes"/>
      <point x="57" y="-3"/>
      <point x="59" y="-1"/>
      <point x="61" y="2" type="curve" smooth="yes"/>
      <point x="65" y="8"/>
      <point x="71" y="15"/>
      <point x="80" y="15" type="curve" smooth="yes"/>
      <point x="88" y="15"/>
      <point x="116" y="7"/>
      <point x="139" y="-1" type="curve" smooth="yes"/>
      <point x="159" y="-8"/>
      <point x="182" y="-14"/>
    </contour>
    <contour>
      <point x="211" y="13" type="curve" smooth="yes"/>
      <point x="161" y="13"/>
      <point x="118" y="55"/>
      <point x="118" y="126" type="curve" smooth="yes"/>
      <point x="118" y="319" type="line"/>
      <point x="138" y="346"/>
      <point x="165" y="364"/>
      <point x="200" y="364" type="curve" smooth="yes"/>
      <point x="265" y="364"/>
      <point x="294" y="265"/>
      <point x="294" y="189" type="curve" smooth="yes"/>
      <point x="294" y="89"/>
      <point x="262" y="13"/>
    </contour>
  </outline>
</glyph>
<glyph name="c" format="1">
  <advance width="309"/>
  <unicode hex="0063"/>
  <outline>
    <contour>
      <point x="158" y="-14" type="curve" smooth="yes"/>
      <point x="204" y="-14"/>
      <point x="242" y="8"/>
      <point x="266" y="50" type="curve" smooth="yes"/>
      <point x="273" y="63"/>
      <point x="278" y="77"/>
      <point x="278" y="86" type="curve" smooth="yes"/>
      <point x="278" y="93"/>
      <point x="277" y="97"/>
      <point x="273" y="97" type="curve" smooth="yes"/>
      <point x="270" y="97"/>
      <point x="267" y="95"/>
      <point x="265" y="92" type="curve" smooth="yes"/>
      <point x="242" y="58"/>
      <point x="225" y="46"/>
      <point x="197" y="46" type="curve" smooth="yes"/>
      <point x="137" y="46"/>
      <point x="92" y="119"/>
      <point x="92" y="211" type="curve" smooth="yes"/>
      <point x="92" y="313"/>
      <point x="123" y="382"/>
      <point x="168" y="382" type="curve" smooth="yes"/>
      <point x="185" y="382"/>
      <point x="212" y="356"/>
      <point x="231" y="328" type="curve" smooth="yes"/>
      <point x="237" y="320"/>
      <point x="242" y="316"/>
      <point x="248" y="316" type="curve" smooth="yes"/>
      <point x="262" y="316"/>
      <point x="284" y="337"/>
      <point x="284" y="355" type="curve" smooth="yes"/>
      <point x="284" y="367"/>
      <point x="277" y="377"/>
      <point x="268" y="386" type="curve" smooth="yes"/>
      <point x="246" y="403"/>
      <point x="218" y="414"/>
      <point x="190" y="414" type="curve" smooth="yes"/>
      <point x="98" y="414"/>
      <point x="25" y="315"/>
      <point x="25" y="180" type="curve" smooth="yes"/>
      <point x="25" y="69"/>
      <point x="82" y="-14"/>
    </contour>
  </outline>
</glyph>
<glyph name="d" format="1">
  <advance width="396"/>
  <unicode hex="0064"/>
  <outline>
    <contour>
      <point x="270" y="-19" type="curve" smooth="yes"/>
      <point x="274" y="-19"/>
      <point x="274" y="-19"/>
      <point x="284" y="-13" type="curve" smooth="yes"/>
      <point x="325" y="7"/>
      <point x="353" y="16"/>
      <point x="380" y="20" type="curve" smooth="yes"/>
      <point x="389" y="21"/>
      <point x="394" y="28"/>
      <point x="394" y="37" type="curve" smooth="yes"/>
      <point x="394" y="44"/>
      <point x="390" y="46"/>
      <point x="380" y="45" type="curve" smooth="yes"/>
      <point x="368" y="44"/>
      <point x="356" y="43"/>
      <point x="350" y="43" type="curve" smooth="yes"/>
      <point x="339" y="43"/>
      <point x="335" y="61"/>
      <point x="335" y="99" type="curve" smooth="yes"/>
      <point x="335" y="562" type="line" smooth="yes"/>
      <point x="335" y="652"/>
      <point x="340" y="686"/>
      <point x="340" y="698" type="curve" smooth="yes"/>
      <point x="339" y="702"/>
      <point x="338" y="704"/>
      <point x="335" y="704" type="curve" smooth="yes"/>
      <point x="333" y="704"/>
      <point x="329" y="703"/>
      <point x="324" y="701" type="curve" smooth="yes"/>
      <point x="309" y="693"/>
      <point x="283" y="682"/>
      <point x="236" y="669" type="curve" smooth="yes"/>
      <point x="226" y="665"/>
      <point x="224" y="661"/>
      <point x="224" y="657" type="curve" smooth="yes"/>
      <point x="224" y="652"/>
      <point x="227" y="647"/>
      <point x="231" y="646" type="curve" smooth="yes"/>
      <point x="257" y="640"/>
      <point x="267" y="631"/>
      <point x="267" y="585" type="curve" smooth="yes"/>
      <point x="267" y="423" type="line" smooth="yes"/>
      <point x="267" y="405"/>
      <point x="264" y="399"/>
      <point x="262" y="399" type="curve" smooth="yes"/>
      <point x="259" y="399"/>
      <point x="257" y="400"/>
      <point x="252" y="402" type="curve" smooth="yes"/>
      <point x="240" y="408"/>
      <point x="217" y="414"/>
      <point x="196" y="414" type="curve" smooth="yes"/>
      <point x="87" y="414"/>
      <point x="25" y="310"/>
      <point x="25" y="190" type="curve" smooth="yes"/>
      <point x="25" y="76"/>
      <point x="81" y="-14"/>
      <point x="166" y="-14" type="curve" smooth="yes"/>
      <point x="217" y="-14"/>
      <point x="251" y="27"/>
      <point x="266" y="58" type="curve"/>
      <point x="266" y="51" type="line" smooth="yes"/>
      <point x="266" y="34"/>
      <point x="263" y="4"/>
      <point x="263" y="-9" type="curve" smooth="yes"/>
      <point x="263" y="-12"/>
      <point x="268" y="-19"/>
    </contour>
    <contour>
      <point x="201" y="35" type="curve" smooth="yes"/>
      <point x="171" y="35"/>
      <point x="99" y="58"/>
      <point x="99" y="213" type="curve" smooth="yes"/>
      <point x="99" y="349"/>
      <point x="152" y="385"/>
      <point x="183" y="385" type="curve" smooth="yes"/>
      <point x="239" y="385"/>
      <point x="267" y="338"/>
      <point x="267" y="282" type="curve" smooth="yes"/>
      <point x="266" y="83" type="line"/>
      <point x="249" y="54"/>
      <point x="225" y="35"/>
    </contour>
  </outline>
</glyph>
<glyph name="e" format="1">
  <advance width="304"/>
  <unicode hex="0065"/>
  <outline>
    <contour>
      <point x="165" y="-14" type="curve" smooth="yes"/>
      <point x="206" y="-14"/>
      <point x="246" y="11"/>
      <point x="270" y="52" type="curve" smooth="yes"/>
      <point x="279" y="66"/>
      <point x="285" y="80"/>
      <point x="285" y="93" type="curve" smooth="yes"/>
      <point x="285" y="99"/>
      <point x="283" y="102"/>
      <point x="279" y="102" type="curve" smooth="yes"/>
      <point x="276" y="102"/>
      <point x="275" y="101"/>
      <point x="270" y="93" type="curve" smooth="yes"/>
      <point x="252" y="63"/>
      <point x="224" y="47"/>
      <point x="192" y="47" type="curve" smooth="yes"/>
      <point x="133" y="47"/>
      <point x="85" y="124"/>
      <point x="85" y="218" type="curve" smooth="yes"/>
      <point x="85" y="247"/>
      <point x="89" y="254"/>
      <point x="102" y="254" type="curve" smooth="yes"/>
      <point x="259" y="254" type="line" smooth="yes"/>
      <point x="276" y="254"/>
      <point x="283" y="264"/>
      <point x="283" y="286" type="curve" smooth="yes"/>
      <point x="283" y="360"/>
      <point x="238" y="413"/>
      <point x="175" y="413" type="curve" smooth="yes"/>
      <point x="92" y="413"/>
      <point x="23" y="318"/>
      <point x="23" y="203" type="curve" smooth="yes"/>
      <point x="23" y="72"/>
      <point x="80" y="-14"/>
    </contour>
    <contour>
      <point x="104" y="280" type="line" smooth="yes"/>
      <point x="98" y="280"/>
      <point x="96" y="283"/>
      <point x="96" y="291" type="curve" smooth="yes"/>
      <point x="96" y="336"/>
      <point x="132" y="387"/>
      <point x="164" y="387" type="curve" smooth="yes"/>
      <point x="197" y="387"/>
      <point x="224" y="352"/>
      <point x="224" y="310" type="curve" smooth="yes"/>
      <point x="224" y="294"/>
      <point x="222" y="287"/>
      <point x="218" y="286" type="curve" smooth="yes"/>
      <point x="203" y="281"/>
      <point x="189" y="280"/>
      <point x="167" y="280" type="curve" smooth="yes"/>
    </contour>
  </outline>
</glyph>
<glyph name="f" format="1">
  <advance width="241"/>
  <unicode hex="0066"/>
  <outline>
    <contour>
      <point x="33" y="-1" type="curve" smooth="yes"/>
      <point x="61" y="-1"/>
      <point x="78" y="3"/>
      <point x="103" y="3" type="curve" smooth="yes"/>
      <point x="128" y="3"/>
      <point x="156" y="-1"/>
      <point x="185" y="-1" type="curve" smooth="yes"/>
      <point x="193" y="-1"/>
      <point x="199" y="1"/>
      <point x="199" y="7" type="curve" smooth="yes"/>
      <point x="199" y="16"/>
      <point x="192" y="20"/>
      <point x="183" y="22" type="curve" smooth="yes"/>
      <point x="148" y="29"/>
      <point x="134" y="35"/>
      <point x="134" y="62" type="curve" smooth="yes"/>
      <point x="134" y="352" type="line" smooth="yes"/>
      <point x="134" y="357"/>
      <point x="136" y="361"/>
      <point x="148" y="361" type="curve" smooth="yes"/>
      <point x="219" y="361" type="line" smooth="yes"/>
      <point x="223" y="361"/>
      <point x="227" y="363"/>
      <point x="229" y="367" type="curve" smooth="yes"/>
      <point x="232" y="373"/>
      <point x="234" y="385"/>
      <point x="234" y="391" type="curve" smooth="yes"/>
      <point x="234" y="395"/>
      <point x="230" y="400"/>
      <point x="225" y="400" type="curve" smooth="yes"/>
      <point x="141" y="400" type="line" smooth="yes"/>
      <point x="137" y="400"/>
      <point x="134" y="401"/>
      <point x="134" y="410" type="curve" smooth="yes"/>
      <point x="134" y="510" type="line" smooth="yes"/>
      <point x="134" y="614"/>
      <point x="169" y="671"/>
      <point x="206" y="671" type="curve" smooth="yes"/>
      <point x="232" y="671"/>
      <point x="245" y="656"/>
      <point x="260" y="633" type="curve" smooth="yes"/>
      <point x="267" y="619"/>
      <point x="275" y="605"/>
      <point x="290" y="605" type="curve" smooth="yes"/>
      <point x="304" y="605"/>
      <point x="318" y="617"/>
      <point x="318" y="644" type="curve" smooth="yes"/>
      <point x="318" y="681"/>
      <point x="291" y="706"/>
      <point x="236" y="706" type="curve" smooth="yes"/>
      <point x="173" y="706"/>
      <point x="66" y="643"/>
      <point x="66" y="426" type="curve" smooth="yes"/>
      <point x="66" y="406" type="line"/>
      <point x="52" y="398"/>
      <point x="41" y="392"/>
      <point x="24" y="382" type="curve" smooth="yes"/>
      <point x="22" y="380"/>
      <point x="18" y="378"/>
      <point x="18" y="375" type="curve" smooth="yes"/>
      <point x="18" y="370"/>
      <point x="26" y="362"/>
      <point x="28" y="361" type="curve" smooth="yes"/>
      <point x="44" y="360"/>
      <point x="57" y="360"/>
      <point x="66" y="360" type="curve"/>
      <point x="66" y="62" type="line" smooth="yes"/>
      <point x="66" y="35"/>
      <point x="56" y="29"/>
      <point x="35" y="22" type="curve" smooth="yes"/>
      <point x="25" y="19"/>
      <point x="18" y="16"/>
      <point x="18" y="7" type="curve" smooth="yes"/>
      <point x="18" y="1"/>
      <point x="24" y="-1"/>
    </contour>
  </outline>
</glyph>
<glyph name="g" format="1">
  <advance width="342"/>
  <unicode hex="0067"/>
  <outline>
    <contour>
      <point x="157" y="-290" type="curve" smooth="yes"/>
      <point x="244" y="-290"/>
      <point x="331" y="-181"/>
      <point x="330" y="-77" type="curve" smooth="yes"/>
      <point x="330" y="-16"/>
      <point x="292" y="12"/>
      <point x="183" y="24" type="curve" smooth="yes"/>
      <point x="121" y="30"/>
      <point x="87" y="46"/>
      <point x="88" y="74" type="curve" smooth="yes"/>
      <point x="88" y="88"/>
      <point x="103" y="108"/>
      <point x="117" y="120" type="curve"/>
      <point x="100" y="135" type="line"/>
      <point x="89" y="118"/>
      <point x="83" y="105"/>
      <point x="50" y="81" type="curve" smooth="yes"/>
      <point x="35" y="68"/>
      <point x="28" y="57"/>
      <point x="28" y="45" type="curve" smooth="yes"/>
      <point x="28" y="-7"/>
      <point x="61" y="-25"/>
      <point x="159" y="-37" type="curve" smooth="yes"/>
      <point x="246" y="-47"/>
      <point x="272" y="-66"/>
      <point x="272" y="-111" type="curve" smooth="yes"/>
      <point x="272" y="-158"/>
      <point x="257" y="-201"/>
      <point x="236" y="-227" type="curve" smooth="yes"/>
      <point x="219" y="-245"/>
      <point x="197" y="-255"/>
      <point x="164" y="-255" type="curve" smooth="yes"/>
      <point x="119" y="-255"/>
      <point x="81" y="-213"/>
      <point x="81" y="-158" type="curve" smooth="yes"/>
      <point x="81" y="-104"/>
      <point x="95" y="-70"/>
      <point x="133" y="-28" type="curve"/>
      <point x="107" y="-23" type="line"/>
      <point x="79" y="-51"/>
      <point x="51" y="-77"/>
      <point x="35" y="-94" type="curve" smooth="yes"/>
      <point x="15" y="-112"/>
      <point x="8" y="-134"/>
      <point x="8" y="-170" type="curve" smooth="yes"/>
      <point x="8" y="-244"/>
      <point x="68" y="-290"/>
    </contour>
    <contour>
      <point x="161" y="135" type="curve" smooth="yes"/>
      <point x="126" y="135"/>
      <point x="97" y="191"/>
      <point x="97" y="269" type="curve" smooth="yes"/>
      <point x="97" y="336"/>
      <point x="125" y="390"/>
      <point x="157" y="390" type="curve" smooth="yes"/>
      <point x="191" y="390"/>
      <point x="220" y="341"/>
      <point x="220" y="275" type="curve" smooth="yes"/>
      <point x="220" y="193"/>
      <point x="196" y="135"/>
    </contour>
    <contour>
      <point x="155" y="106" type="curve" smooth="yes"/>
      <point x="224" y="106"/>
      <point x="283" y="192"/>
      <point x="283" y="292" type="curve" smooth="yes"/>
      <point x="283" y="310"/>
      <point x="285" y="332"/>
      <point x="287" y="343" type="curve" smooth="yes"/>
      <point x="289" y="349"/>
      <point x="297" y="353"/>
      <point x="312" y="353" type="curve" smooth="yes"/>
      <point x="333" y="353" type="line" smooth="yes"/>
      <point x="335" y="353"/>
      <point x="337" y="354"/>
      <point x="340" y="357" type="curve" smooth="yes"/>
      <point x="345" y="362"/>
      <point x="348" y="369"/>
      <point x="348" y="374" type="curve" smooth="yes"/>
      <point x="348" y="381"/>
      <point x="343" y="387"/>
      <point x="337" y="387" type="curve" smooth="yes"/>
      <point x="329" y="387"/>
      <point x="305" y="385"/>
      <point x="293" y="385" type="curve" smooth="yes"/>
      <point x="277" y="385"/>
      <point x="265" y="386"/>
      <point x="239" y="395" type="curve" smooth="yes"/>
      <point x="217" y="403"/>
      <point x="196" y="416"/>
      <point x="164" y="416" type="curve" smooth="yes"/>
      <point x="93" y="416"/>
      <point x="28" y="351"/>
      <point x="28" y="258" type="curve" smooth="yes"/>
      <point x="28" y="176"/>
      <point x="91" y="106"/>
    </contour>
  </outline>
</glyph>
<glyph name="h" format="1">
  <advance width="396"/>
  <unicode hex="0068"/>
  <outline>
    <contour>
      <point x="29" y="-3" type="curve" smooth="yes"/>
      <point x="61" y="-3"/>
      <point x="65" y="1"/>
      <point x="94" y="1" type="curve" smooth="yes"/>
      <point x="122" y="1"/>
      <point x="123" y="-3"/>
      <point x="155" y="-3" type="curve" smooth="yes"/>
      <point x="168" y="-3"/>
      <point x="172" y="0"/>
      <point x="172" y="7" type="curve" smooth="yes"/>
      <point x="172" y="14"/>
      <point x="166" y="17"/>
      <point x="156" y="21" type="curve" smooth="yes"/>
      <point x="142" y="26"/>
      <point x="127" y="32"/>
      <point x="127" y="53" type="curve" smooth="yes"/>
      <point x="127" y="272" type="line" smooth="yes"/>
      <point x="127" y="312"/>
      <point x="133" y="325"/>
      <point x="148" y="342" type="curve" smooth="yes"/>
      <point x="162" y="356"/>
      <point x="185" y="363"/>
      <point x="202" y="363" type="curve" smooth="yes"/>
      <point x="232" y="363"/>
      <point x="265" y="325"/>
      <point x="265" y="273" type="curve" smooth="yes"/>
      <point x="265" y="56" type="line" smooth="yes"/>
      <point x="265" y="34"/>
      <point x="251" y="27"/>
      <point x="236" y="21" type="curve" smooth="yes"/>
      <point x="226" y="16"/>
      <point x="220" y="14"/>
      <point x="220" y="6" type="curve" smooth="yes"/>
      <point x="220" y="-1"/>
      <point x="225" y="-3"/>
      <point x="236" y="-3" type="curve" smooth="yes"/>
      <point x="268" y="-3"/>
      <point x="271" y="1"/>
      <point x="300" y="1" type="curve" smooth="yes"/>
      <point x="327" y="1"/>
      <point x="330" y="-3"/>
      <point x="363" y="-3" type="curve" smooth="yes"/>
      <point x="373" y="-3"/>
      <point x="379" y="-1"/>
      <point x="379" y="6" type="curve" smooth="yes"/>
      <point x="379" y="14"/>
      <point x="372" y="17"/>
      <point x="362" y="21" type="curve" smooth="yes"/>
      <point x="348" y="26"/>
      <point x="333" y="34"/>
      <point x="333" y="56" type="curve" smooth="yes"/>
      <point x="333" y="278" type="line" smooth="yes"/>
      <point x="333" y="356"/>
      <point x="294" y="414"/>
      <point x="244" y="414" type="curve" smooth="yes"/>
      <point x="185" y="414"/>
      <point x="138" y="368"/>
      <point x="113" y="339" type="curve"/>
      <point x="135" y="341" type="line"/>
      <point x="130" y="354"/>
      <point x="127" y="367"/>
      <point x="127" y="388" type="curve" smooth="yes"/>
      <point x="127" y="562" type="line" smooth="yes"/>
      <point x="127" y="669"/>
      <point x="134" y="686"/>
      <point x="134" y="698" type="curve" smooth="yes"/>
      <point x="134" y="702"/>
      <point x="131" y="705"/>
      <point x="128" y="705" type="curve" smooth="yes"/>
      <point x="126" y="705"/>
      <point x="124" y="704"/>
      <point x="122" y="703" type="curve"/>
      <point x="95" y="689"/>
      <point x="52" y="674"/>
      <point x="30" y="668" type="curve" smooth="yes"/>
      <point x="23" y="666"/>
      <point x="22" y="662"/>
      <point x="22" y="657" type="curve" smooth="yes"/>
      <point x="22" y="650"/>
      <point x="24" y="646"/>
      <point x="29" y="645" type="curve" smooth="yes"/>
      <point x="53" y="640"/>
      <point x="60" y="618"/>
      <point x="60" y="592" type="curve" smooth="yes"/>
      <point x="60" y="53" type="line" smooth="yes"/>
      <point x="60" y="32"/>
      <point x="43" y="26"/>
      <point x="29" y="21" type="curve" smooth="yes"/>
      <point x="17" y="17"/>
      <point x="12" y="14"/>
      <point x="12" y="7" type="curve" smooth="yes"/>
      <point x="12" y="0"/>
      <point x="18" y="-3"/>
    </contour>
  </outline>
</glyph>
<glyph name="i" format="1">
  <advance width="196"/>
  <unicode hex="0069"/>
  <outline>
    <contour>
      <point x="32" y="-3" type="curve" smooth="yes"/>
      <point x="64" y="-3"/>
      <point x="70" y="2"/>
      <point x="99" y="2" type="curve" smooth="yes"/>
      <point x="128" y="3"/>
      <point x="135" y="-3"/>
      <point x="167" y="-3" type="curve" smooth="yes"/>
      <point x="176" y="-3"/>
      <point x="181" y="0"/>
      <point x="181" y="7" type="curve" smooth="yes"/>
      <point x="181" y="15"/>
      <point x="172" y="18"/>
      <point x="164" y="21" type="curve" smooth="yes"/>
      <point x="145" y="28"/>
      <point x="133" y="34"/>
      <point x="133" y="55" type="curve" smooth="yes"/>
      <point x="133" y="294" type="line" smooth="yes"/>
      <point x="133" y="339"/>
      <point x="139" y="412"/>
      <point x="139" y="428" type="curve" smooth="yes"/>
      <point x="139" y="431"/>
      <point x="135" y="434"/>
      <point x="132" y="434" type="curve" smooth="yes"/>
      <point x="127" y="434"/>
      <point x="121" y="431"/>
      <point x="117" y="426" type="curve" smooth="yes"/>
      <point x="101" y="410"/>
      <point x="80" y="391"/>
      <point x="36" y="374" type="curve" smooth="yes"/>
      <point x="30" y="372"/>
      <point x="27" y="369"/>
      <point x="27" y="364" type="curve" smooth="yes"/>
      <point x="27" y="357"/>
      <point x="30" y="352"/>
      <point x="35" y="351" type="curve" smooth="yes"/>
      <point x="60" y="345"/>
      <point x="65" y="319"/>
      <point x="65" y="286" type="curve" smooth="yes"/>
      <point x="65" y="55" type="line" smooth="yes"/>
      <point x="65" y="33"/>
      <point x="54" y="27"/>
      <point x="34" y="21" type="curve" smooth="yes"/>
      <point x="26" y="18"/>
      <point x="17" y="15"/>
      <point x="17" y="7" type="curve" smooth="yes"/>
      <point x="17" y="0"/>
      <point x="23" y="-3"/>
    </contour>
    <contour>
      <point x="97" y="517" type="curve" smooth="yes"/>
      <point x="126" y="517"/>
      <point x="147" y="538"/>
      <point x="147" y="566" type="curve" smooth="yes"/>
      <point x="147" y="595"/>
      <point x="126" y="616"/>
      <point x="97" y="616" type="curve" smooth="yes"/>
      <point x="70" y="616"/>
      <point x="48" y="595"/>
      <point x="48" y="566" type="curve" smooth="yes"/>
      <point x="48" y="538"/>
      <point x="70" y="517"/>
    </contour>
  </outline>
</glyph>
<glyph name="j" format="1">
  <advance width="192"/>
  <unicode hex="006A"/>
  <outline>
    <contour>
      <point x="5" y="-287" type="curve" smooth="yes"/>
      <point x="40" y="-287"/>
      <point x="92" y="-220"/>
      <point x="113" y="-152" type="curve" smooth="yes"/>
      <point x="137" y="-72"/>
      <point x="137" y="29"/>
      <point x="137" y="91" type="curve" smooth="yes"/>
      <point x="137" y="275" type="line" smooth="yes"/>
      <point x="137" y="320"/>
      <point x="139" y="388"/>
      <point x="142" y="422" type="curve"/>
      <point x="143" y="431"/>
      <point x="140" y="434"/>
      <point x="134" y="434" type="curve" smooth="yes"/>
      <point x="132" y="434"/>
      <point x="127" y="430"/>
      <point x="121" y="425" type="curve" smooth="yes"/>
      <point x="105" y="413"/>
      <point x="85" y="390"/>
      <point x="40" y="374" type="curve" smooth="yes"/>
      <point x="33" y="372"/>
      <point x="31" y="368"/>
      <point x="31" y="364" type="curve" smooth="yes"/>
      <point x="31" y="358"/>
      <point x="33" y="355"/>
      <point x="39" y="352" type="curve" smooth="yes"/>
      <point x="62" y="346"/>
      <point x="69" y="327"/>
      <point x="69" y="295" type="curve" smooth="yes"/>
      <point x="69" y="54" type="line" smooth="yes"/>
      <point x="69" y="-15"/>
      <point x="68" y="-149"/>
      <point x="46" y="-210" type="curve" smooth="yes"/>
      <point x="32" y="-249"/>
      <point x="15" y="-241"/>
      <point x="-7" y="-248" type="curve" smooth="yes"/>
      <point x="-10" y="-250"/>
      <point x="-20" y="-261"/>
      <point x="-20" y="-272" type="curve" smooth="yes"/>
      <point x="-20" y="-282"/>
      <point x="-4" y="-287"/>
    </contour>
    <contour>
      <point x="98" y="517" type="curve" smooth="yes"/>
      <point x="126" y="517"/>
      <point x="148" y="538"/>
      <point x="148" y="566" type="curve" smooth="yes"/>
      <point x="148" y="595"/>
      <point x="126" y="616"/>
      <point x="98" y="616" type="curve" smooth="yes"/>
      <point x="70" y="616"/>
      <point x="49" y="595"/>
      <point x="49" y="566" type="curve" smooth="yes"/>
      <point x="49" y="538"/>
      <point x="70" y="517"/>
    </contour>
  </outline>
</glyph>
<glyph name="k" format="1">
  <advance width="368"/>
  <unicode hex="006B"/>
  <outline>
    <contour>
      <point x="31" y="-3" type="curve" smooth="yes"/>
      <point x="63" y="-3"/>
      <point x="66" y="2"/>
      <point x="95" y="2" type="curve" smooth="yes"/>
      <point x="123" y="2"/>
      <point x="120" y="-3"/>
      <point x="152" y="-3" type="curve" smooth="yes"/>
      <point x="156" y="-3"/>
      <point x="171" y="-2"/>
      <point x="171" y="7" type="curve" smooth="yes"/>
      <point x="171" y="16"/>
      <point x="162" y="18"/>
      <point x="154" y="21" type="curve" smooth="yes"/>
      <point x="137" y="26"/>
      <point x="128" y="32"/>
      <point x="128" y="61" type="curve" smooth="yes"/>
      <point x="128" y="93"/>
      <point x="127" y="116"/>
      <point x="127" y="136" type="curve" smooth="yes"/>
      <point x="127" y="159"/>
      <point x="127" y="180"/>
      <point x="128" y="199" type="curve"/>
      <point x="128" y="204"/>
      <point x="130" y="206"/>
      <point x="132" y="206" type="curve" smooth="yes"/>
      <point x="135" y="206"/>
      <point x="137" y="204"/>
      <point x="139" y="199" type="curve" smooth="yes"/>
      <point x="238" y="53" type="line"/>
      <point x="241" y="48"/>
      <point x="243" y="43"/>
      <point x="243" y="39" type="curve" smooth="yes"/>
      <point x="243" y="30"/>
      <point x="234" y="24"/>
      <point x="215" y="21" type="curve" smooth="yes"/>
      <point x="208" y="19"/>
      <point x="202" y="15"/>
      <point x="202" y="8" type="curve" smooth="yes"/>
      <point x="202" y="4"/>
      <point x="205" y="0"/>
      <point x="215" y="0" type="curve" smooth="yes"/>
      <point x="268" y="0"/>
      <point x="323" y="-3"/>
      <point x="364" y="-3" type="curve" smooth="yes"/>
      <point x="372" y="-3"/>
      <point x="378" y="-1"/>
      <point x="378" y="7" type="curve" smooth="yes"/>
      <point x="378" y="15"/>
      <point x="371" y="18"/>
      <point x="362" y="21" type="curve" smooth="yes"/>
      <point x="345" y="26"/>
      <point x="327" y="41"/>
      <point x="307" y="67" type="curve" smooth="yes"/>
      <point x="291" y="87"/>
      <point x="230" y="176"/>
      <point x="189" y="234" type="curve" smooth="yes"/>
      <point x="187" y="236"/>
      <point x="187" y="239"/>
      <point x="187" y="241" type="curve" smooth="yes"/>
      <point x="187" y="244"/>
      <point x="188" y="247"/>
      <point x="191" y="251" type="curve" smooth="yes"/>
      <point x="224" y="293"/>
      <point x="276" y="343"/>
      <point x="290" y="354" type="curve" smooth="yes"/>
      <point x="305" y="367"/>
      <point x="319" y="378"/>
      <point x="336" y="384" type="curve" smooth="yes"/>
      <point x="346" y="388"/>
      <point x="355" y="393"/>
      <point x="355" y="400" type="curve" smooth="yes"/>
      <point x="355" y="406"/>
      <point x="351" y="409"/>
      <point x="345" y="409" type="curve" smooth="yes"/>
      <point x="329" y="409"/>
      <point x="301" y="400"/>
      <point x="279" y="400" type="curve" smooth="yes"/>
      <point x="235" y="400" type="line" smooth="yes"/>
      <point x="225" y="400"/>
      <point x="219" y="396"/>
      <point x="219" y="390" type="curve" smooth="yes"/>
      <point x="219" y="385"/>
      <point x="221" y="382"/>
      <point x="228" y="381" type="curve" smooth="yes"/>
      <point x="244" y="380"/>
      <point x="253" y="374"/>
      <point x="253" y="365" type="curve" smooth="yes"/>
      <point x="253" y="361"/>
      <point x="251" y="357"/>
      <point x="247" y="351" type="curve" smooth="yes"/>
      <point x="227" y="327"/>
      <point x="195" y="286"/>
      <point x="158" y="244" type="curve" smooth="yes"/>
      <point x="146" y="231"/>
      <point x="138" y="224"/>
      <point x="132" y="224" type="curve" smooth="yes"/>
      <point x="130" y="224"/>
      <point x="128" y="227"/>
      <point x="128" y="233" type="curve" smooth="yes"/>
      <point x="128" y="562" type="line" smooth="yes"/>
      <point x="128" y="647"/>
      <point x="135" y="682"/>
      <point x="135" y="696" type="curve" smooth="yes"/>
      <point x="135" y="702"/>
      <point x="134" y="705"/>
      <point x="131" y="705" type="curve" smooth="yes"/>
      <point x="129" y="705"/>
      <point x="124" y="703"/>
      <point x="120" y="701" type="curve" smooth="yes"/>
      <point x="95" y="687"/>
      <point x="63" y="678"/>
      <point x="31" y="668" type="curve" smooth="yes"/>
      <point x="24" y="667"/>
      <point x="20" y="663"/>
      <point x="20" y="657" type="curve" smooth="yes"/>
      <point x="20" y="650"/>
      <point x="22" y="647"/>
      <point x="30" y="644" type="curve" smooth="yes"/>
      <point x="57" y="639"/>
      <point x="60" y="625"/>
      <point x="60" y="580" type="curve" smooth="yes"/>
      <point x="60" y="59" type="line" smooth="yes"/>
      <point x="60" y="33"/>
      <point x="48" y="27"/>
      <point x="29" y="21" type="curve" smooth="yes"/>
      <point x="21" y="18"/>
      <point x="12" y="16"/>
      <point x="12" y="7" type="curve" smooth="yes"/>
      <point x="12" y="0"/>
      <point x="19" y="-3"/>
    </contour>
  </outline>
</glyph>
<glyph name="l" format="1">
  <advance width="192"/>
  <unicode hex="006C"/>
  <outline>
    <contour>
      <point x="31" y="-3" type="curve" smooth="yes"/>
      <point x="63" y="-3"/>
      <point x="69" y="2"/>
      <point x="97" y="2" type="curve" smooth="yes"/>
      <point x="124" y="2"/>
      <point x="130" y="-3"/>
      <point x="162" y="-3" type="curve" smooth="yes"/>
      <point x="167" y="-3"/>
      <point x="177" y="-2"/>
      <point x="177" y="5" type="curve" smooth="yes"/>
      <point x="177" y="14"/>
      <point x="169" y="18"/>
      <point x="161" y="21" type="curve" smooth="yes"/>
      <point x="147" y="27"/>
      <point x="130" y="30"/>
      <point x="130" y="56" type="curve" smooth="yes"/>
      <point x="130" y="562" type="line" smooth="yes"/>
      <point x="130" y="652"/>
      <point x="137" y="686"/>
      <point x="137" y="698" type="curve" smooth="yes"/>
      <point x="137" y="701"/>
      <point x="134" y="705"/>
      <point x="130" y="705" type="curve" smooth="yes"/>
      <point x="127" y="705"/>
      <point x="123" y="704"/>
      <point x="121" y="702" type="curve" smooth="yes"/>
      <point x="92" y="683"/>
      <point x="68" y="672"/>
      <point x="37" y="665" type="curve" smooth="yes"/>
      <point x="27" y="662"/>
      <point x="24" y="658"/>
      <point x="24" y="652" type="curve" smooth="yes"/>
      <point x="24" y="645"/>
      <point x="28" y="642"/>
      <point x="37" y="639" type="curve" smooth="yes"/>
      <point x="58" y="633"/>
      <point x="63" y="614"/>
      <point x="63" y="577" type="curve" smooth="yes"/>
      <point x="63" y="56" type="line" smooth="yes"/>
      <point x="63" y="30"/>
      <point x="46" y="26"/>
      <point x="32" y="21" type="curve" smooth="yes"/>
      <point x="24" y="18"/>
      <point x="16" y="14"/>
      <point x="16" y="5" type="curve" smooth="yes"/>
      <point x="16" y="-2"/>
      <point x="26" y="-3"/>
    </contour>
  </outline>
</glyph>
<glyph name="m" format="1">
  <advance width="607"/>
  <unicode hex="006D"/>
  <outline>
    <contour>
      <point x="34" y="-3" type="curve" smooth="yes"/>
      <point x="66" y="-3"/>
      <point x="71" y="2"/>
      <point x="99" y="2" type="curve" smooth="yes"/>
      <point x="127" y="2"/>
      <point x="131" y="-3"/>
      <point x="164" y="-3" type="curve" smooth="yes"/>
      <point x="174" y="-3"/>
      <point x="181" y="0"/>
      <point x="181" y="7" type="curve" smooth="yes"/>
      <point x="181" y="15"/>
      <point x="172" y="17"/>
      <point x="164" y="20" type="curve" smooth="yes"/>
      <point x="149" y="25"/>
      <point x="133" y="29"/>
      <point x="133" y="52" type="curve" smooth="yes"/>
      <point x="133" y="267" type="line" smooth="yes"/>
      <point x="133" y="302"/>
      <point x="138" y="325"/>
      <point x="152" y="338" type="curve" smooth="yes"/>
      <point x="169" y="359"/>
      <point x="189" y="367"/>
      <point x="213" y="367" type="curve" smooth="yes"/>
      <point x="243" y="367"/>
      <point x="270" y="320"/>
      <point x="270" y="271" type="curve" smooth="yes"/>
      <point x="270" y="52" type="line" smooth="yes"/>
      <point x="270" y="28"/>
      <point x="252" y="25"/>
      <point x="237" y="20" type="curve" smooth="yes"/>
      <point x="229" y="18"/>
      <point x="221" y="15"/>
      <point x="221" y="7" type="curve" smooth="yes"/>
      <point x="221" y="0"/>
      <point x="227" y="-3"/>
      <point x="237" y="-3" type="curve" smooth="yes"/>
      <point x="270" y="-3"/>
      <point x="276" y="2"/>
      <point x="305" y="2" type="curve" smooth="yes"/>
      <point x="333" y="2"/>
      <point x="338" y="-3"/>
      <point x="370" y="-3" type="curve" smooth="yes"/>
      <point x="381" y="-3"/>
      <point x="387" y="0"/>
      <point x="387" y="7" type="curve" smooth="yes"/>
      <point x="387" y="14"/>
      <point x="380" y="18"/>
      <point x="370" y="20" type="curve" smooth="yes"/>
      <point x="355" y="24"/>
      <point x="337" y="28"/>
      <point x="337" y="52" type="curve" smooth="yes"/>
      <point x="337" y="267" type="line" smooth="yes"/>
      <point x="337" y="302"/>
      <point x="345" y="325"/>
      <point x="358" y="339" type="curve" smooth="yes"/>
      <point x="375" y="359"/>
      <point x="394" y="367"/>
      <point x="418" y="367" type="curve" smooth="yes"/>
      <point x="449" y="367"/>
      <point x="474" y="320"/>
      <point x="474" y="271" type="curve" smooth="yes"/>
      <point x="474" y="52" type="line" smooth="yes"/>
      <point x="474" y="29"/>
      <point x="458" y="25"/>
      <point x="443" y="20" type="curve" smooth="yes"/>
      <point x="434" y="18"/>
      <point x="426" y="15"/>
      <point x="426" y="7" type="curve" smooth="yes"/>
      <point x="426" y="0"/>
      <point x="433" y="-3"/>
      <point x="443" y="-3" type="curve" smooth="yes"/>
      <point x="475" y="-3"/>
      <point x="481" y="2"/>
      <point x="510" y="2" type="curve" smooth="yes"/>
      <point x="539" y="2"/>
      <point x="541" y="-3"/>
      <point x="574" y="-3" type="curve" smooth="yes"/>
      <point x="586" y="-3"/>
      <point x="590" y="0"/>
      <point x="590" y="7" type="curve" smooth="yes"/>
      <point x="590" y="14"/>
      <point x="583" y="17"/>
      <point x="573" y="20" type="curve" smooth="yes"/>
      <point x="559" y="26"/>
      <point x="542" y="29"/>
      <point x="542" y="52" type="curve" smooth="yes"/>
      <point x="542" y="275" type="line" smooth="yes"/>
      <point x="542" y="345"/>
      <point x="513" y="414"/>
      <point x="462" y="414" type="curve" smooth="yes"/>
      <point x="412" y="414"/>
      <point x="370" y="386"/>
      <point x="337" y="348" type="curve"/>
      <point x="335" y="348" type="line"/>
      <point x="319" y="399"/>
      <point x="295" y="414"/>
      <point x="259" y="414" type="curve" smooth="yes"/>
      <point x="199" y="414"/>
      <point x="161" y="382"/>
      <point x="138" y="353" type="curve"/>
      <point x="136" y="353" type="line"/>
      <point x="135" y="354"/>
      <point x="135" y="359"/>
      <point x="135" y="365" type="curve" smooth="yes"/>
      <point x="135" y="384"/>
      <point x="138" y="413"/>
      <point x="138" y="422" type="curve" smooth="yes"/>
      <point x="138" y="427"/>
      <point x="135" y="430"/>
      <point x="131" y="430" type="curve" smooth="yes"/>
      <point x="126" y="430"/>
      <point x="123" y="427"/>
      <point x="116" y="420" type="curve" smooth="yes"/>
      <point x="96" y="399"/>
      <point x="76" y="383"/>
      <point x="43" y="373" type="curve" smooth="yes"/>
      <point x="34" y="369"/>
      <point x="31" y="368"/>
      <point x="31" y="362" type="curve" smooth="yes"/>
      <point x="31" y="355"/>
      <point x="34" y="352"/>
      <point x="38" y="350" type="curve" smooth="yes"/>
      <point x="61" y="345"/>
      <point x="65" y="321"/>
      <point x="65" y="284" type="curve" smooth="yes"/>
      <point x="65" y="52" type="line" smooth="yes"/>
      <point x="65" y="29"/>
      <point x="48" y="25"/>
      <point x="34" y="20" type="curve" smooth="yes"/>
      <point x="25" y="17"/>
      <point x="17" y="14"/>
      <point x="17" y="7" type="curve" smooth="yes"/>
      <point x="17" y="-1"/>
      <point x="25" y="-3"/>
    </contour>
  </outline>
</glyph>
<glyph name="n" format="1">
  <advance width="407"/>
  <unicode hex="006E"/>
  <outline>
    <contour>
      <point x="34" y="-3" type="curve" smooth="yes"/>
      <point x="66" y="-3"/>
      <point x="71" y="1"/>
      <point x="99" y="1" type="curve" smooth="yes"/>
      <point x="128" y="1"/>
      <point x="132" y="-3"/>
      <point x="165" y="-3" type="curve" smooth="yes"/>
      <point x="175" y="-3"/>
      <point x="181" y="0"/>
      <point x="181" y="7" type="curve" smooth="yes"/>
      <point x="181" y="13"/>
      <point x="176" y="16"/>
      <point x="164" y="20" type="curve" smooth="yes"/>
      <point x="150" y="24"/>
      <point x="133" y="29"/>
      <point x="133" y="50" type="curve" smooth="yes"/>
      <point x="133" y="303" type="line" smooth="yes"/>
      <point x="133" y="310"/>
      <point x="135" y="321"/>
      <point x="138" y="326" type="curve" smooth="yes"/>
      <point x="153" y="352"/>
      <point x="181" y="367"/>
      <point x="213" y="367" type="curve" smooth="yes"/>
      <point x="250" y="367"/>
      <point x="274" y="332"/>
      <point x="274" y="271" type="curve" smooth="yes"/>
      <point x="274" y="50" type="line" smooth="yes"/>
      <point x="274" y="29"/>
      <point x="257" y="25"/>
      <point x="243" y="20" type="curve" smooth="yes"/>
      <point x="234" y="17"/>
      <point x="226" y="13"/>
      <point x="226" y="5" type="curve" smooth="yes"/>
      <point x="226" y="-2"/>
      <point x="237" y="-3"/>
      <point x="242" y="-3" type="curve" smooth="yes"/>
      <point x="275" y="-3"/>
      <point x="280" y="1"/>
      <point x="309" y="1" type="curve" smooth="yes"/>
      <point x="337" y="1"/>
      <point x="341" y="-3"/>
      <point x="373" y="-3" type="curve" smooth="yes"/>
      <point x="380" y="-3"/>
      <point x="390" y="-2"/>
      <point x="390" y="5" type="curve" smooth="yes"/>
      <point x="390" y="13"/>
      <point x="381" y="16"/>
      <point x="373" y="20" type="curve" smooth="yes"/>
      <point x="358" y="25"/>
      <point x="342" y="29"/>
      <point x="342" y="50" type="curve" smooth="yes"/>
      <point x="342" y="274" type="line" smooth="yes"/>
      <point x="342" y="352"/>
      <point x="306" y="414"/>
      <point x="257" y="414" type="curve" smooth="yes"/>
      <point x="210" y="414"/>
      <point x="171" y="394"/>
      <point x="136" y="354" type="curve"/>
      <point x="135" y="358"/>
      <point x="135" y="364"/>
      <point x="135" y="370" type="curve" smooth="yes"/>
      <point x="135" y="384"/>
      <point x="138" y="411"/>
      <point x="138" y="420" type="curve" smooth="yes"/>
      <point x="138" y="425"/>
      <point x="137" y="430"/>
      <point x="131" y="430" type="curve" smooth="yes"/>
      <point x="127" y="430"/>
      <point x="123" y="427"/>
      <point x="120" y="424" type="curve" smooth="yes"/>
      <point x="96" y="405"/>
      <point x="74" y="388"/>
      <point x="41" y="375" type="curve" smooth="yes"/>
      <point x="34" y="372"/>
      <point x="31" y="368"/>
      <point x="31" y="363" type="curve" smooth="yes"/>
      <point x="31" y="356"/>
      <point x="33" y="353"/>
      <point x="41" y="350" type="curve" smooth="yes"/>
      <point x="64" y="343"/>
      <point x="65" y="314"/>
      <point x="65" y="277" type="curve" smooth="yes"/>
      <point x="65" y="50" type="line" smooth="yes"/>
      <point x="65" y="29"/>
      <point x="49" y="24"/>
      <point x="34" y="20" type="curve" smooth="yes"/>
      <point x="23" y="16"/>
      <point x="17" y="15"/>
      <point x="17" y="7" type="curve" smooth="yes"/>
      <point x="17" y="0"/>
      <point x="24" y="-3"/>
    </contour>
  </outline>
</glyph>
<glyph name="o" format="1">
  <advance width="374"/>
  <unicode hex="006F"/>
  <outline>
    <contour>
      <point x="176" y="-14" type="curve" smooth="yes"/>
      <point x="283" y="-14"/>
      <point x="349" y="70"/>
      <point x="349" y="213" type="curve" smooth="yes"/>
      <point x="349" y="331"/>
      <point x="283" y="414"/>
      <point x="192" y="414" type="curve" smooth="yes"/>
      <point x="100" y="414"/>
      <point x="25" y="315"/>
      <point x="25" y="187" type="curve" smooth="yes"/>
      <point x="25" y="64"/>
      <point x="86" y="-14"/>
    </contour>
    <contour>
      <point x="192" y="13" type="curve" smooth="yes"/>
      <point x="142" y="13"/>
      <point x="105" y="88"/>
      <point x="105" y="210" type="curve" smooth="yes"/>
      <point x="105" y="326"/>
      <point x="130" y="386"/>
      <point x="181" y="386" type="curve" smooth="yes"/>
      <point x="232" y="386"/>
      <point x="270" y="312"/>
      <point x="270" y="189" type="curve" smooth="yes"/>
      <point x="270" y="66"/>
      <point x="246" y="13"/>
    </contour>
  </outline>
</glyph>
<glyph name="p" format="1">
  <advance width="308"/>
  <unicode hex="0070"/>
  <outline>
    <contour>
      <point x="70" y="-281" type="curve" smooth="yes"/>
      <point x="93" y="-281"/>
      <point x="105" y="-285"/>
      <point x="130" y="-285" type="curve" smooth="yes"/>
      <point x="134" y="-285"/>
      <point x="143" y="-284"/>
      <point x="143" y="-277" type="curve" smooth="yes"/>
      <point x="143" y="-268"/>
      <point x="136" y="-265"/>
      <point x="130" y="-261" type="curve"/>
      <point x="119" y="-256"/>
      <point x="99" y="-251"/>
      <point x="99" y="-227" type="curve" smooth="yes"/>
      <point x="99" y="-33" type="line" smooth="yes"/>
      <point x="99" y="-27"/>
      <point x="99" y="24"/>
      <point x="101" y="24" type="curve"/>
      <point x="113" y="3"/>
      <point x="143" y="-14"/>
      <point x="159" y="-14" type="curve" smooth="yes"/>
      <point x="240" y="-14"/>
      <point x="289" y="101"/>
      <point x="289" y="225" type="curve" smooth="yes"/>
      <point x="289" y="319"/>
      <point x="253" y="414"/>
      <point x="195" y="414" type="curve" smooth="yes"/>
      <point x="156" y="414"/>
      <point x="113" y="375"/>
      <point x="101" y="348" type="curve"/>
      <point x="100" y="349"/>
      <point x="100" y="353"/>
      <point x="100" y="359" type="curve" smooth="yes"/>
      <point x="100" y="373"/>
      <point x="105" y="406"/>
      <point x="105" y="418" type="curve" smooth="yes"/>
      <point x="105" y="423"/>
      <point x="103" y="429"/>
      <point x="96" y="429" type="curve" smooth="yes"/>
      <point x="91" y="429"/>
      <point x="88" y="427"/>
      <point x="85" y="423" type="curve"/>
      <point x="65" y="409"/>
      <point x="45" y="393"/>
      <point x="27" y="378" type="curve" smooth="yes"/>
      <point x="19" y="375"/>
      <point x="17" y="372"/>
      <point x="17" y="365" type="curve" smooth="yes"/>
      <point x="17" y="358"/>
      <point x="19" y="356"/>
      <point x="26" y="352" type="curve" smooth="yes"/>
      <point x="43" y="346"/>
      <point x="44" y="321"/>
      <point x="44" y="286" type="curve" smooth="yes"/>
      <point x="44" y="-227" type="line" smooth="yes"/>
      <point x="44" y="-251"/>
      <point x="32" y="-256"/>
      <point x="21" y="-261" type="curve"/>
      <point x="15" y="-265"/>
      <point x="8" y="-268"/>
      <point x="8" y="-277" type="curve" smooth="yes"/>
      <point x="8" y="-284"/>
      <point x="17" y="-285"/>
      <point x="21" y="-285" type="curve" smooth="yes"/>
      <point x="45" y="-285"/>
      <point x="49" y="-281"/>
    </contour>
    <contour>
      <point x="100" y="165" type="curve" smooth="yes"/>
      <point x="100" y="190"/>
      <point x="101" y="260"/>
      <point x="101" y="313" type="curve" smooth="yes"/>
      <point x="101" y="326"/>
      <point x="134" y="361"/>
      <point x="158" y="361" type="curve" smooth="yes"/>
      <point x="185" y="361"/>
      <point x="227" y="333"/>
      <point x="227" y="193" type="curve" smooth="yes"/>
      <point x="227" y="58"/>
      <point x="189" y="13"/>
      <point x="161" y="13" type="curve" smooth="yes"/>
      <point x="132" y="13"/>
      <point x="100" y="76"/>
    </contour>
  </outline>
</glyph>
